<svg width="48" height="49" viewBox="0 0 48 49" fill="none" xmlns="http://www.w3.org/2000/svg">
<path d="M5.71201 9.42784L5.25601 6.66784C5.25601 6.66784 9.45601 2.13184 21.432 2.13184C33.408 2.13184 38.448 7.07584 38.448 7.07584L37.896 9.64384C37.896 9.64384 42.696 6.54784 42.216 13.4838C42.216 13.4838 41.784 17.5398 35.112 21.0198C35.112 21.0198 34.296 24.0918 30.024 29.4918C30.024 29.4918 28.44 43.5798 39.552 44.4678C39.552 44.4678 21.432 50.2518 4.41601 44.4678C4.41601 44.4678 15.48 42.4758 13.416 29.8758C13.416 29.8758 9.98401 27.3798 7.65601 20.4198C7.65601 20.4198 2.47201 18.6918 1.41601 12.4278C1.39201 12.4038 2.11201 7.05184 5.71201 9.42784Z" fill="#F6E0D4"/>
<path d="M8.90399 23.5879C8.90399 23.5879 15.744 32.0119 21.504 32.2039C21.504 32.2039 25.488 32.9239 30.096 26.4199C34.704 19.9159 35.64 4.96387 35.64 4.96387L38.424 6.54787L37.608 11.7799C37.608 11.7799 38.88 10.4119 39.576 10.9639C40.272 11.5159 42.336 13.5319 36.192 18.5959C36.192 18.5959 33.048 26.7319 30.192 29.4439C30.192 29.4439 27.744 40.9399 38.52 44.7559L33.6 45.8599C33.6 45.8599 24.576 36.1159 18.432 34.1479L12.696 29.4919L8.90399 23.5879Z" fill="#ECCDBE"/>
<path d="M32.016 26.7559L29.52 26.4199L30.984 28.5799L32.016 28.2919V26.7559Z" fill="#A1C6E9"/>
<path d="M29.208 26.4199L30.96 28.5799L45.192 36.5719C45.192 36.5719 46.848 36.8839 46.272 35.1799L31.992 26.7559L29.208 26.4199Z" fill="#A1C6E9"/>
<path d="M26.04 11.492L27.432 10.628C27.432 10.628 31.056 8.77997 33.504 11.492C33.504 11.492 32.832 13.532 30.12 13.484C27.408 13.436 27 12.212 27 12.212L26.208 11.972L26.04 11.492Z" fill="white"/>
<path d="M17.4 11.492L16.008 10.628C16.008 10.628 12.384 8.77997 9.936 11.492C9.936 11.492 10.608 13.532 13.32 13.484C16.032 13.436 16.44 12.212 16.44 12.212L17.232 11.972L17.4 11.492Z" fill="white"/>
<path d="M30.216 12.8118C31.0511 12.8118 31.728 12.1886 31.728 11.4198C31.728 10.6511 31.0511 10.0278 30.216 10.0278C29.381 10.0278 28.704 10.6511 28.704 11.4198C28.704 12.1886 29.381 12.8118 30.216 12.8118Z" fill="#7A5446"/>
<path d="M14.784 11.3481C14.784 12.1161 14.112 13.0281 13.272 13.0281C12.432 13.0281 11.76 12.4041 11.76 11.6361C11.76 10.8681 12.432 9.95605 13.272 9.95605C14.112 9.95605 14.784 10.5561 14.784 11.3481Z" fill="#7A5446"/>
<path d="M18.744 18.5478C18.744 18.5478 19.752 18.7638 21.504 18.5478C23.256 18.3318 24.744 20.1798 24.744 20.5878C24.744 20.9958 22.104 21.8598 20.52 21.4758C18.936 21.0918 16.68 20.1558 18.744 18.5478Z" fill="#ECCDBE"/>
<path d="M21.696 24.404C20.952 23.996 20.064 23.756 19.272 24.236C18.696 24.572 16.608 26.036 16.608 26.036C16.608 26.036 17.88 29.036 21.696 28.94C25.488 29.036 26.784 26.036 26.784 26.036C26.784 26.036 24.696 24.572 24.12 24.236C23.352 23.756 22.464 23.996 21.696 24.404Z" fill="#F29D9B"/>
<path d="M23.256 23.9722C23.256 23.9722 23.088 25.5802 21.528 25.9162C21.528 25.9162 23.448 26.6842 23.592 27.3082C23.736 27.9322 22.56 28.8922 22.56 28.8922C22.56 28.8922 26.112 27.8602 26.472 26.0602C26.472 26.0602 24.432 24.1402 23.256 23.9722Z" fill="#E68A87"/>
<path d="M5.47199 11.6358C5.47199 11.6358 4.79999 10.7238 3.98399 11.6358C3.16799 12.5478 2.42399 14.8998 7.27199 18.6198L5.47199 11.6358Z" fill="#ECCDBE"/>
<path d="M21.264 21.6199C21.312 21.6679 21.36 21.6679 21.432 21.6679C21.504 21.6679 21.6 21.6199 21.648 21.5479C21.744 21.4279 21.72 21.2599 21.6 21.1639C19.92 19.9159 19.152 18.5239 19.68 17.6599C19.752 17.5399 19.704 17.3719 19.584 17.2999C19.464 17.2279 19.296 17.2759 19.224 17.3959C18.528 18.5479 19.296 20.1559 21.264 21.6199Z" fill="#614237"/>
<path d="M22.464 20.7561C23.088 20.6601 23.688 20.7081 24.024 20.7801C24.192 20.8041 24.384 20.6841 24.384 20.5161C24.384 20.2521 24.24 19.9161 23.352 19.8921C22.56 19.8921 22.248 20.1081 22.128 20.3241C22.008 20.5401 22.2 20.8041 22.464 20.7561Z" fill="#614237"/>
<path d="M27.096 25.8679C27.072 25.8439 27.072 25.8199 27.048 25.7959L27.024 25.7719C26.88 25.6759 24.912 24.3079 24.36 23.9719C23.64 23.5399 22.776 23.5879 21.792 24.0679C20.808 23.5639 19.944 23.5399 19.224 23.9719C18.672 24.3079 16.68 25.6759 16.56 25.7719L16.536 25.7959C16.512 25.8199 16.488 25.8439 16.488 25.8679C16.464 25.9159 16.464 25.9399 16.464 25.9879V26.0599C16.464 26.0839 16.464 26.1079 16.488 26.1079C16.584 26.3239 17.952 29.1799 21.624 29.1799H21.792H21.96C25.656 29.1799 27.024 26.3239 27.12 26.1079C27.12 26.0839 27.144 26.0599 27.144 26.0599C27.144 26.0359 27.144 26.0119 27.144 25.9879C27.12 25.9399 27.12 25.8919 27.096 25.8679ZM19.488 24.4279C20.064 24.0919 20.784 24.1399 21.648 24.6199C21.72 24.6679 21.816 24.6679 21.912 24.6199C22.8 24.1639 23.496 24.0919 24.072 24.4279C24.408 24.6199 25.248 25.1959 25.896 25.6519C24.792 25.6039 23.328 25.5559 23.256 25.5559C23.232 25.5559 23.208 25.5559 23.184 25.5559C23.184 25.5559 22.44 25.7479 21.792 25.7959C21.12 25.7719 20.376 25.5799 20.376 25.5559C20.352 25.5559 20.328 25.5559 20.304 25.5559C20.232 25.5559 18.768 25.6039 17.664 25.6519C18.312 25.2199 19.152 24.6199 19.488 24.4279ZM21.768 28.6279C18.936 28.6999 17.568 26.9719 17.112 26.2279C18.12 26.1559 19.968 26.1079 20.256 26.1079C20.424 26.1559 21.12 26.3239 21.768 26.3479C22.416 26.3239 23.088 26.1559 23.256 26.1079C23.544 26.1079 25.392 26.1559 26.4 26.2279C25.968 26.9719 24.6 28.6999 21.768 28.6279Z" fill="#614237"/>
<path d="M24.888 7.628C26.304 7.004 28.464 6.428 31.272 5.948C31.56 5.9 31.848 5.924 32.112 5.996C34.752 6.836 35.352 8.828 35.376 8.924C35.4 9.044 35.52 9.116 35.64 9.116H35.712C35.856 9.068 35.928 8.924 35.904 8.78C35.88 8.684 35.208 6.404 32.28 5.492C31.944 5.396 31.56 5.372 31.2 5.42C28.344 5.9 26.136 6.476 24.696 7.124C24.552 7.196 24.504 7.34 24.552 7.484C24.576 7.628 24.744 7.676 24.888 7.628Z" fill="#614237"/>
<path d="M10.68 6.01982C10.944 5.94782 11.232 5.92382 11.52 5.97182C14.328 6.45182 16.488 7.00382 17.904 7.65182C18.048 7.72382 18.192 7.65182 18.264 7.50782C18.336 7.36382 18.264 7.21982 18.12 7.14782C16.656 6.49982 14.472 5.92382 11.616 5.44382C11.256 5.37182 10.872 5.39582 10.536 5.51582C7.60802 6.42782 6.93602 8.70782 6.91202 8.80382C6.86402 8.94782 6.96002 9.09182 7.10402 9.13982H7.17602C7.29602 9.13982 7.39202 9.06782 7.44002 8.94782C7.41602 8.85182 8.01602 6.83582 10.68 6.01982Z" fill="#614237"/>
<path d="M33.072 22.4119C32.928 22.5079 32.784 22.6279 32.64 22.7239C32.448 22.8439 32.424 23.1079 32.544 23.2999C32.616 23.4199 32.76 23.4679 32.88 23.4679C32.952 23.4679 33.048 23.4439 33.12 23.3959C33.264 23.2999 33.432 23.1799 33.576 23.0599C33.744 22.9159 33.792 22.6759 33.648 22.4839C33.504 22.3159 33.24 22.2679 33.072 22.4119Z" fill="#614237"/>
<path d="M29.04 25.4359C29.088 25.4359 29.112 25.4359 29.16 25.4119C29.16 25.4119 29.352 25.3399 29.688 25.2199C29.904 25.1479 30 24.9079 29.928 24.6919C29.856 24.4759 29.616 24.3799 29.4 24.4519C29.112 24.5719 28.92 24.6199 28.92 24.6199C28.704 24.6919 28.584 24.9079 28.656 25.1239C28.704 25.3159 28.872 25.4359 29.04 25.4359Z" fill="#614237"/>
<path d="M31.296 23.564C31.128 23.66 30.984 23.732 30.84 23.804C30.648 23.9 30.552 24.14 30.672 24.356C30.744 24.5 30.888 24.572 31.032 24.572C31.104 24.572 31.152 24.548 31.224 24.524C31.392 24.452 31.536 24.356 31.704 24.26C31.896 24.14 31.968 23.9 31.872 23.708C31.752 23.516 31.512 23.444 31.296 23.564Z" fill="#614237"/>
<path d="M12.192 22.8437C12.048 22.7717 11.88 22.6757 11.736 22.6037C11.544 22.4837 11.304 22.5557 11.184 22.7717C11.064 22.9637 11.136 23.2037 11.352 23.3237C11.52 23.4197 11.688 23.4917 11.832 23.5877C11.88 23.6117 11.952 23.6357 12.024 23.6357C12.168 23.6357 12.312 23.5637 12.384 23.4197C12.48 23.2037 12.384 22.9397 12.192 22.8437Z" fill="#614237"/>
<path d="M10.392 21.764C10.248 21.668 10.104 21.572 9.96 21.452C9.792 21.308 9.528 21.356 9.384 21.524C9.24 21.692 9.288 21.956 9.456 22.1C9.6 22.22 9.744 22.316 9.912 22.436C9.984 22.484 10.056 22.508 10.152 22.508C10.272 22.508 10.416 22.46 10.488 22.34C10.608 22.148 10.56 21.884 10.392 21.764Z" fill="#614237"/>
<path d="M14.112 23.6838C14.112 23.6838 13.92 23.6118 13.632 23.5158C13.416 23.4438 13.2 23.5398 13.104 23.7558C13.032 23.9718 13.128 24.1878 13.344 24.2838C13.68 24.4038 13.872 24.4758 13.872 24.4758C13.92 24.4998 13.944 24.4998 13.992 24.4998C14.16 24.4998 14.328 24.3798 14.376 24.2118C14.448 23.9718 14.328 23.7558 14.112 23.6838Z" fill="#614237"/>
<path d="M21.408 11.5877C21.624 11.5877 21.816 11.3957 21.816 11.1797V10.6277C21.816 10.4117 21.624 10.2197 21.408 10.2197C21.192 10.2197 21 10.4117 21 10.6277V11.1797C21 11.4197 21.168 11.5877 21.408 11.5877Z" fill="#614237"/>
<path d="M21.408 9.42806C21.624 9.42806 21.816 9.23606 21.816 9.02006V8.46806C21.816 8.25206 21.624 8.06006 21.408 8.06006C21.192 8.06006 21 8.25206 21 8.46806V9.02006C21 9.26006 21.168 9.42806 21.408 9.42806Z" fill="#614237"/>
<path d="M21.408 15.908C21.624 15.908 21.816 15.716 21.816 15.5V14.948C21.816 14.732 21.624 14.54 21.408 14.54C21.192 14.54 21 14.732 21 14.948V15.5C21 15.74 21.168 15.908 21.408 15.908Z" fill="#614237"/>
<path d="M21.408 13.7479C21.624 13.7479 21.816 13.5559 21.816 13.3399V12.7879C21.816 12.5719 21.624 12.3799 21.408 12.3799C21.192 12.3799 21 12.5719 21 12.7879V13.3399C21 13.5799 21.168 13.7479 21.408 13.7479Z" fill="#614237"/>
<path d="M25.488 13.1719C25.272 13.2679 25.176 13.4839 25.272 13.6999C25.272 13.6999 25.368 13.9159 25.536 14.2279C25.608 14.3479 25.752 14.4199 25.896 14.4199C25.968 14.4199 26.04 14.3959 26.088 14.3719C26.28 14.2519 26.352 14.0119 26.232 13.8199C26.088 13.5559 26.016 13.3879 26.016 13.3879C25.944 13.1959 25.704 13.0999 25.488 13.1719Z" fill="#614237"/>
<path d="M27.168 15.044C27 14.876 26.76 14.876 26.592 15.044C26.424 15.212 26.424 15.452 26.592 15.62C26.736 15.764 26.88 15.884 27.024 16.004C27.096 16.076 27.192 16.1 27.288 16.1C27.408 16.1 27.528 16.052 27.6 15.956C27.744 15.788 27.72 15.524 27.552 15.38C27.408 15.26 27.288 15.164 27.168 15.044Z" fill="#614237"/>
<path d="M29.184 17.084C29.352 17.084 29.52 16.964 29.568 16.796C29.64 16.58 29.496 16.364 29.28 16.292C29.112 16.244 28.968 16.196 28.8 16.124C28.584 16.052 28.368 16.148 28.272 16.34C28.2 16.556 28.296 16.772 28.488 16.868C28.656 16.94 28.848 17.012 29.04 17.06C29.112 17.084 29.136 17.084 29.184 17.084Z" fill="#614237"/>
<path d="M33.192 15.884C33.048 15.956 32.88 16.028 32.736 16.1C32.52 16.172 32.424 16.412 32.52 16.628C32.592 16.796 32.736 16.892 32.904 16.892C32.952 16.892 33 16.892 33.048 16.868C33.216 16.796 33.408 16.724 33.576 16.628C33.768 16.532 33.864 16.292 33.768 16.076C33.648 15.86 33.408 15.788 33.192 15.884Z" fill="#614237"/>
<path d="M30.792 17.2999C30.984 17.2999 31.176 17.2759 31.368 17.2519C31.584 17.2279 31.752 17.0359 31.728 16.7959C31.704 16.5799 31.512 16.4119 31.272 16.4359C31.104 16.4599 30.936 16.4599 30.768 16.4599C30.552 16.4599 30.36 16.6519 30.36 16.8679C30.384 17.1079 30.552 17.2999 30.792 17.2999Z" fill="#614237"/>
<path d="M36.024 14.1797C36.096 14.2517 36.192 14.2757 36.288 14.2757C36.408 14.2757 36.528 14.2277 36.6 14.1317C36.768 13.9397 36.864 13.7717 36.936 13.6757C37.056 13.4837 37.032 13.2437 36.84 13.0997C36.648 12.9797 36.408 13.0037 36.264 13.1957C36.192 13.2917 36.096 13.4357 35.952 13.6037C35.832 13.7717 35.856 14.0357 36.024 14.1797Z" fill="#614237"/>
<path d="M34.896 14.7321C34.776 14.8521 34.632 14.9481 34.488 15.0681C34.32 15.2121 34.272 15.4521 34.416 15.6441C34.488 15.7401 34.608 15.7881 34.728 15.7881C34.824 15.7881 34.896 15.7641 34.968 15.6921C35.112 15.5721 35.256 15.4521 35.4 15.3321C35.568 15.1881 35.592 14.9241 35.424 14.7561C35.304 14.5881 35.064 14.5881 34.896 14.7321Z" fill="#614237"/>
<path d="M14.76 16.1481C14.616 16.2201 14.448 16.2681 14.28 16.3161C14.064 16.3881 13.944 16.6041 13.992 16.8201C14.04 16.9881 14.208 17.1081 14.376 17.1081C14.424 17.1081 14.448 17.1081 14.496 17.0841C14.688 17.0361 14.856 16.9641 15.048 16.8921C15.264 16.8201 15.36 16.5801 15.264 16.3641C15.192 16.1481 14.976 16.0521 14.76 16.1481Z" fill="#614237"/>
<path d="M10.848 16.0761C10.704 16.0041 10.536 15.9561 10.392 15.8601C10.2 15.7641 9.96 15.8361 9.84 16.0521C9.744 16.2441 9.816 16.4841 10.032 16.6041C10.2 16.7001 10.368 16.7721 10.56 16.8441C10.608 16.8681 10.656 16.8681 10.704 16.8681C10.872 16.8681 11.016 16.7721 11.088 16.6041C11.16 16.4121 11.04 16.1721 10.848 16.0761Z" fill="#614237"/>
<path d="M9.07202 15.068C8.92802 14.948 8.80802 14.852 8.66402 14.732C8.49602 14.588 8.23202 14.612 8.08802 14.756C7.94402 14.924 7.96802 15.188 8.11202 15.332C8.25602 15.452 8.40002 15.572 8.54402 15.692C8.61602 15.74 8.71202 15.788 8.78402 15.788C8.90402 15.788 9.02402 15.74 9.09602 15.644C9.28802 15.452 9.26402 15.188 9.07202 15.068Z" fill="#614237"/>
<path d="M13.2 16.8918C13.2 16.6758 13.032 16.4838 12.792 16.4838C12.624 16.4838 12.456 16.4598 12.288 16.4598C12.072 16.4358 11.856 16.6038 11.832 16.8198C11.808 17.0358 11.976 17.2518 12.192 17.2758C12.384 17.2998 12.576 17.2998 12.768 17.3238C13.008 17.2998 13.2 17.1078 13.2 16.8918Z" fill="#614237"/>
<path d="M16.992 15.62C17.16 15.452 17.16 15.212 16.992 15.044C16.824 14.876 16.584 14.876 16.416 15.044C16.296 15.164 16.176 15.284 16.032 15.38C15.864 15.524 15.84 15.788 15.984 15.956C16.056 16.052 16.176 16.1 16.296 16.1C16.392 16.1 16.488 16.076 16.56 16.004C16.704 15.884 16.848 15.74 16.992 15.62Z" fill="#614237"/>
<path d="M18.096 13.172C17.88 13.076 17.664 13.196 17.568 13.388C17.568 13.388 17.496 13.556 17.352 13.82C17.232 14.012 17.304 14.252 17.496 14.372C17.568 14.42 17.64 14.42 17.688 14.42C17.832 14.42 17.952 14.348 18.048 14.228C18.24 13.916 18.312 13.7 18.312 13.7C18.384 13.508 18.288 13.268 18.096 13.172Z" fill="#614237"/>
<path d="M46.224 34.6999C46.224 34.6759 46.224 34.6759 46.224 34.6999C46.2 34.6759 46.2 34.6759 46.176 34.6759L32.376 26.7799C33.456 25.2919 34.368 23.6599 35.136 21.9799C35.136 21.9559 35.16 21.9559 35.16 21.9319C35.256 21.7159 35.352 21.4519 35.472 21.1399C38.424 20.0839 41.568 16.6999 42.264 14.5159C42.864 12.5959 42.792 10.9159 42.024 9.90793C41.352 9.01993 40.608 8.56393 39.84 8.61193C39.48 8.63593 38.784 8.85193 38.352 9.06793C38.472 8.22793 38.568 7.45993 38.64 6.78793C38.712 5.99593 38.856 4.57993 38.856 4.53193C38.856 4.38793 38.76 4.26793 38.616 4.24393C38.472 4.24393 38.328 4.33993 38.328 4.48393C38.328 4.53193 38.232 5.49193 38.16 6.28393C36.072 5.01193 30.12 1.98793 20.856 1.98793C11.544 1.96393 6.96001 5.03593 5.49601 6.25993C5.42401 5.58793 5.32801 4.77193 5.32801 4.74793C5.30401 4.60393 5.18401 4.48393 5.04001 4.50793C4.89601 4.53193 4.77601 4.65193 4.80001 4.79593C4.80001 4.81993 4.96801 6.25993 5.01601 6.85993C5.08801 7.43593 5.18401 8.17993 5.30401 9.01993C4.87201 8.82793 4.27201 8.61193 4.05601 8.61193C3.28801 8.58793 2.54401 9.01993 1.87201 9.90793C1.08001 10.9639 0.984014 12.7879 1.60801 14.7799C2.28001 16.8919 4.82401 19.7719 7.58401 20.7799C8.28001 23.0839 9.84001 26.7319 13.296 30.0679C13.536 32.1559 13.488 36.7399 11.592 39.6439C10.08 41.9479 7.68001 43.4119 4.41601 44.0359C4.27201 44.0599 4.17601 44.2039 4.20001 44.3479C4.22401 44.4919 4.36801 44.5879 4.51201 44.5639C7.92001 43.9159 10.44 42.3559 12.048 39.9319C14.088 36.8119 14.016 32.3239 13.896 30.5959C15.12 31.6999 16.584 32.7559 18.312 33.7159C19.248 34.2439 20.592 34.5559 21.84 34.5559H21.864H21.888C23.04 34.5079 24.168 34.1719 25.152 33.5959C25.92 33.1399 27.72 31.9639 29.688 29.9719C29.496 32.5159 29.712 37.0039 31.68 39.9799C33.288 42.3799 35.76 43.9159 39.096 44.5639H39.144C39.264 44.5639 39.384 44.4679 39.408 44.3479C39.432 44.2039 39.336 44.0599 39.192 44.0359C36.024 43.4359 33.648 41.9719 32.136 39.6919C30.048 36.5479 30.024 31.6039 30.312 29.3479C30.504 29.1559 30.672 28.9399 30.864 28.7239L44.976 36.8359H45C45 36.8359 45.024 36.8359 45.024 36.8599C45.168 36.9079 45.384 36.9559 45.6 36.9559C45.984 36.9559 46.416 36.8359 46.68 36.3799C47.064 35.6599 46.56 34.9639 46.224 34.6999ZM38.256 9.69193C38.28 9.69193 38.328 9.66793 38.352 9.64393C38.544 9.49993 39.504 9.11593 39.864 9.11593C40.44 9.09193 41.016 9.45193 41.592 10.1959C42.24 11.0599 42.312 12.5719 41.76 14.3239C41.136 16.2679 38.352 19.2679 35.736 20.4439C36.072 19.5319 36.432 18.5239 36.624 17.7799C37.392 14.8759 37.896 12.0439 38.256 9.69193ZM2.13601 14.5879C1.56001 12.7639 1.60801 11.1079 2.30401 10.1959C2.85601 9.47593 3.40801 9.11593 3.98401 9.11593H4.03201C4.20001 9.11593 5.04001 9.45193 5.40001 9.61993C5.73601 11.9479 6.26401 14.9719 7.03201 18.0919C7.03201 18.0919 7.10401 18.8839 7.41601 20.1319C4.94401 19.0519 2.73601 16.4839 2.13601 14.5879ZM29.832 29.0119C27.672 31.3159 25.68 32.6359 24.84 33.1159C23.928 33.6439 22.896 33.9559 21.84 34.0039H21.816C20.424 34.0039 19.224 33.5959 18.552 33.2359C11.88 29.5399 9.24001 24.1639 8.23201 20.9719C8.28001 21.0199 8.32801 21.0679 8.35201 21.1159C8.42401 21.1879 8.54401 21.2359 8.64001 21.2359C8.73601 21.2359 8.83201 21.1879 8.92801 21.1159C9.09601 20.9719 9.09601 20.7079 8.92801 20.5399C8.80801 20.4199 8.68801 20.2999 8.59201 20.1559C8.44801 19.9879 8.18401 19.9639 8.01601 20.1079C7.99201 20.1079 7.99201 20.1319 7.96801 20.1559C7.60801 18.8599 7.53601 18.0439 7.53601 18.0199C7.53601 17.9719 7.53601 17.9479 7.51201 17.9239C7.15201 16.4599 6.84001 14.9959 6.60001 13.6279C6.60001 13.6279 6.60001 13.6519 6.62401 13.6519C6.69601 13.7479 6.81601 13.9159 6.96001 14.1079C7.03201 14.2039 7.15201 14.2519 7.27201 14.2519C7.36801 14.2519 7.46401 14.2279 7.53601 14.1559C7.70401 14.0119 7.72801 13.7479 7.58401 13.5799C7.44001 13.4119 7.34401 13.2679 7.27201 13.1719C7.15201 12.9799 6.88801 12.9559 6.69601 13.0759C6.60001 13.1479 6.55201 13.2439 6.52801 13.3399C6.02401 10.6759 5.71201 8.34793 5.52001 6.88393C6.50401 5.97193 10.92 2.49193 20.76 2.49193C30.264 2.49193 36.216 5.70793 38.016 6.85993C37.728 9.52393 37.128 13.4839 36.024 17.6359C35.808 18.4519 35.376 19.6519 35.016 20.6119C34.872 20.5639 34.704 20.6119 34.584 20.7319C34.464 20.8519 34.368 20.9959 34.248 21.1159C34.104 21.2839 34.104 21.5239 34.248 21.6919C34.32 21.7639 34.416 21.8119 34.536 21.8119C34.656 21.8119 34.536 21.8359 34.512 21.8359C33.768 23.4919 32.856 25.0519 31.8 26.5159C31.752 26.4919 31.704 26.4919 31.656 26.4679L29.88 26.1079L28.872 25.8919C28.752 25.8679 28.656 25.9159 28.584 26.0119C28.512 26.1079 28.536 26.2279 28.608 26.3239L29.256 27.1399L30.312 28.3399C30.24 28.6039 30.048 28.8199 29.832 29.0119ZM44.976 36.2359L30.96 28.1479L29.904 26.9479L30.048 26.6839L31.656 27.0199C31.728 27.0439 31.8 27.0679 31.872 27.0919L45.696 34.9879L44.976 36.2359ZM46.176 36.0919C46.008 36.3799 45.72 36.4039 45.504 36.4039L46.104 35.3479C46.224 35.5399 46.344 35.8279 46.176 36.0919Z" fill="#614237"/>
<path d="M21.528 31.8438C21.312 31.8438 21.12 32.0357 21.12 32.2517V32.8038C21.12 33.0197 21.312 33.2117 21.528 33.2117C21.744 33.2117 21.936 33.0197 21.936 32.8038V32.2517C21.936 32.0357 21.768 31.8438 21.528 31.8438Z" fill="#614237"/>
<path d="M21.528 29.6841C21.312 29.6841 21.12 29.8761 21.12 30.0921V30.6441C21.12 30.8601 21.312 31.0521 21.528 31.0521C21.744 31.0521 21.936 30.8601 21.936 30.6441V30.0921C21.936 29.8761 21.768 29.6841 21.528 29.6841Z" fill="#614237"/>
<path d="M29.784 11.7319C30.144 11.7319 30.408 11.4439 30.408 11.1079C30.408 10.7719 30.12 10.4839 29.784 10.4839C29.448 10.4839 29.16 10.7719 29.16 11.1079C29.16 11.4439 29.424 11.7319 29.784 11.7319ZM29.784 11.0119C29.832 11.0119 29.88 11.0599 29.88 11.1079C29.88 11.1559 29.832 11.2039 29.784 11.2039C29.736 11.2039 29.688 11.1559 29.688 11.1079C29.688 11.0599 29.712 11.0119 29.784 11.0119Z" fill="#614237"/>
<path d="M35.208 10.9161C35.28 10.7721 35.208 10.6281 35.088 10.5561C34.968 10.4841 34.8 10.5561 34.728 10.6761C34.728 10.7001 34.56 10.9881 33.984 11.1081C33.96 11.0361 33.912 10.9881 33.84 10.9401C33.816 10.9401 33.816 10.9401 33.792 10.9161C33.768 10.8681 33.744 10.8441 33.696 10.8201C33.672 10.7961 33.6 10.7721 33.528 10.7001C33.504 10.6761 33.48 10.6761 33.456 10.6521C33.552 10.5561 33.624 10.4841 33.696 10.3881C33.72 10.3641 33.72 10.3641 33.72 10.3401C33.744 10.3161 33.744 10.3161 33.768 10.2921C34.056 9.86007 34.032 9.52407 34.032 9.47607C34.008 9.33207 33.888 9.23607 33.744 9.23607C33.6 9.23607 33.48 9.38007 33.504 9.52407C33.504 9.52407 33.504 9.71607 33.336 9.98007C33.336 10.0041 33.312 10.0041 33.312 10.0281L33.288 10.0521C33.216 10.1481 33.12 10.2441 33 10.3401C32.688 10.1481 32.304 10.0041 32.04 9.90807C32.088 9.83607 32.136 9.71607 32.184 9.59607V9.57207V9.54807C32.256 9.14007 32.208 8.78007 32.208 8.78007C32.184 8.63607 32.04 8.54007 31.896 8.56407C31.752 8.58807 31.656 8.73207 31.68 8.87607C31.68 8.87607 31.728 9.16407 31.68 9.45207C31.584 9.71607 31.464 9.78807 31.464 9.78807C31.44 9.78807 31.44 9.81207 31.416 9.81207C31.392 9.78807 31.344 9.78807 31.32 9.78807C31.32 9.78807 31.296 9.78807 31.248 9.78807C31.248 9.78807 31.248 9.78807 31.224 9.78807C31.152 9.78807 31.056 9.76407 30.96 9.74007C30.792 9.71607 30.696 9.69207 30.624 9.66807C30.648 9.54807 30.672 9.42807 30.672 9.28407C30.672 9.28407 30.672 9.28407 30.672 9.26007C30.672 9.26007 30.672 9.26007 30.672 9.23607V9.09207C30.672 8.94807 30.672 8.73207 30.672 8.66007C30.672 8.51607 30.528 8.39607 30.384 8.42007C30.24 8.42007 30.12 8.56407 30.144 8.70807V9.09207V9.23607C30.144 9.38007 30.12 9.50007 30.096 9.59607C28.776 9.57207 28.008 9.98007 27.576 10.2201L27.528 10.2441C27.264 10.3881 26.712 10.6761 26.496 10.7481C26.448 10.7721 26.4 10.7721 26.376 10.7961C26.232 10.8681 26.112 10.9401 26.016 11.0361C25.776 11.2521 25.704 11.4921 25.776 11.7321C25.92 12.1641 26.352 12.2841 26.736 12.3561L26.808 12.3801C27.072 12.4281 27.24 12.5241 27.312 12.5721C28.128 13.3401 29.16 13.6521 29.952 13.7001C29.952 13.8441 29.928 13.9881 29.928 14.0841C29.904 14.2281 30.024 14.3721 30.168 14.3961H30.192C30.336 14.3961 30.432 14.3001 30.456 14.1561C30.456 14.1321 30.48 13.9161 30.48 13.7001C30.72 13.6761 31.008 13.6521 31.176 13.6281C31.368 13.6041 31.608 13.5081 31.8 13.4601C31.824 13.5801 31.848 13.7001 31.872 13.7721C31.896 13.9161 32.04 14.0121 32.184 13.9881C32.328 13.9641 32.424 13.8201 32.4 13.6761C32.4 13.6521 32.352 13.4361 32.304 13.2441C32.568 13.1001 32.832 12.8841 32.856 12.8601C33.024 12.7161 33.216 12.4761 33.36 12.3081C33.432 12.4041 33.528 12.5001 33.6 12.6201C33.696 12.7401 33.864 12.7641 33.984 12.6921C34.104 12.5961 34.128 12.4281 34.056 12.3081C34.008 12.2361 33.84 12.0201 33.672 11.8521C33.72 11.7801 33.744 11.7321 33.768 11.6841C34.872 11.5881 35.184 10.9401 35.208 10.9161ZM29.016 10.7721C29.016 10.7721 29.232 10.3881 29.544 10.2201C29.76 10.1961 29.976 10.1961 30.216 10.2201H30.336V10.1961C30.336 10.1961 30.36 10.1961 30.36 10.1721V10.2201C30.408 10.2201 30.624 10.2681 30.816 10.2921C30.888 10.3161 30.984 10.3161 31.032 10.3401C31.104 10.3881 31.296 10.5321 31.368 10.7721V10.7961C31.44 10.9641 31.488 11.1321 31.488 11.3241C31.488 12.0201 30.888 12.5961 30.168 12.5961C29.448 12.5961 28.848 12.0201 28.848 11.3241C28.896 11.1321 28.944 10.9401 29.016 10.7721ZM33.336 11.3481C33.312 11.3961 33.312 11.4201 33.288 11.4441C33.288 11.4441 33.288 11.4681 33.264 11.4681C33.216 11.5641 33.144 11.6841 33.072 11.8281C32.904 12.0681 32.664 12.3801 32.496 12.5241C32.328 12.6441 32.016 12.8601 31.824 12.9561C31.632 13.0281 31.272 13.1481 31.056 13.1961C30.864 13.2201 30.48 13.2681 30.24 13.2681C30.24 13.2681 30.192 13.2681 30.144 13.2681C29.448 13.2681 28.44 13.0281 27.648 12.2841C27.456 12.1161 27.096 11.9961 26.904 11.9481L26.832 11.9241C26.496 11.8521 26.304 11.8041 26.256 11.6601C26.256 11.6361 26.28 11.5881 26.352 11.5161C26.424 11.4681 26.496 11.4201 26.568 11.3721C26.592 11.3481 26.616 11.3481 26.664 11.3241C26.904 11.2281 27.456 10.9401 27.744 10.7721L27.792 10.7481C28.032 10.6041 28.296 10.4841 28.632 10.3641C28.584 10.4361 28.56 10.4841 28.56 10.4841C28.44 10.7481 28.368 11.0121 28.368 11.3001C28.368 12.3081 29.208 13.1241 30.216 13.1241C31.224 13.1241 32.064 12.3081 32.064 11.3001C32.064 11.0361 32.016 10.7961 31.896 10.5561C31.896 10.5321 31.872 10.5081 31.872 10.4841C32.16 10.6041 32.568 10.7721 32.832 10.9401H32.856C32.904 10.9641 33.072 11.0841 33.216 11.1561C33.264 11.1801 33.312 11.2281 33.36 11.2521L33.336 11.3481Z" fill="#614237"/>
<path d="M13.728 11.8521C14.088 11.8521 14.352 11.5641 14.352 11.2281C14.352 10.8921 14.064 10.5801 13.728 10.5801C13.392 10.5801 13.104 10.8681 13.104 11.2041C13.104 11.5401 13.368 11.8521 13.728 11.8521ZM13.728 11.1321C13.776 11.1321 13.824 11.1801 13.824 11.2281C13.824 11.2761 13.776 11.3241 13.728 11.3241C13.68 11.3241 13.632 11.2761 13.632 11.2281C13.632 11.1561 13.68 11.1321 13.728 11.1321Z" fill="#614237"/>
<path d="M11.352 14.18C11.496 14.204 11.64 14.108 11.664 13.964C11.664 13.916 11.688 13.796 11.736 13.652C11.928 13.724 12.192 13.796 12.36 13.82C12.528 13.844 12.84 13.868 13.056 13.892C13.056 14.108 13.08 14.324 13.08 14.348C13.104 14.492 13.224 14.588 13.344 14.588H13.368C13.512 14.564 13.608 14.444 13.608 14.276C13.608 14.204 13.584 14.036 13.584 13.892C14.376 13.844 15.408 13.532 16.224 12.764C16.272 12.716 16.464 12.62 16.728 12.572L16.8 12.548C17.184 12.452 17.64 12.356 17.76 11.924C17.832 11.684 17.76 11.444 17.52 11.228C17.424 11.132 17.304 11.06 17.16 10.988C17.112 10.964 17.064 10.964 17.04 10.94C16.824 10.844 16.272 10.556 16.008 10.412L15.984 10.388C15.552 10.148 14.784 9.73996 13.464 9.76396C13.44 9.66796 13.416 9.54796 13.416 9.40396V9.28396C13.416 9.13996 13.416 8.94796 13.416 8.89996C13.416 8.75596 13.32 8.61196 13.176 8.61196C13.032 8.58796 12.888 8.70796 12.888 8.85196V9.28396V9.40396V9.42796V9.45196C12.888 9.59596 12.912 9.71596 12.936 9.83596C12.864 9.85996 12.744 9.85996 12.6 9.90796C12.504 9.93196 12.408 9.93196 12.336 9.95596H12.312C12.288 9.95596 12.264 9.95596 12.24 9.95596C12.216 9.95596 12.168 9.97996 12.144 9.97996C12.024 9.88396 11.928 9.73996 11.88 9.57196C11.832 9.25996 11.88 8.99596 11.88 8.97196C11.904 8.82796 11.808 8.68396 11.664 8.65996C11.52 8.63596 11.376 8.73196 11.352 8.87596C11.352 8.89996 11.304 9.25996 11.376 9.64396V9.66796V9.69196C11.424 9.83596 11.472 9.97996 11.568 10.1C11.544 10.1 11.52 10.124 11.52 10.124C11.424 10.172 11.328 10.196 11.232 10.244C11.112 10.292 10.872 10.412 10.608 10.532C10.488 10.436 10.392 10.316 10.296 10.22C10.296 10.196 10.272 10.196 10.272 10.196C10.272 10.172 10.248 10.172 10.248 10.148C10.08 9.88396 10.08 9.69196 10.08 9.69196C10.08 9.54796 9.98402 9.42796 9.84002 9.40396C9.69602 9.37996 9.55202 9.49996 9.55202 9.64396C9.55202 9.69196 9.52802 10.028 9.81602 10.46C9.81602 10.484 9.84002 10.484 9.86402 10.508C9.86402 10.532 9.88802 10.556 9.88802 10.556C9.96002 10.652 10.032 10.724 10.128 10.82C10.104 10.844 10.08 10.844 10.056 10.868C9.98402 10.916 9.91202 10.964 9.88802 10.964C9.86402 10.964 9.86402 10.964 9.86402 10.988C9.84002 10.988 9.84002 11.012 9.81602 11.036C9.79202 11.036 9.79202 11.06 9.76802 11.06C9.74402 11.084 9.72002 11.084 9.69602 11.108L9.60002 11.132C9.57602 11.156 9.52802 11.204 9.50402 11.252C8.95202 11.108 8.78402 10.82 8.78402 10.82C8.71202 10.676 8.56802 10.628 8.42402 10.7C8.28002 10.772 8.23202 10.916 8.28002 11.06C8.30402 11.084 8.59202 11.732 9.72002 11.852C9.74402 11.9 9.76802 11.972 9.81602 12.02C9.64802 12.188 9.50402 12.38 9.43202 12.476C9.33602 12.596 9.38402 12.764 9.50402 12.86C9.62402 12.956 9.79202 12.908 9.88802 12.788C9.96002 12.692 10.056 12.572 10.128 12.476C10.272 12.644 10.464 12.884 10.632 13.028C10.656 13.052 10.944 13.244 11.184 13.412C11.112 13.628 11.088 13.82 11.088 13.844C11.088 14.012 11.184 14.156 11.352 14.18ZM12.096 10.916V10.892C12.168 10.652 12.36 10.508 12.432 10.46C12.504 10.46 12.576 10.436 12.648 10.412C12.84 10.388 13.056 10.34 13.08 10.34V10.268C13.104 10.268 13.104 10.292 13.128 10.292V10.316H13.248C13.488 10.292 13.728 10.316 13.92 10.316C14.232 10.484 14.448 10.868 14.448 10.868C14.544 11.036 14.592 11.228 14.592 11.42C14.592 12.116 13.992 12.692 13.272 12.692C12.552 12.692 11.952 12.116 11.952 11.42C11.976 11.252 12.024 11.084 12.096 10.916ZM10.992 12.62C10.824 12.476 10.584 12.164 10.416 11.924C10.32 11.78 10.248 11.66 10.224 11.588C10.224 11.588 10.224 11.564 10.2 11.564C10.176 11.54 10.152 11.492 10.152 11.468C10.152 11.444 10.128 11.444 10.128 11.42C10.152 11.396 10.224 11.372 10.272 11.324C10.416 11.228 10.584 11.132 10.632 11.108L10.752 11.06C10.944 10.964 11.28 10.82 11.376 10.772C11.448 10.748 11.52 10.7 11.592 10.676C11.592 10.676 11.592 10.7 11.568 10.7C11.448 10.94 11.4 11.18 11.4 11.444C11.4 12.452 12.24 13.268 13.248 13.268C14.256 13.268 15.096 12.452 15.096 11.444C15.096 11.156 15.024 10.892 14.904 10.628C14.904 10.628 14.88 10.58 14.832 10.508C15.168 10.604 15.432 10.748 15.672 10.892L15.72 10.916C16.008 11.06 16.56 11.348 16.824 11.468C16.848 11.468 16.872 11.492 16.896 11.492C16.992 11.54 17.064 11.588 17.112 11.636C17.184 11.708 17.208 11.756 17.208 11.78C17.16 11.924 16.968 11.972 16.632 12.044L16.56 12.068C16.368 12.116 16.008 12.212 15.816 12.404C15.048 13.124 14.04 13.388 13.344 13.388C13.32 13.388 13.32 13.388 13.296 13.388C13.248 13.388 13.2 13.388 13.176 13.388C12.984 13.388 12.6 13.34 12.384 13.316C12.168 13.268 11.808 13.148 11.616 13.076C11.472 12.956 11.16 12.74 10.992 12.62Z" fill="#614237"/>
</svg>
