<svg width="38" height="41" viewBox="0 0 38 41" fill="none" xmlns="http://www.w3.org/2000/svg">
<g clip-path="url(#clip0_1065_1787)">
<path d="M8.93271 23.6904H2.59053C2.43037 23.6904 2.30225 23.8186 2.30225 23.9787V36.5157C2.30225 36.6695 2.43037 36.804 2.59053 36.804H8.93271C9.09287 36.804 9.221 36.6695 9.221 36.5157V23.9723C9.221 23.8121 9.09287 23.6904 8.93271 23.6904ZM2.87881 36.2339V24.2606H8.64443V36.2339H2.87881Z" fill="#231F20"/>
<path d="M2.87891 24.2605H8.64453V36.2338H2.87891V24.2605Z" fill="#4AD4BE"/>
<path d="M17.4595 14.8882H11.4504C11.2902 14.8882 11.1621 15.0163 11.1621 15.1765V36.5157C11.1621 36.6694 11.2902 36.804 11.4504 36.804H17.4659C17.6196 36.804 17.7541 36.6694 17.7541 36.5157V15.1765C17.7477 15.0163 17.6196 14.8882 17.4595 14.8882ZM11.7387 36.2338V15.4647H17.1776V36.2338H11.7387Z" fill="#231F20"/>
<path d="M11.7388 15.4648H17.1777V36.2339H11.7388V15.4648Z" fill="#F7CA59"/>
<path d="M26.3706 21.2302H20.195C20.0349 21.2302 19.9067 21.3584 19.9067 21.5185V36.5155C19.9067 36.6693 20.0349 36.8038 20.195 36.8038H26.3706C26.5308 36.8038 26.6589 36.6693 26.6589 36.5155V21.5185C26.6525 21.3584 26.5308 21.2302 26.3706 21.2302ZM20.4833 36.2337V21.8068H26.0824V36.2337H20.4833Z" fill="#231F20"/>
<path d="M20.4834 21.8069H26.0825V36.2338H20.4834V21.8069Z" fill="#80D4F7"/>
<path d="M35.1153 12.3193H28.8308C28.6706 12.3193 28.5425 12.4475 28.5425 12.6076V36.5157C28.5425 36.6695 28.6706 36.804 28.8308 36.804H35.1153C35.269 36.804 35.4036 36.6695 35.4036 36.5157V12.6076C35.4036 12.4475 35.269 12.3193 35.1153 12.3193ZM29.119 36.2339V12.8959H34.827V36.2339H29.119Z" fill="#231F20"/>
<path d="M29.1191 12.896H34.8271V36.234H29.1191V12.896Z" fill="#F76D55"/>
<path d="M7.87586 12.1975C7.75414 12.0502 7.6132 11.9156 7.45945 11.8003C6.9982 11.448 6.43445 11.2366 5.81305 11.2366C4.30117 11.2366 3.08398 12.4666 3.08398 13.9656C3.08398 15.4775 4.30758 16.6947 5.81305 16.6947C7.31852 16.6947 8.54211 15.4711 8.54211 13.9656C8.54211 13.293 8.28586 12.678 7.87586 12.1975ZM5.80664 16.1309C4.61508 16.1309 3.64773 15.17 3.64773 13.972C3.64773 12.7869 4.60867 11.8131 5.80664 11.8131C6.37039 11.8131 6.88289 12.0245 7.26726 12.3833C7.26726 12.3897 7.26727 12.3897 7.27367 12.3961C7.28008 12.4025 7.28648 12.4089 7.29289 12.4089C7.7093 12.8061 7.97195 13.3634 7.97195 13.9784C7.96555 15.1636 6.9982 16.1309 5.80664 16.1309Z" fill="#231F20"/>
<path d="M7.96576 13.9721C7.96576 15.1637 6.99842 16.131 5.80686 16.131C4.61529 16.131 3.64795 15.1701 3.64795 13.9721C3.64795 12.787 4.60889 11.8132 5.80686 11.8132C6.37061 11.8132 6.88311 12.0246 7.26748 12.3834C7.26748 12.3898 7.26748 12.3898 7.27389 12.3962C7.28029 12.4026 7.2867 12.409 7.29311 12.409C7.70951 12.7998 7.96576 13.3571 7.96576 13.9721Z" fill="#4AD4BE"/>
<path d="M14.5958 2.44727C13.0839 2.44727 11.8604 3.67086 11.8604 5.17633C11.8604 5.80414 12.0718 6.3743 12.4369 6.83555C12.5458 6.9893 12.6804 7.13023 12.8277 7.25195C13.3018 7.66195 13.9232 7.90539 14.6022 7.90539C15.4222 7.90539 16.1589 7.54664 16.6586 6.96367C16.7868 6.82914 16.8957 6.66898 16.9918 6.50242C17.2096 6.11164 17.3377 5.65039 17.3377 5.16992C17.3249 3.66445 16.0949 2.44727 14.5958 2.44727ZM14.5958 7.33524C13.9744 7.33524 13.4107 7.07258 13.0199 6.64977C12.6611 6.25899 12.4369 5.74008 12.4369 5.17633C12.4369 3.99117 13.4043 3.01742 14.6022 3.01742C15.7874 3.01742 16.7611 3.98477 16.7611 5.17633C16.7611 5.61836 16.6266 6.02836 16.396 6.3807C16.3896 6.3807 16.3896 6.38711 16.3832 6.39352C16.3832 6.39992 16.3768 6.39992 16.3768 6.40633C15.9732 6.96367 15.3261 7.33524 14.5958 7.33524Z" fill="#231F20"/>
<path d="M16.7485 5.17624C16.7485 5.61827 16.6139 6.02827 16.3833 6.38062C16.3769 6.38062 16.3769 6.38702 16.3705 6.39343C16.3705 6.39983 16.3641 6.39983 16.3641 6.40624C15.9733 6.96999 15.3263 7.33515 14.5896 7.33515C13.9682 7.33515 13.4044 7.07249 13.0136 6.64968C12.6549 6.2589 12.4307 5.73999 12.4307 5.17624C12.4307 3.99108 13.398 3.01733 14.596 3.01733C15.7811 3.01733 16.7485 3.99108 16.7485 5.17624Z" fill="#F76D55"/>
<path d="M25.4097 9.76315C25.2944 9.61581 25.1599 9.47487 25.0125 9.35315H25.0061C24.5385 8.96237 23.9299 8.72534 23.2764 8.72534C22.4116 8.72534 21.6428 9.12894 21.1431 9.75675C21.0214 9.90409 20.9189 10.0642 20.8356 10.2372C20.6499 10.6024 20.5474 11.0188 20.5474 11.4544C20.5474 12.9663 21.771 14.1835 23.2764 14.1835C24.7819 14.1835 26.0055 12.9599 26.0055 11.4544C26.0119 10.8138 25.7877 10.2244 25.4097 9.76315ZM23.2828 13.6197C22.0913 13.6197 21.1239 12.6588 21.1239 11.4608C21.1239 11.0508 21.2392 10.6728 21.4314 10.3461C21.803 9.71831 22.4949 9.3019 23.2764 9.3019C23.8658 9.3019 24.4039 9.54534 24.8011 9.93612C24.8011 9.94253 24.8075 9.94894 24.8139 9.95534C24.8203 9.96175 24.8203 9.96175 24.8267 9.96175C25.2047 10.3461 25.4353 10.8778 25.4353 11.4672C25.4417 12.6524 24.468 13.6197 23.2828 13.6197Z" fill="#231F20"/>
<path d="M25.4418 11.4609C25.4418 12.6525 24.4745 13.6198 23.2829 13.6198C22.0914 13.6198 21.124 12.6589 21.124 11.4609C21.124 11.0509 21.2393 10.6729 21.4315 10.3462C21.8031 9.71841 22.495 9.302 23.2765 9.302C23.8659 9.302 24.404 9.54544 24.8012 9.93622C24.8012 9.94263 24.8076 9.94903 24.814 9.95544C24.8204 9.96185 24.8204 9.96185 24.8268 9.96185C25.2112 10.3398 25.4418 10.8715 25.4418 11.4609Z" fill="#F7CA59"/>
<path d="M32.0787 0C30.5732 0 29.3496 1.22359 29.3496 2.72906C29.3496 3.36328 29.5738 3.95906 29.939 4.42031C30.0607 4.56766 30.1888 4.70859 30.3426 4.83672H30.349C30.8166 5.2275 31.4252 5.46453 32.0851 5.46453C33.597 5.46453 34.8141 4.23453 34.8141 2.73547C34.8077 1.22359 33.5841 0 32.0787 0ZM32.0787 4.88797C31.4829 4.88797 30.9448 4.64453 30.554 4.25375C30.5476 4.24094 30.5412 4.23453 30.5348 4.22813H30.5284L30.522 4.22172C30.1504 3.83094 29.9198 3.30563 29.9198 2.72906C29.9198 1.5375 30.8871 0.570156 32.0787 0.570156C33.2702 0.570156 34.2376 1.53109 34.2376 2.72906C34.2376 3.92063 33.2702 4.88797 32.0787 4.88797Z" fill="#231F20"/>
<path d="M34.2377 2.72898C34.2377 3.91413 33.2768 4.88788 32.0788 4.88788C31.483 4.88788 30.9449 4.64444 30.5541 4.25366C30.5477 4.24085 30.5413 4.23444 30.5349 4.22804H30.5285L30.5221 4.22163C30.1505 3.83085 29.9199 3.30554 29.9199 2.72898C29.9199 1.53741 30.8873 0.570068 32.0788 0.570068C33.2704 0.576475 34.2377 1.53741 34.2377 2.72898Z" fill="#80D4F7"/>
<path d="M30.5347 4.64454L30.3425 4.83673H30.3361L25.4097 9.76313L25.2175 9.95532C25.1662 10.013 25.0893 10.0386 25.0189 10.0386C24.9484 10.0386 24.8843 10.013 24.8267 9.95532C24.8203 9.95532 24.8203 9.95532 24.8139 9.94891C24.8075 9.94251 24.8011 9.9361 24.8011 9.92969C24.6986 9.82079 24.705 9.64782 24.8139 9.53891L25.0061 9.34672H25.0125L29.9389 4.42032L30.1311 4.22813C30.24 4.11923 30.4129 4.11923 30.5283 4.21532L30.5347 4.22173L30.5411 4.22813C30.5475 4.23454 30.5539 4.24094 30.5603 4.25376C30.6436 4.37548 30.6372 4.53563 30.5347 4.64454Z" fill="#231F20"/>
<path d="M21.4315 10.3461C21.3738 10.4165 21.2905 10.455 21.2008 10.455C21.1368 10.455 21.0727 10.4358 21.0215 10.3909L20.8293 10.2436L16.6396 6.96998L16.4154 6.79701C16.2936 6.70092 16.268 6.53436 16.3577 6.40623C16.3577 6.39983 16.3641 6.39983 16.3641 6.39342C16.3705 6.38701 16.3705 6.38061 16.3769 6.38061C16.473 6.2653 16.6524 6.25248 16.7677 6.34858L16.9727 6.50873L21.1368 9.76311L21.3738 9.94889C21.5083 10.045 21.534 10.218 21.4315 10.3461Z" fill="#231F20"/>
<path d="M13.0135 7.05959L12.8213 7.25178L7.8757 12.1974L7.68351 12.3896C7.62586 12.4408 7.55539 12.4729 7.48492 12.4729C7.41445 12.4729 7.35039 12.4472 7.29273 12.4024C7.28632 12.4024 7.27992 12.396 7.27351 12.3896C7.26711 12.3832 7.26711 12.3832 7.26711 12.3768C7.16461 12.2615 7.17101 12.0821 7.27351 11.9796L7.45929 11.7938L12.4369 6.82256L12.6227 6.63678C12.7316 6.52146 12.9174 6.52146 13.0263 6.63678C13.1288 6.7585 13.1288 6.94428 13.0135 7.05959Z" fill="#231F20"/>
<path d="M37.1139 36.2336H0.393262C0.233105 36.2336 0.10498 36.3618 0.10498 36.5219V40.718C0.10498 40.8718 0.233105 41.0063 0.393262 41.0063H37.1203C37.274 41.0063 37.4086 40.8718 37.4086 40.718V36.5155C37.4022 36.3554 37.274 36.2336 37.1139 36.2336ZM36.832 40.4233H0.675137V36.8038H36.8256V40.4233H36.832Z" fill="#231F20"/>
<path d="M0.675293 36.8037H36.8258V40.4232H0.675293V36.8037Z" fill="#A5ABB3"/>
</g>
<defs>
<clipPath id="clip0_1065_1787">
<rect width="37" height="41" fill="white" transform="translate(0.253418)"/>
</clipPath>
</defs>
</svg>
