<svg width="40" height="40" viewBox="0 0 40 40" fill="none" xmlns="http://www.w3.org/2000/svg">
<path d="M15.955 23.9824H23.4128V30.508H15.955V23.9824Z" fill="url(#paint0_linear_2131_1035)"/>
<path d="M15.955 27.7119C16.8055 28.6174 18.1591 29.2656 19.6839 29.2656C21.2435 29.2656 22.5666 28.6528 23.4128 27.7119V39.5204H19.6839H15.955V27.7119Z" fill="url(#paint1_linear_2131_1035)"/>
<path d="M15.9551 27.7119C16.8056 28.6174 18.1592 29.2656 19.684 29.2656C21.2436 29.2656 22.5667 28.6528 23.4129 27.7119C23.7572 27.788 24.1832 27.8909 24.6636 28.0149C23.9408 29.4664 21.9872 30.5086 19.684 30.5086C17.3808 30.5086 15.4272 29.4664 14.7044 28.0149C15.1848 27.8909 15.6108 27.7884 15.9551 27.7119Z" fill="url(#paint2_linear_2131_1035)"/>
<path d="M10.6725 31.1295L5.07917 30.5083C5.07917 30.5083 1.97176 33.6157 0.41806 39.5198H10.6725V31.1295Z" fill="url(#paint3_linear_2131_1035)"/>
<path d="M14.7122 27.4014C12.4969 27.892 6.91598 29.1617 5.07919 30.5088L8.1866 39.5203H18.441L14.7122 27.4014Z" fill="url(#paint4_linear_2131_1035)"/>
<path d="M28.6955 31.1295L34.2888 30.5083C34.2888 30.5083 37.3962 33.6157 38.9499 39.5198H28.6955V31.1295Z" fill="url(#paint5_linear_2131_1035)"/>
<path d="M24.6558 27.4014C26.8711 27.892 32.452 29.1617 34.2888 30.5088L31.1814 39.5203H20.9269L24.6558 27.4014Z" fill="url(#paint6_linear_2131_1035)"/>
<path d="M30.8707 16.7914C30.8707 18.1642 29.8968 19.6325 28.6955 19.6325C27.4942 19.6325 26.5203 18.1642 26.5203 16.7914C26.5203 15.4185 27.4942 14.6606 28.6955 14.6606C29.8968 14.6606 30.8707 15.4185 30.8707 16.7914Z" fill="url(#paint7_linear_2131_1035)"/>
<path d="M12.537 16.7914C12.537 18.1642 11.5632 19.6325 10.3618 19.6325C9.16051 19.6325 8.18665 18.1642 8.18665 16.7914C8.18665 15.4185 9.16051 14.6606 10.3618 14.6606C11.5632 14.6606 12.537 15.4185 12.537 16.7914Z" fill="url(#paint8_linear_2131_1035)"/>
<path d="M27.4525 9.06787H11.9155C11.22 9.2366 10.6725 9.90594 10.6725 10.6216V16.8386C10.6725 22.119 14.7121 26.1586 19.684 26.1586C24.6558 26.1586 28.6955 22.119 28.6955 16.8386V10.6216C28.6955 9.90376 28.1507 9.23474 27.4525 9.06787Z" fill="url(#paint9_linear_2131_1035)"/>
<path d="M19.684 0.988281C24.5579 0.988281 29.9384 4.77559 29.9384 10.6212C29.9223 14.3228 28.6954 16.8361 28.6954 16.8361C28.6954 14.9716 27.7632 10.6212 27.7632 10.6212C22.4806 11.8642 11.9155 9.37828 11.9155 9.37828C11.9155 9.37828 10.6725 11.2427 10.6725 16.8361C10.6725 16.8361 8.80804 14.6609 8.80804 10.932C8.80804 6.28206 10.9832 5.33865 10.9832 5.33865C10.9832 5.33865 11.6047 0.988281 19.684 0.988281Z" fill="url(#paint10_linear_2131_1035)"/>
<path d="M15.6443 18.0788C16.1592 18.0788 16.5765 17.6614 16.5765 17.1466C16.5765 16.6317 16.1592 16.2144 15.6443 16.2144C15.1295 16.2144 14.7121 16.6317 14.7121 17.1466C14.7121 17.6614 15.1295 18.0788 15.6443 18.0788Z" fill="url(#paint11_linear_2131_1035)"/>
<path d="M23.7237 18.0788C24.2385 18.0788 24.6559 17.6614 24.6559 17.1466C24.6559 16.6317 24.2385 16.2144 23.7237 16.2144C23.2088 16.2144 22.7914 16.6317 22.7914 17.1466C22.7914 17.6614 23.2088 18.0788 23.7237 18.0788Z" fill="url(#paint12_linear_2131_1035)"/>
<path d="M15.9551 26.4688L18.441 39.5199L13.4692 34.8587L14.0907 32.3728L11.9155 32.0618L14.4014 27.4007C14.6537 26.9442 15.3725 26.4691 15.9551 26.4688Z" fill="url(#paint13_linear_2131_1035)"/>
<path d="M23.4129 26.4688L20.927 39.5199L25.8988 34.8587L25.2773 32.3728L27.4525 32.0618L24.9666 27.4007C24.7143 26.9442 23.9955 26.4691 23.4129 26.4688Z" fill="url(#paint14_linear_2131_1035)"/>
<path d="M12.2262 29.5762C10.3415 29.5762 8.80804 31.1097 8.80804 32.9943H9.42953C9.42953 31.4521 10.6843 30.1977 12.2262 30.1977C13.7681 30.1977 15.0229 31.4521 15.0229 32.9943H15.6443C15.6443 31.1097 14.1108 29.5762 12.2262 29.5762Z" fill="url(#paint15_linear_2131_1035)"/>
<path d="M28.6955 36.102C29.5536 36.102 30.2492 35.4064 30.2492 34.5483C30.2492 33.6902 29.5536 32.9946 28.6955 32.9946C27.8374 32.9946 27.1418 33.6902 27.1418 34.5483C27.1418 35.4064 27.8374 36.102 28.6955 36.102Z" fill="url(#paint16_linear_2131_1035)"/>
<path d="M28.6955 36.102C29.5536 36.102 30.2492 35.4064 30.2492 34.5483C30.2492 33.6902 29.5536 32.9946 28.6955 32.9946C27.8374 32.9946 27.1418 33.6902 27.1418 34.5483C27.1418 35.4064 27.8374 36.102 28.6955 36.102Z" fill="url(#paint17_linear_2131_1035)"/>
<mask id="mask0_2131_1035" style="mask-type:luminance" maskUnits="userSpaceOnUse" x="27" y="32" width="4" height="5">
<path d="M28.6955 36.102C29.5536 36.102 30.2492 35.4064 30.2492 34.5483C30.2492 33.6902 29.5536 32.9946 28.6955 32.9946C27.8374 32.9946 27.1418 33.6902 27.1418 34.5483C27.1418 35.4064 27.8374 36.102 28.6955 36.102Z" fill="white"/>
</mask>
<g mask="url(#mask0_2131_1035)">
<path d="M27.1418 32.9946H30.2492V36.102H27.1418V32.9946Z" fill="url(#paint18_linear_2131_1035)"/>
</g>
<path d="M39.2505 39.4406C37.6934 33.5235 34.6378 30.4179 34.5086 30.2887C34.5058 30.2859 34.5024 30.2834 34.4992 30.2806C34.4968 30.2784 34.4943 30.2765 34.4918 30.2744C34.4853 30.2688 34.4794 30.2629 34.4725 30.2576C33.5499 29.5811 31.6367 28.8515 28.777 28.0802C28.2503 26.3954 26.8553 25.1018 25.0997 24.7217C26.6934 23.5636 27.9038 21.8974 28.5296 19.9314C28.5852 19.9373 28.6409 19.9432 28.6955 19.9432C30.1184 19.9432 31.1815 18.2795 31.1815 16.7913C31.1815 15.7444 30.6597 14.9359 29.7766 14.5661C30.0277 13.5195 30.2424 12.1784 30.2492 10.6209C30.2492 4.67275 24.7864 0.677246 19.6841 0.677246C12.2104 0.677246 10.9075 4.30825 10.708 5.13451C10.1819 5.4524 8.4974 6.79418 8.4974 10.9317C8.4974 12.4198 8.7836 13.6603 9.13535 14.6298C8.34234 15.0272 7.87592 15.8119 7.87592 16.7913C7.87592 18.2795 8.93897 19.9432 10.3618 19.9432C10.516 19.9432 10.6698 19.9205 10.8217 19.8804C11.4494 21.8909 12.6874 23.5916 14.3219 24.7615C13.0134 25.1686 12.0476 26.3367 11.9295 27.7337C8.31997 28.6333 5.95555 29.4804 4.8953 30.2579C4.88846 30.2629 4.88225 30.2691 4.87603 30.2747C4.87355 30.2768 4.87106 30.2787 4.86857 30.2809C4.86547 30.2837 4.86205 30.2859 4.85925 30.289C4.72998 30.4182 1.67447 33.5238 0.117349 39.4409C0.092801 39.5341 0.112999 39.6336 0.171729 39.7097C0.23077 39.7858 0.321817 39.8306 0.418146 39.8306H38.95C39.0463 39.8306 39.1374 39.7858 39.1961 39.7094C39.2548 39.6332 39.275 39.5338 39.2505 39.4406ZM33.9179 30.6311L30.9599 39.2091H21.7129L26.1114 35.0852C26.1938 35.0082 26.2276 34.8926 26.2003 34.7832L25.6624 32.6313L27.4964 32.3691C27.5968 32.3545 27.6838 32.2923 27.7295 32.2019C27.7754 32.1115 27.7742 32.0046 27.7267 31.9151L25.6027 27.9326C26.5971 28.1613 27.4815 28.3795 28.2686 28.5874C28.3419 28.9059 28.3848 29.2356 28.3848 29.5761V32.7115C27.5045 32.86 26.8311 33.6257 26.8311 34.548C26.8311 35.5762 27.6673 36.4124 28.6955 36.4124C29.7238 36.4124 30.56 35.5762 30.56 34.548C30.56 33.626 29.8866 32.8603 29.0063 32.7115V29.5761C29.0063 29.3002 28.9789 29.0314 28.9361 28.7679C31.8023 29.5584 33.2224 30.1852 33.9179 30.6311ZM8.40822 39.2091L5.45028 30.6311C6.25665 30.114 8.03502 29.3543 11.9156 28.3773V29.5917C10.176 29.7495 8.80814 31.2144 8.80814 32.9943V36.1017C8.80814 36.7872 9.36561 37.3446 10.0511 37.3446H11.2941C11.4656 37.3446 11.6048 37.2057 11.6048 37.0339C11.6048 36.8621 11.4656 36.7232 11.2941 36.7232H10.0511C9.70836 36.7232 9.42963 36.4444 9.42963 36.1017V32.9943C9.42963 31.4521 10.6844 30.1976 12.2263 30.1976C12.3347 30.1976 12.4416 30.2054 12.547 30.2175L11.6415 31.9154C11.5939 32.0049 11.5927 32.1118 11.6387 32.2022C11.6844 32.2926 11.7714 32.3548 11.8717 32.3694L13.7057 32.6316L13.1678 34.7835C13.1405 34.8929 13.1744 35.0085 13.2567 35.0856L14.8241 36.555C14.7128 36.6585 14.5649 36.7232 14.4015 36.7232H12.8478C12.6762 36.7232 12.537 36.8621 12.537 37.0339C12.537 37.2057 12.6762 37.3446 12.8478 37.3446H14.4015C14.7436 37.3446 15.0537 37.2057 15.2787 36.9811L17.6552 39.2091H8.40822ZM13.7654 27.9329L12.8568 29.6367C12.7518 29.6171 12.6455 29.6016 12.537 29.5917V28.2235C12.927 28.1287 13.3356 28.0317 13.7654 27.9329ZM19.6841 26.4687C20.8972 26.4687 22.0482 26.2385 23.1022 25.8208V26.4392L22.8365 27.8341C22.0115 28.5553 20.8978 28.9543 19.6841 28.9543C18.5216 28.9543 17.3793 28.5395 16.5285 27.8183L16.2659 26.4392V25.8208C17.32 26.2385 18.4709 26.4687 19.6841 26.4687ZM26.9697 31.8169L25.2333 32.0652C25.1463 32.0776 25.0686 32.1264 25.0195 32.1997C24.9704 32.2724 24.9548 32.3628 24.976 32.4483L25.553 34.7574L21.4109 38.6404L23.6628 26.8171C24.0826 26.924 24.5335 27.2605 24.6923 27.547L26.9697 31.8169ZM16.6985 28.7107C17.5713 29.2638 18.6204 29.5758 19.6841 29.5758C20.7841 29.5758 21.8139 29.2794 22.6647 28.7362L22.5028 29.5858C21.6706 29.9848 20.7008 30.1973 19.6841 30.1973C18.6673 30.1973 17.6972 29.9848 16.8653 29.5854L16.6985 28.7107ZM15.705 26.8171L17.957 38.6404L15.5957 36.4267C15.6242 36.3223 15.6444 36.2148 15.6444 36.1017V32.9943C15.6444 31.5475 14.7396 30.3107 13.4671 29.8129L14.6734 27.5513C14.834 27.2608 15.2852 26.924 15.705 26.8171ZM13.8151 34.7571L14.3922 32.448C14.4133 32.3628 14.3977 32.2724 14.3487 32.1994C14.2996 32.1264 14.2219 32.0773 14.1349 32.0648L12.3984 31.8166L13.1722 30.3654C14.2495 30.7548 15.023 31.7846 15.023 32.9943V35.8894L13.8151 34.7571ZM18.6984 39.2091L17.0061 30.3241C17.8234 30.6469 18.7363 30.8188 19.6844 30.8188C20.6321 30.8188 21.5451 30.6472 22.3627 30.3241L20.6697 39.2091H18.6984ZM28.6955 33.305C29.381 33.305 29.9385 33.8625 29.9385 34.548C29.9385 35.2335 29.381 35.7909 28.6955 35.7909C28.0101 35.7909 27.4526 35.2335 27.4526 34.548C27.4526 33.8625 28.0101 33.305 28.6955 33.305ZM28.0464 27.8879C27.1782 27.6641 26.2342 27.437 25.2097 27.2067C24.944 26.7667 24.339 26.3146 23.7237 26.1922V25.5495C23.9226 25.4529 24.1165 25.3482 24.307 25.2379C26.0064 25.3426 27.4249 26.4038 28.0464 27.8879ZM30.56 16.7913C30.56 17.9582 29.7499 19.3133 28.7042 19.3208C28.8954 18.5526 28.9988 17.7447 29.0047 16.9082C29.0924 16.718 29.3568 16.1108 29.6206 15.1727C30.221 15.4607 30.56 16.0344 30.56 16.7913ZM11.107 5.6233C11.2061 5.58042 11.2757 5.48907 11.291 5.38248C11.2969 5.34146 11.9637 1.29873 19.6841 1.29873C24.4863 1.29873 29.6278 5.04471 29.6278 10.6197C29.6191 12.647 29.2353 14.3191 28.9022 15.3936C28.6642 13.3561 28.0974 10.6971 28.0672 10.5557C28.0495 10.474 28.0001 10.4031 27.9296 10.3584C27.859 10.3133 27.7736 10.2996 27.6922 10.3183C22.5416 11.5311 12.0914 9.09987 11.9867 9.07532C11.8609 9.04642 11.7291 9.09739 11.657 9.20552C11.6073 9.27979 10.5116 10.9808 10.3755 15.833C9.84788 14.9113 9.11889 13.2256 9.11889 10.9317C9.11889 6.58039 11.0896 5.63138 11.107 5.6233ZM10.3618 19.3217C9.31185 19.3217 8.4974 17.9616 8.4974 16.7913C8.4974 16.0695 8.81032 15.5073 9.36561 15.2078C9.77237 16.1428 10.1987 16.7363 10.3646 16.9479C10.373 17.7559 10.4715 18.5377 10.6533 19.2816C10.5561 19.3068 10.4585 19.3217 10.3618 19.3217ZM10.9833 16.8358C10.9833 12.3754 11.7903 10.3211 12.0762 9.73378C13.6622 10.0924 22.5348 11.9994 27.5231 10.9917C27.7322 12.01 28.3848 15.3085 28.3848 16.8379C28.3848 17.7667 28.2546 18.6583 28.0135 19.4951C28.0132 19.4966 28.0116 19.4979 28.0113 19.4994C28.011 19.501 28.0113 19.5025 28.011 19.5041C27.3783 21.6917 25.9797 23.503 24.1233 24.6223C24.0801 24.636 24.041 24.6583 24.0093 24.6894C23.7852 24.8199 23.5543 24.9402 23.3179 25.0502C23.2974 25.057 23.279 25.066 23.2607 25.0766C22.1747 25.5716 20.9665 25.8472 19.6841 25.8472C18.4016 25.8472 17.1935 25.5716 16.1074 25.0766C16.0891 25.066 16.0711 25.057 16.0506 25.0505C13.0355 23.6497 10.9833 20.5382 10.9833 16.8358ZM15.0671 25.2413C15.2557 25.3504 15.4474 25.4542 15.6444 25.5495V26.1922C15.031 26.3143 14.4279 26.7645 14.1591 27.2064C13.6094 27.3301 13.0808 27.4528 12.5759 27.5743C12.7769 26.3382 13.7924 25.3631 15.0671 25.2413ZM4.95807 31.1096L7.75069 39.2091H0.824595C2.05482 34.8289 4.14455 32.067 4.95807 31.1096ZM31.6174 39.2091L34.4107 31.109C35.2239 32.0642 37.3115 34.8205 38.5438 39.2091H31.6174Z" fill="#3A322B"/>
<path d="M16.8873 17.1468C16.8873 16.4613 16.3298 15.9038 15.6443 15.9038C14.9588 15.9038 14.4014 16.4613 14.4014 17.1468C14.4014 17.8323 14.9588 18.3897 15.6443 18.3897C16.3298 18.3897 16.8873 17.8323 16.8873 17.1468ZM15.0228 17.1468C15.0228 16.804 15.3016 16.5253 15.6443 16.5253C15.9871 16.5253 16.2658 16.804 16.2658 17.1468C16.2658 17.4895 15.9871 17.7683 15.6443 17.7683C15.3016 17.7683 15.0228 17.4895 15.0228 17.1468Z" fill="#3A322B"/>
<path d="M23.7236 15.9038C23.0381 15.9038 22.4807 16.4613 22.4807 17.1468C22.4807 17.8323 23.0381 18.3897 23.7236 18.3897C24.4091 18.3897 24.9666 17.8323 24.9666 17.1468C24.9666 16.4613 24.4091 15.9038 23.7236 15.9038ZM23.7236 17.7683C23.3809 17.7683 23.1021 17.4895 23.1021 17.1468C23.1021 16.804 23.3809 16.5253 23.7236 16.5253C24.0664 16.5253 24.3451 16.804 24.3451 17.1468C24.3451 17.4895 24.0664 17.7683 23.7236 17.7683Z" fill="#3A322B"/>
<path d="M17.3444 14.6108C17.3957 14.6428 17.4523 14.6577 17.5085 14.6577C17.6123 14.6577 17.7136 14.6058 17.7726 14.5111C17.8634 14.3653 17.8186 14.1739 17.6732 14.0832C15.612 12.7995 14.205 13.7041 13.6752 14.0449L13.6137 14.0844C13.4686 14.1761 13.4257 14.3678 13.517 14.5129C13.6087 14.6577 13.8004 14.7015 13.9459 14.6096L14.0111 14.5679C14.4921 14.259 15.6179 13.5356 17.3444 14.6108Z" fill="#3A322B"/>
<path d="M21.8595 14.6585C21.9158 14.6585 21.9723 14.6432 22.0236 14.6116C23.751 13.5361 24.8765 14.2598 25.3569 14.5687L25.4219 14.6103C25.567 14.7029 25.7587 14.6588 25.8507 14.514C25.9424 14.3689 25.8992 14.1768 25.7541 14.0852L25.6928 14.0457C25.163 13.7051 23.7563 12.8006 21.6949 14.0839C21.5491 14.1747 21.5047 14.3661 21.5954 14.5118C21.6545 14.6066 21.7558 14.6585 21.8595 14.6585Z" fill="#3A322B"/>
<path d="M17.5664 22.8708C17.4669 23.0106 17.4999 23.2045 17.6397 23.3043C18.2761 23.7564 18.9765 23.9826 19.6788 23.9826C20.3804 23.9826 21.0839 23.7567 21.7272 23.3052C21.8676 23.2067 21.9015 23.0131 21.803 22.8724C21.7045 22.7319 21.5109 22.6977 21.3701 22.7965C20.2925 23.5532 19.0641 23.5535 17.9998 22.7975C17.8597 22.6974 17.6655 22.731 17.5664 22.8708Z" fill="#3A322B"/>
<path d="M19.6811 21.1861H19.6827C19.986 21.1861 20.2793 21.0451 20.5313 20.7781C20.6491 20.6532 20.6432 20.4565 20.5183 20.3387C20.3937 20.2213 20.197 20.2269 20.0789 20.3515C19.9875 20.4487 19.8443 20.5647 19.683 20.5647C19.6827 20.5647 19.6827 20.5647 19.6824 20.5647C19.5217 20.5643 19.38 20.4491 19.2893 20.3521C19.1718 20.2269 18.9751 20.2207 18.8499 20.3378C18.7247 20.455 18.7182 20.6517 18.8356 20.7769C19.0861 21.0441 19.3782 21.1855 19.6811 21.1861Z" fill="#3A322B"/>
<defs>
<linearGradient id="paint0_linear_2131_1035" x1="19.6839" y1="29.5239" x2="19.6839" y2="26.2611" gradientUnits="userSpaceOnUse">
<stop stop-color="#F6CFBE"/>
<stop offset="1" stop-color="#EDAD99"/>
</linearGradient>
<linearGradient id="paint1_linear_2131_1035" x1="19.421" y1="23.759" x2="19.3399" y2="20.715" gradientUnits="userSpaceOnUse">
<stop stop-color="#FFCF97"/>
<stop offset="1" stop-color="#FFAC6A"/>
</linearGradient>
<linearGradient id="paint2_linear_2131_1035" x1="20.344" y1="16.9053" x2="20.0333" y2="22.136" gradientUnits="userSpaceOnUse">
<stop stop-color="#FFCF97"/>
<stop offset="1" stop-color="#FFAC6A"/>
</linearGradient>
<linearGradient id="paint3_linear_2131_1035" x1="4.68795" y1="47.7616" x2="5.75037" y2="37.5512" gradientUnits="userSpaceOnUse">
<stop stop-color="#EFF0F0"/>
<stop offset="1" stop-color="#E4E5E6"/>
</linearGradient>
<linearGradient id="paint4_linear_2131_1035" x1="10.547" y1="45.4476" x2="9.57033" y2="53.8476" gradientUnits="userSpaceOnUse">
<stop stop-color="#EFF0F0"/>
<stop offset="1" stop-color="#E4E5E6"/>
</linearGradient>
<linearGradient id="paint5_linear_2131_1035" x1="34.6804" y1="47.7616" x2="33.6179" y2="37.5512" gradientUnits="userSpaceOnUse">
<stop stop-color="#EFF0F0"/>
<stop offset="1" stop-color="#E4E5E6"/>
</linearGradient>
<linearGradient id="paint6_linear_2131_1035" x1="28.821" y1="45.4476" x2="29.7976" y2="53.8476" gradientUnits="userSpaceOnUse">
<stop stop-color="#EFF0F0"/>
<stop offset="1" stop-color="#E4E5E6"/>
</linearGradient>
<linearGradient id="paint7_linear_2131_1035" x1="28.6955" y1="7.72087" x2="28.6955" y2="22.8459" gradientUnits="userSpaceOnUse">
<stop stop-color="#F6CFBE"/>
<stop offset="1" stop-color="#EDAD99"/>
</linearGradient>
<linearGradient id="paint8_linear_2131_1035" x1="10.3618" y1="7.72087" x2="10.3618" y2="22.8459" gradientUnits="userSpaceOnUse">
<stop stop-color="#F6CFBE"/>
<stop offset="1" stop-color="#EDAD99"/>
</linearGradient>
<linearGradient id="paint9_linear_2131_1035" x1="21.1933" y1="6.32403" x2="22.0478" y2="1.89598" gradientUnits="userSpaceOnUse">
<stop stop-color="#F6CFBE"/>
<stop offset="1" stop-color="#EDAD99"/>
</linearGradient>
<linearGradient id="paint10_linear_2131_1035" x1="19.3732" y1="-4.99348" x2="19.3732" y2="20.8598" gradientUnits="userSpaceOnUse">
<stop stop-color="#957E7F"/>
<stop offset="1" stop-color="#373638"/>
</linearGradient>
<linearGradient id="paint11_linear_2131_1035" x1="15.5685" y1="27.246" x2="15.6073" y2="22.0802" gradientUnits="userSpaceOnUse">
<stop stop-color="#58595B"/>
<stop offset="1" stop-color="#414042"/>
</linearGradient>
<linearGradient id="paint12_linear_2131_1035" x1="23.6475" y1="27.2916" x2="23.6864" y2="22.1256" gradientUnits="userSpaceOnUse">
<stop stop-color="#58595B"/>
<stop offset="1" stop-color="#414042"/>
</linearGradient>
<linearGradient id="paint13_linear_2131_1035" x1="18.4078" y1="49.6391" x2="17.7928" y2="46.8375" gradientUnits="userSpaceOnUse">
<stop stop-color="#EFF0F0"/>
<stop offset="1" stop-color="#E4E5E6"/>
</linearGradient>
<linearGradient id="paint14_linear_2131_1035" x1="20.9605" y1="49.6391" x2="21.5755" y2="46.8375" gradientUnits="userSpaceOnUse">
<stop stop-color="#EFF0F0"/>
<stop offset="1" stop-color="#E4E5E6"/>
</linearGradient>
<linearGradient id="paint15_linear_2131_1035" x1="11.179" y1="24.5086" x2="11.2567" y2="25.1301" gradientUnits="userSpaceOnUse">
<stop stop-color="#58595B"/>
<stop offset="1" stop-color="#414042"/>
</linearGradient>
<linearGradient id="paint16_linear_2131_1035" x1="31.856" y1="35.6698" x2="32.6086" y2="35.9367" gradientUnits="userSpaceOnUse">
<stop stop-color="#6C6F73"/>
<stop offset="1" stop-color="#56585B"/>
</linearGradient>
<linearGradient id="paint17_linear_2131_1035" x1="22.6202" y1="33.7404" x2="25.0545" y2="34.0642" gradientUnits="userSpaceOnUse">
<stop stop-color="#58595B"/>
<stop offset="1" stop-color="#414042"/>
</linearGradient>
<linearGradient id="paint18_linear_2131_1035" x1="22.6202" y1="33.7404" x2="25.0545" y2="34.0642" gradientUnits="userSpaceOnUse">
<stop stop-color="#6C6F73"/>
<stop offset="1" stop-color="#56585B"/>
</linearGradient>
</defs>
</svg>
