<svg width="47" height="47" viewBox="0 0 47 47" fill="none" xmlns="http://www.w3.org/2000/svg">
<g clip-path="url(#clip0_2058_2146)">
<path fill-rule="evenodd" clip-rule="evenodd" d="M10.1471 40.936C10.1471 39.2652 7.6679 39.4538 7.6679 40.936C7.6679 42.5528 10.1471 42.7145 10.1471 40.936ZM11.9257 40.936C11.9257 42.6606 10.6052 44.008 8.9614 44.008C6.34746 44.008 4.94617 40.9629 6.56304 39.0496C5.72766 37.0824 5.61987 35.2769 5.67376 34.0103C4.05689 34.7918 3.22151 35.3577 2.76339 36.247C2.00885 37.81 2.14359 42.0408 2.22443 45.9483C5.02701 46.7836 16.0487 46.4064 19.3902 46.4064L12.3029 36.8129C12.0065 36.4357 12.0874 35.8698 12.4916 35.5733L14.5935 34.0912L13.1114 30.4802C10.8478 31.6389 9.04224 32.4743 7.56011 33.148C7.42537 33.9295 7.23674 35.8698 8.09907 38.0795C10.0124 37.5675 11.9257 38.861 11.9257 40.936ZM14.2701 36.4896L19.6328 43.7924L17.0727 27.9471L14.4588 29.0519L16.5068 34.0642C16.6685 34.4685 16.5337 34.8996 16.1834 35.1422L14.2701 36.4896ZM19.4172 31.2617H27.5824L28.3369 26.7614L28.1213 26.1146C25.2379 27.3812 21.7616 27.4081 18.8782 26.1146L18.6896 26.7614L19.4172 31.2617ZM27.2859 33.0402H19.6866L21.8694 46.3794H25.1301L27.2859 33.0402ZM29.9268 27.9471L27.3398 43.7924L32.7294 36.4896L30.7892 35.1422C30.4658 34.8996 30.3311 34.4685 30.4927 34.0642L32.5408 29.0519L29.9268 27.9471ZM34.6966 36.8129L27.6093 46.4064C30.9509 46.4064 41.9456 46.7836 44.7751 45.9483C44.7751 41.9869 45.0446 37.9178 44.2092 36.247C43.8858 35.5733 43.3469 35.1152 42.4576 34.6032C42.3229 35.1152 42.1342 35.6272 41.9186 36.1392C43.6433 37.8369 43.3199 40.8012 41.2988 42.1217C40.9755 43.8463 38.604 43.7924 38.1998 42.2295C37.8765 41.0976 39.0622 39.858 40.4634 40.5587C41.1102 39.9928 41.4066 39.1304 41.191 38.2951C40.6521 36.3818 37.4992 36.0314 37.0141 38.4837C37.1758 38.6454 37.5261 38.8071 37.7148 39.4538C38.0381 40.7473 36.4752 41.933 35.3703 41.1785C34.6966 40.7204 34.4541 39.8311 34.8852 39.1035C34.9661 38.9418 35.0469 38.8071 35.1817 38.6993C35.1817 38.6993 35.2356 37.7022 35.6667 36.8938C36.556 35.3038 38.5502 34.5224 40.3826 35.1961C40.5712 34.711 40.706 34.2529 40.8138 33.7678C38.4693 32.663 36.8794 32.0162 33.8882 30.4532L32.406 34.0912L34.481 35.5733C34.8852 35.8698 34.993 36.4087 34.6966 36.8129ZM23.4594 25.9799C18.5279 25.9799 14.4049 22.7192 14.351 17.3835C12.6263 16.5212 12.5994 13.6378 13.7581 12.479C13.4886 9.89201 13.6503 4.47549 15.8062 3.04726C16.3182 2.69693 17.0997 2.42745 18.1506 2.85862C21.4922 -0.887132 27.3937 0.136886 30.6275 3.99043C32.5138 6.25405 33.457 9.32611 33.2145 12.4521C34.4002 13.6108 34.4002 16.4942 32.6486 17.3835C32.5947 22.7192 28.4447 25.9799 23.4594 25.9799ZM14.9977 13.5839C14.5396 13.7995 14.324 15.8475 15.2672 15.9553C15.6984 16.0092 16.0217 16.3864 16.0217 16.8176C15.5636 26.9231 31.4359 26.8422 30.9778 16.8176C30.9778 16.3864 31.2742 16.0092 31.7323 15.9553C32.5947 15.8744 32.5677 13.9072 31.9479 13.5839C31.4359 13.2874 27.9327 8.7602 25.9116 7.62839C25.184 7.92482 23.2707 8.70631 21.0879 9.67643C20.8185 9.81117 20.4951 9.75727 20.2526 9.56864C17.5578 7.49365 17.3422 8.32904 16.6146 10.5118C16.3721 11.2394 15.7253 13.2066 14.9977 13.5839Z" fill="url(#paint0_linear_2058_2146)"/>
</g>
<defs>
<linearGradient id="paint0_linear_2058_2146" x1="-2.10548" y1="23.5047" x2="47.7808" y2="23.5047" gradientUnits="userSpaceOnUse">
<stop stop-color="#3CAB8B"/>
<stop offset="1" stop-color="#31A9D3"/>
</linearGradient>
<clipPath id="clip0_2058_2146">
<rect width="46" height="46" fill="white" transform="translate(0.5 0.51416)"/>
</clipPath>
</defs>
</svg>
