<svg width="92" height="95" viewBox="0 0 92 95" fill="none" xmlns="http://www.w3.org/2000/svg">
<path fill-rule="evenodd" clip-rule="evenodd" d="M29.7768 34.0485C29.4652 32.8719 29.7364 24.9061 31.5178 21.6178C33.3012 18.3294 37.4853 12.8787 42.0447 13.5586C46.6021 14.2384 56.0825 20.858 57.4214 21.6178C58.7623 22.3775 62.6252 25.062 62.4675 27.6646C62.3116 30.2692 59.9935 36.433 58.3371 38.2486C56.6807 40.0622 53.697 49.078 54.3934 51.7799C55.0898 54.4819 54.9397 57.5833 53.4834 60.4528C52.0291 63.3223 52.1772 71.401 48.4105 70.3997C44.6437 69.3965 41.6599 64.9938 39.8073 61.3684C37.9528 57.745 32.9549 55.0878 32.5567 49.2903C32.1584 43.4909 30.0846 35.2232 29.7768 34.0485Z" fill="#FFEEF1"/>
<mask id="mask0_1065_1684" style="mask-type:luminance" maskUnits="userSpaceOnUse" x="29" y="13" width="34" height="58">
<path fill-rule="evenodd" clip-rule="evenodd" d="M29.7768 34.0485C29.4652 32.8719 29.7364 24.9061 31.5178 21.6178C33.3012 18.3294 37.4853 12.8787 42.0447 13.5586C46.6021 14.2384 56.0825 20.858 57.4214 21.6178C58.7623 22.3775 62.6252 25.062 62.4675 27.6646C62.3116 30.2692 59.9935 36.433 58.3371 38.2486C56.6807 40.0622 53.697 49.078 54.3934 51.7799C55.0898 54.4819 54.9397 57.5833 53.4834 60.4528C52.0291 63.3223 52.1772 71.401 48.4105 70.3997C44.6437 69.3965 41.6599 64.9938 39.8073 61.3684C37.9528 57.745 32.9549 55.0878 32.5567 49.2903C32.1584 43.4909 30.0846 35.2232 29.7768 34.0485Z" fill="white"/>
</mask>
<g mask="url(#mask0_1065_1684)">
<path fill-rule="evenodd" clip-rule="evenodd" d="M38.1047 33.3492C39.9169 33.3492 41.3886 34.8161 41.3886 36.622C41.3886 38.4279 39.9169 39.8948 38.1047 39.8948C36.2925 39.8948 34.8208 38.4279 34.8208 36.622C34.8208 34.8161 36.2925 33.3492 38.1047 33.3492Z" fill="#FFD2DA"/>
<path fill-rule="evenodd" clip-rule="evenodd" d="M54.07 32.3265C55.8822 32.3265 57.3539 33.7915 57.3539 35.5973C57.3539 37.4052 55.8822 38.8701 54.07 38.8701C52.2578 38.8701 50.7861 37.4052 50.7861 35.5973C50.7861 33.7915 52.2578 32.3265 54.07 32.3265Z" fill="#FFD2DA"/>
</g>
<path fill-rule="evenodd" clip-rule="evenodd" d="M36.1408 28.6502C36.1408 28.6502 36.4467 27.0898 38.0376 26.6593C39.6286 26.2287 40.6578 27.2262 41.158 28.3268C41.6601 29.4275 41.4504 31.5412 40.8656 32.0321C40.2808 32.525 38.407 33.1854 37.2123 32.2074C36.0177 31.2295 36.1408 28.6502 36.1408 28.6502Z" fill="white"/>
<path fill-rule="evenodd" clip-rule="evenodd" d="M49.124 29.0787C49.124 29.0787 48.618 28.0462 49.503 26.9631C50.3879 25.878 52.4155 24.7851 53.4313 26.4098C54.449 28.0345 54.0373 29.9086 53.9546 30.2027C53.8718 30.4988 52.456 31.6268 50.5437 31.3424C48.6315 31.056 49.124 29.0787 49.124 29.0787Z" fill="white"/>
<path fill-rule="evenodd" clip-rule="evenodd" d="M19.5095 67.2964C19.5095 67.2964 18.7534 65.0152 18.5515 63.2619C18.3514 61.5086 18.765 56.8897 20.3983 53.2059C22.0296 49.5221 23.8726 44.948 24.3555 42.1388C24.8383 39.3297 26.6948 29.9614 27.7567 22.8625C28.8167 15.7637 30.0998 12.3663 32.266 8.76623C34.4341 5.16617 36.1213 4.57783 37.4294 3.97783C38.7357 3.37976 38.9934 3.74991 38.9934 3.74991L41.8772 1.5934C41.8772 1.5934 49.1375 -1.10082 53.3025 1.4726C57.4674 4.04601 60.3127 8.16428 61.313 12.3293C62.3134 16.4962 63.787 24.6353 63.9813 26.336C64.1756 28.0347 65.2702 35.5738 66.1109 40.257C66.9516 44.9382 69.9065 52.565 70.0354 56.13C70.1624 59.695 69.1351 63.9691 69.1351 63.9691L53.3332 57.2774L53.3063 55.6313C53.3063 55.6313 51.9597 50.1065 52.0251 48.0415C52.0905 45.9785 52.4714 44.3148 52.4714 44.3148C52.4714 44.3148 54.8088 41.7609 55.4686 39.5868C56.1304 37.4147 56.6402 34.6095 56.6402 34.6095C56.6402 34.6095 59.0853 33.9764 59.6778 32.9322C60.2704 31.888 61.0149 30.049 60.9033 28.062C60.7917 26.073 60.8975 25.7165 60.2723 25.3347C59.6471 24.9509 59.4566 24.9626 58.7737 25.699C58.0907 26.4353 57.4078 28.0113 57.4078 28.0113L57.5636 24.8048C57.5636 24.8048 57.7194 25.6133 55.4628 24.1619C53.2082 22.7106 52.3637 22.6093 51.3575 22.8002C50.3514 22.9911 48.7335 23.26 47.6004 22.9385C46.4673 22.6171 46.6712 23.2833 45.7016 23.4392C44.7321 23.597 42.7063 23.4645 42.2369 23.0944C41.7694 22.7262 40.8384 21.8456 39.9246 20.6339C39.0127 19.4222 38.5279 15.6566 38.5279 15.6566C38.5279 15.6566 37.8642 16.6521 37.4563 17.7274C37.0466 18.8008 35.7153 20.932 34.7611 21.9119C33.807 22.8898 33.1856 22.7632 33.0971 23.821C33.0086 24.8788 33.3837 25.9464 33.5415 26.9068C33.6992 27.8652 33.9262 29.7101 33.9262 29.7101C33.9262 29.7101 32.3814 27.6938 31.9197 27.3918C31.458 27.0879 30.0364 28.1808 30.5789 30.6237C31.1233 33.0666 32.1852 34.9407 33.4511 35.8621C34.715 36.7816 35.6134 36.8498 35.6134 36.8498C35.6134 36.8498 36.0289 39.3297 36.8234 40.818C37.6199 42.3044 39.6956 43.9778 39.8014 44.1376C39.9053 44.2954 39.9669 45.3532 40.0034 45.7525C40.04 46.1519 40.2208 51.5286 39.5244 53.8488C38.828 56.1709 36.2963 58.6099 35.0478 59.4515C33.8012 60.2911 28.5724 64.0548 25.4597 64.9879C22.3451 65.921 19.5095 67.2964 19.5095 67.2964Z" fill="#1A2E35"/>
<path fill-rule="evenodd" clip-rule="evenodd" d="M21.3831 147.982C21.3831 147.982 21.7775 132.317 22.018 129.444C22.2604 126.571 23.2761 107.933 23.2761 107.933C23.2761 107.933 17.7087 107.733 14.3672 106.54C11.0275 105.348 5.28117 102.432 3.03421 100.881C0.789164 99.3305 0.206272 97.4643 1.42017 95.2883C2.636 93.1103 7.30307 82.8264 10.0579 77.5919C12.8127 72.3574 15.556 68.5878 17.4971 67.0157C19.4382 65.4456 22.3527 64.3917 24.1072 63.9631C25.8617 63.5345 32.6122 60.665 34.6937 59.0442C36.7752 57.4214 38.4989 55.6779 38.8895 55.7772C39.2819 55.8766 39.4185 56.8837 39.6821 57.1818C39.9437 57.4799 43.5835 63.1429 44.7878 65.5469C45.992 67.9508 47.1001 68.8333 47.1001 68.8333C47.1001 68.8333 48.8931 65.1047 49.7049 63.554C50.5148 62.0014 53.514 55.9974 53.514 55.9974L53.1177 55.2279C53.1177 55.2279 54.7587 55.4558 56.5131 57.0863C58.2676 58.7169 59.9124 59.6422 62.1652 60.663C64.4198 61.6838 72.0341 64.0585 74.6889 65.7553C77.3437 67.4501 80.9662 70.9236 83.1247 75.3438C85.2812 79.764 87.2396 84.9692 88.5382 87.2076C89.8348 89.4459 92.2376 93.5915 91.9471 95.1889C91.6566 96.7863 91.2969 100.096 86.7337 103.418C82.1705 106.737 79.7985 107.783 78.3075 108.163C76.8185 108.543 75.595 108.958 75.595 108.958C75.595 108.958 75.5277 111.206 75.5085 111.738C75.4911 112.272 75.3546 123.171 75.3276 126.376C75.3007 129.58 76.2356 136.307 76.2241 140.149C76.2126 143.99 76.2587 148.276 76.2587 148.276L21.3831 147.982Z" fill="#FF9A7D"/>
<path fill-rule="evenodd" clip-rule="evenodd" d="M34.2632 63.6438C34.2632 63.6438 34.9558 58.949 36.0639 57.0204C37.172 55.0898 39.4055 53.993 39.4055 53.993L39.0804 56.1418C39.0804 56.1418 38.5513 56.0288 37.7761 57.1976C36.9988 58.3684 36.1505 61.949 35.7638 64.39C35.379 66.8309 35.4406 78.424 35.6022 82.0318C35.7657 85.6377 36.5006 88.3572 36.5006 88.3572C36.5006 88.3572 40.4116 88.7916 40.8214 90.5683C41.2311 92.343 41.1773 95.2476 40.0769 96.6794C38.9746 98.1113 36.2063 99.2412 34.5403 98.2963C32.8743 97.3515 31.3256 95.1892 31.4776 93.019C31.6315 90.8508 32.4414 90.0735 33.0628 89.4949C33.6842 88.9183 34.9423 88.2559 34.9423 88.2559C34.9423 88.2559 33.8035 78.5642 33.7727 77.0506C33.7419 75.5369 33.7458 68.1244 33.9227 66.6108C34.1017 65.0952 34.2632 63.6438 34.2632 63.6438Z" fill="#DCE8FF"/>
<path fill-rule="evenodd" clip-rule="evenodd" d="M52.7947 53.8721C52.7947 53.8721 55.2783 53.5643 57.0847 56.1611C58.8892 58.7559 60.8976 62.991 61.4825 66.3086C62.0654 69.6262 62.6656 71.7691 63.0273 73.386C63.3889 75.001 63.9045 78.4958 63.9045 78.4958C63.9045 78.4958 68.4388 78.4491 69.2526 79.3004C70.0644 80.1536 71.1687 83.0446 71.4245 84.1297C71.6823 85.2167 73.3714 93.1668 73.9831 95.4305C74.5949 97.6942 75.3702 103.363 73.7754 105.65C72.1825 107.937 70.9513 108.693 69.2872 108.732C67.6251 108.773 66.0687 108.74 66.0687 108.74C66.0687 108.74 65.1261 109.858 64.1392 109.539C63.1542 109.219 62.4944 108.118 62.8676 106.792C63.2427 105.467 64.3431 105.198 64.8664 105.377C65.3897 105.555 66.1072 106.78 66.1072 106.78C66.1072 106.78 68.9448 106.805 70.0644 106.523C71.1821 106.24 72.296 106.207 72.6365 104.824C72.977 103.441 72.8577 99.4553 72.4018 96.4299C71.9478 93.4045 71.3976 89.1616 71.3976 89.1616C71.3976 89.1616 69.9875 83.7147 69.3911 82.6141C68.7928 81.5134 67.8636 80.5472 66.6074 80.2121C65.3531 79.877 63.8295 79.7894 62.7522 80.0407C61.6768 80.2939 60.005 80.6426 59.576 81.2426C59.147 81.8426 57.8696 85.1135 57.5233 87.0966C57.1771 89.0778 55.9882 93.6461 55.5534 95.5026C55.1186 97.3572 54.5434 102.469 54.7724 103.725C55.0013 104.982 55.7996 106.4 56.7827 106.987C57.7657 107.571 58.0812 107.532 58.0812 107.532C58.0812 107.532 58.3159 106.712 59.3201 106.412C60.3243 106.114 61.3959 106.507 60.9034 107.918C60.4129 109.328 59.7415 109.521 59.1355 109.305C58.5295 109.09 55.2225 108.514 54.0817 106.538C52.9428 104.565 52.8659 99.615 53.8605 96.1182C54.8531 92.6233 56.4557 86.8862 56.4557 86.8862C56.4557 86.8862 57.3925 82.1095 58.593 80.7069C59.7934 79.3062 62.3405 79.1134 62.3405 79.1134L62.1443 77.3114C62.1443 77.3114 61.3363 70.2886 60.4629 67.3742C59.5876 64.4599 58.7103 60.9592 57.3406 59.3598C55.9709 57.7604 54.4761 55.713 53.5469 55.4714C52.6177 55.2279 52.7947 53.8721 52.7947 53.8721Z" fill="#DCE8FF"/>
<path fill-rule="evenodd" clip-rule="evenodd" d="M29.8981 33.7914C29.9789 36.0083 29.521 38.3596 29.1632 40.5317C28.6034 43.9253 28.1378 47.2916 27.1567 50.6072C26.1448 54.0203 24.5635 57.0963 24.5635 60.7431C24.5635 60.8853 24.677 61.0002 24.8174 61.0002C24.9578 61.0002 25.0713 60.8853 25.0713 60.7431C25.0713 57.1489 26.6469 54.1196 27.6434 50.7553C28.6322 47.4182 29.1016 44.0305 29.6634 40.6155C30.027 38.4103 30.4868 36.0219 30.404 33.7738C30.4002 33.6316 30.2809 33.5206 30.1424 33.5264C30.002 33.5303 29.8923 33.6511 29.8981 33.7914Z" fill="#232124"/>
<path fill-rule="evenodd" clip-rule="evenodd" d="M26.5911 56.1686C26.1505 57.5439 26.0947 58.9582 26.0947 60.3881C26.0947 60.5303 26.2082 60.6453 26.3487 60.6453C26.4891 60.6453 26.6026 60.5303 26.6026 60.3881C26.6026 59.0128 26.6488 57.6511 27.0759 56.3283C27.1182 56.192 27.0451 56.0478 26.9123 56.003C26.7796 55.9601 26.6353 56.0322 26.5911 56.1686Z" fill="#232124"/>
<path fill-rule="evenodd" clip-rule="evenodd" d="M65.5839 52.7344C66.6265 54.9552 66.8478 57.8578 66.4169 60.254C66.3918 60.3942 66.4842 60.5286 66.6208 60.554C66.7593 60.5793 66.892 60.4858 66.917 60.3455C67.3653 57.85 67.1286 54.8266 66.0436 52.5142C65.9821 52.3856 65.8301 52.3311 65.7051 52.3915C65.5781 52.4538 65.5242 52.6058 65.5839 52.7344Z" fill="#232124"/>
<path fill-rule="evenodd" clip-rule="evenodd" d="M38.4533 6.92298C38.3417 7.79377 38.2378 8.65482 38.2378 9.53535C38.2378 9.67756 38.3513 9.79248 38.4917 9.79248C38.6302 9.79248 38.7457 9.67756 38.7457 9.53535C38.7457 8.67624 38.8476 7.83858 38.9573 6.98922C38.9746 6.84701 38.8765 6.71842 38.738 6.70089C38.5975 6.68141 38.4706 6.78077 38.4533 6.92298Z" fill="#232124"/>
<path fill-rule="evenodd" clip-rule="evenodd" d="M51.8329 16.7316C52.3542 19.0732 53.4219 20.4797 54.6762 21.8375C55.488 22.7181 56.3807 23.5772 57.2464 24.6739C57.3329 24.783 57.4945 24.8025 57.6042 24.7129C57.7119 24.6252 57.7312 24.4616 57.6427 24.3525C56.7693 23.244 55.8689 22.3752 55.0475 21.4869C53.8509 20.1914 52.8255 18.8531 52.3292 16.6186C52.2984 16.4803 52.1618 16.3946 52.0253 16.4257C51.8887 16.4569 51.8021 16.5933 51.8329 16.7316Z" fill="#232124"/>
<path fill-rule="evenodd" clip-rule="evenodd" d="M56.3073 20.9591C56.8902 22.502 57.9271 23.663 58.208 25.3657C58.2311 25.5059 58.3619 25.6014 58.5004 25.578C58.6389 25.5546 58.7332 25.4222 58.7101 25.2819C58.4235 23.5423 57.377 22.352 56.7825 20.7741C56.7325 20.6416 56.5843 20.5754 56.4535 20.626C56.3227 20.6767 56.2573 20.8267 56.3073 20.9591Z" fill="#232124"/>
<path fill-rule="evenodd" clip-rule="evenodd" d="M33.8204 19.613C32.72 21.3566 32.0505 24.1326 32.3391 26.1878C32.3602 26.3281 32.4891 26.4254 32.6276 26.406C32.7662 26.3845 32.8624 26.254 32.8431 26.1138C32.568 24.1696 33.2067 21.5416 34.2494 19.8916C34.3244 19.7708 34.2898 19.613 34.1725 19.5351C34.0532 19.4591 33.8954 19.4942 33.8204 19.613Z" fill="#232124"/>
<path fill-rule="evenodd" clip-rule="evenodd" d="M38.3682 14.5928C38.3816 16.7143 38.9049 19.3189 40.0726 21.2046C41.275 23.1488 43.1468 24.3469 45.8285 23.5696C45.9651 23.5306 46.0421 23.3884 46.0036 23.252C45.9651 23.1157 45.8247 23.0358 45.69 23.0748C43.2719 23.7741 41.5886 22.6852 40.5036 20.9319C39.3839 19.1221 38.8895 16.6227 38.876 14.5889C38.876 14.4467 38.7606 14.3337 38.6202 14.3337C38.4797 14.3357 38.3682 14.4506 38.3682 14.5928Z" fill="#232124"/>
<path fill-rule="evenodd" clip-rule="evenodd" d="M41.0597 17.1097C42.0524 20.5227 44.5956 22.6032 48.0045 23.1604C49.28 23.3688 50.4746 23.1993 51.5885 23.1331C53.1506 23.0396 54.5511 23.1584 55.7881 25.0383C55.867 25.1572 56.0247 25.1903 56.1401 25.1104C56.2575 25.0325 56.2902 24.8727 56.2113 24.7539C55.0609 23.0065 53.7874 22.6169 52.3869 22.5954C51.0749 22.576 49.6416 22.9071 48.0853 22.6519C44.8784 22.1279 42.4814 20.1759 41.5483 16.9635C41.5079 16.8272 41.3675 16.7492 41.2328 16.7902C41.0982 16.8291 41.0212 16.9733 41.0597 17.1097Z" fill="#232124"/>
<path fill-rule="evenodd" clip-rule="evenodd" d="M37.4989 16.0811C37.066 18.9233 35.5809 21.2571 33.2242 22.9266C33.1107 23.0085 33.0819 23.1682 33.1627 23.2851C33.2435 23.402 33.4012 23.4292 33.5167 23.3474C35.9887 21.5961 37.547 19.1434 38.001 16.1609C38.0221 16.0187 37.9279 15.8882 37.7894 15.8668C37.6489 15.8454 37.52 15.9408 37.4989 16.0811Z" fill="#232124"/>
<path fill-rule="evenodd" clip-rule="evenodd" d="M32.8009 24.4852C33.1394 27.5983 34.0898 30.5866 34.6765 33.649C35.7173 39.0998 36.4291 44.0187 42.6929 45.2869C42.8295 45.3141 42.9641 45.2245 42.9911 45.0843C43.0199 44.9459 42.9295 44.8096 42.7929 44.7823C36.7792 43.5648 36.1752 38.7861 35.1748 33.5516C34.5919 30.5029 33.6435 27.5281 33.3068 24.4287C33.2914 24.2885 33.1645 24.1852 33.0259 24.2008C32.8874 24.2164 32.7855 24.343 32.8009 24.4852Z" fill="#232124"/>
<path fill-rule="evenodd" clip-rule="evenodd" d="M57.4811 24.7987C56.9713 26.2131 57.0733 27.9878 56.8905 29.4956C56.5654 32.182 56.1884 36.5418 54.8206 39.9919C53.9318 42.2302 52.6274 44.0867 50.6152 44.79C50.4824 44.8367 50.4113 44.9828 50.4574 45.1173C50.5036 45.2517 50.6479 45.3238 50.7806 45.277C52.9276 44.527 54.3435 42.5711 55.2919 40.1828C56.677 36.6918 57.0656 32.2775 57.3946 29.5579C57.5735 28.0871 57.4619 26.3553 57.9582 24.976C58.0063 24.8416 57.939 24.6935 57.8063 24.6448C57.6754 24.5981 57.5292 24.6663 57.4811 24.7987Z" fill="#232124"/>
<path fill-rule="evenodd" clip-rule="evenodd" d="M57.7619 28.2099C57.7619 27.9897 57.8697 27.6605 58.0332 27.304C58.2929 26.7371 58.7065 26.1098 59.1548 25.7241C59.4068 25.5079 59.6626 25.3618 59.9108 25.3988C60.0589 25.4222 60.1936 25.5196 60.3206 25.6968C60.4783 25.915 60.5572 26.2326 60.6034 26.5715C60.6803 27.1326 60.6534 27.754 60.638 28.1728C60.5841 29.63 60.1917 31.5898 59.2452 32.9223C58.6411 33.7716 57.81 34.36 56.6866 34.36C56.5461 34.36 56.4326 34.4768 56.4326 34.6191C56.4326 34.7593 56.5461 34.8762 56.6866 34.8762C57.989 34.8762 58.9585 34.2061 59.6569 33.2223C60.6611 31.8099 61.0901 29.7352 61.1459 28.1923C61.1612 27.7501 61.1882 27.0936 61.1074 26.5014C61.0497 26.0709 60.9323 25.6735 60.7303 25.3929C60.5072 25.0812 60.2513 24.9312 59.9858 24.8903C59.6145 24.8319 59.2067 25.0033 58.8258 25.3306C58.3275 25.7611 57.862 26.4566 57.5734 27.0858C57.3695 27.5261 57.2541 27.9371 57.2541 28.2099C57.2541 28.3521 57.3676 28.469 57.508 28.469C57.6484 28.469 57.7619 28.3521 57.7619 28.2099Z" fill="#232124"/>
<path fill-rule="evenodd" clip-rule="evenodd" d="M57.6639 30.5203C57.6196 30.5515 57.5831 30.5866 57.5523 30.6255C57.4215 30.7911 57.4388 30.9762 57.5581 31.097C57.6196 31.1574 57.6889 31.1808 57.7639 31.1749C57.812 31.171 57.889 31.1535 57.9582 31.0736C57.9601 31.1204 57.9582 31.171 57.9563 31.2236C57.9428 31.4827 57.8736 31.7944 57.7639 32.0593C57.7081 32.1937 57.6408 32.3165 57.5639 32.408C57.5158 32.4645 57.4696 32.5113 57.4119 32.521C57.2753 32.5444 57.181 32.6769 57.2022 32.8171C57.2233 32.9555 57.3542 33.0529 57.4927 33.0295C57.6293 33.0081 57.7601 32.936 57.8774 32.8211C58.014 32.6866 58.1371 32.4879 58.2314 32.2581C58.3641 31.9405 58.4488 31.5626 58.4642 31.2489C58.4757 31.0054 58.443 30.795 58.3757 30.6606C58.3353 30.5769 58.2814 30.5165 58.2199 30.4775C58.3834 30.0002 58.5623 29.369 58.5758 29.3165C58.822 28.4067 59.1375 27.4521 60.1571 27.2807C60.2956 27.2573 60.388 27.1229 60.3649 26.9846C60.3418 26.8443 60.211 26.7489 60.0725 26.7723C58.8374 26.9807 58.3834 28.0794 58.0871 29.1801C58.0717 29.2346 57.8794 29.9087 57.7178 30.3782C57.7004 30.4249 57.6812 30.4755 57.6639 30.5203Z" fill="#232124"/>
<path fill-rule="evenodd" clip-rule="evenodd" d="M34.2303 30.5164C34.1803 29.9456 33.5281 28.3774 32.7298 27.5592C32.3662 27.1891 31.9679 26.9748 31.589 27.0021C31.3177 27.0215 31.0465 27.156 30.7964 27.4657C29.9461 28.5196 29.9653 30.1248 30.5116 31.734C31.3119 34.0834 33.2222 36.4289 34.8902 36.9918C35.0229 37.0367 35.1672 36.9646 35.2114 36.8282C35.2557 36.6938 35.1845 36.5477 35.0517 36.5029C33.4916 35.9769 31.739 33.7619 30.9926 31.5664C30.5097 30.1443 30.4385 28.7222 31.1907 27.791C31.3312 27.6177 31.4735 27.5261 31.6236 27.5144C31.8775 27.4969 32.1257 27.6742 32.3681 27.9216C33.0818 28.6541 33.6801 30.0508 33.7243 30.5612C33.7359 30.7034 33.859 30.8086 33.9995 30.795C34.138 30.7833 34.2418 30.6586 34.2303 30.5164Z" fill="#232124"/>
<path fill-rule="evenodd" clip-rule="evenodd" d="M33.8976 32.778C33.8284 32.7721 33.761 32.7819 33.6995 32.8072C33.584 32.8559 33.4609 32.965 33.3994 33.2124C33.357 33.3858 33.3763 34.0949 33.5186 34.4806C33.6283 34.7787 33.8341 34.8995 34.0304 34.8566C34.1669 34.8274 34.2535 34.691 34.2247 34.5527C34.2035 34.4475 34.1208 34.3696 34.0207 34.352C34.0034 34.3111 33.9707 34.2313 33.9553 34.1689C33.8822 33.867 33.863 33.452 33.8918 33.3371C33.8938 33.3293 33.8957 33.3215 33.8995 33.3137C33.9323 33.3312 33.9765 33.3585 34.0034 33.3799C34.0784 33.4423 34.14 33.5046 34.165 33.5241C34.3362 33.6585 34.4786 33.5416 34.5152 33.5027C34.5517 33.4637 34.6056 33.3916 34.5786 33.265C34.5151 32.9747 33.7706 30.6721 32.9107 29.7429C32.6395 29.4507 32.349 29.289 32.0681 29.2909C31.8623 29.2909 31.6545 29.3727 31.4544 29.5753C31.3544 29.6766 31.3544 29.8383 31.4544 29.9396C31.5525 30.039 31.7141 30.039 31.8142 29.9396C31.8988 29.852 31.9835 29.8052 32.07 29.8052C32.2316 29.8033 32.3836 29.926 32.5394 30.0955C33.1166 30.7169 33.6321 32.0046 33.8976 32.778Z" fill="#232124"/>
<path fill-rule="evenodd" clip-rule="evenodd" d="M35.4539 25.3598C36.2407 24.2825 36.814 23.5714 37.6239 23.3786C38.1568 23.2539 38.7839 23.3572 39.6304 23.7C39.7612 23.7526 39.9093 23.6884 39.9613 23.5578C40.0132 23.4254 39.9497 23.2753 39.8189 23.2227C38.8455 22.8273 38.1202 22.7338 37.5085 22.8779C36.6004 23.0942 35.9252 23.8481 35.046 25.0539C34.9614 25.1669 34.9864 25.3286 35.098 25.4143C35.2115 25.4981 35.3711 25.4728 35.4539 25.3598Z" fill="#232124"/>
<path fill-rule="evenodd" clip-rule="evenodd" d="M49.8744 23.9592C51.5385 23.0669 53.8009 22.5371 54.7628 24.678C54.8205 24.8085 54.9724 24.865 55.0994 24.8066C55.2264 24.7481 55.2841 24.5962 55.2264 24.4657C54.1221 22.0091 51.5462 22.4806 49.6359 23.5052C49.5128 23.5715 49.4647 23.7273 49.532 23.852C49.5974 23.9786 49.7513 24.0254 49.8744 23.9592Z" fill="#232124"/>
<path fill-rule="evenodd" clip-rule="evenodd" d="M36.3155 28.7633C36.935 27.2496 37.9411 26.5347 38.9049 26.6223C39.8668 26.7119 40.7325 27.5964 41.0769 29.1646C41.1077 29.3029 41.2442 29.3905 41.3808 29.3613C41.5174 29.3302 41.604 29.1919 41.5732 29.0536C41.1673 27.2029 40.0842 26.2152 38.9492 26.11C37.8161 26.0068 36.5753 26.7821 35.8461 28.5665C35.7923 28.699 35.8538 28.849 35.9846 28.9035C36.1135 28.9581 36.2617 28.8958 36.3155 28.7633Z" fill="#232124"/>
<path fill-rule="evenodd" clip-rule="evenodd" d="M39.5783 26.7781C39.5918 26.6846 39.5533 26.5872 39.4706 26.5307C39.2724 26.3924 39.0262 26.4528 38.8319 26.7469C38.5972 27.1015 38.3971 27.8437 38.3779 27.9547C38.2856 28.4885 38.299 30.3665 38.7396 31.4438C38.9666 32.0029 39.3186 32.3496 39.7688 32.3496C40.3171 32.3496 40.6403 31.9795 40.7807 31.4009C41.0462 30.3061 40.6095 28.397 40.369 27.8476C40.3324 27.7658 40.0785 27.1658 39.8226 26.9223C39.7438 26.8482 39.6591 26.7995 39.5783 26.7781ZM40.1285 29.1275C40.1439 29.6515 40.167 30.4152 40.1497 31.0132C40.319 30.4191 40.2805 29.7392 40.1285 29.1275ZM39.2455 29.5405C39.2744 29.9145 39.3129 30.2476 39.3379 30.4697C39.3475 30.5671 39.3648 30.6587 39.384 30.7483C39.3532 30.3645 39.2994 29.9321 39.2455 29.5405Z" fill="#232124"/>
<path fill-rule="evenodd" clip-rule="evenodd" d="M39.7709 29.2304L39.767 29.2324C39.7074 29.2655 39.6516 29.3161 39.6324 29.3999C39.5593 29.3551 39.465 29.3473 39.3842 29.3882C39.2226 29.47 39.1303 29.622 39.1053 29.8207C39.0706 30.0876 39.1822 30.4714 39.1976 30.6603C39.2091 30.7733 39.2553 31.0032 39.313 31.0908C39.3823 31.1999 39.4785 31.235 39.5651 31.2331C39.6266 31.2311 39.6997 31.2135 39.769 31.1434C39.794 31.1181 39.8171 31.0889 39.8401 31.0597C39.8382 31.1084 39.8382 31.1376 39.8382 31.1376C39.8325 31.2701 39.9306 31.3869 40.0633 31.4006C40.1941 31.4162 40.3153 31.3266 40.3403 31.1941C40.3403 31.1941 40.4269 30.7402 40.4365 30.5103C40.4596 29.9726 40.4654 29.2889 40.3384 28.7687C40.2788 28.5291 40.0979 28.5272 40.0518 28.5291C39.9883 28.5349 39.8882 28.5603 39.8324 28.6888C39.819 28.7161 39.8036 28.7726 39.7959 28.8505C39.7844 28.944 39.7786 29.0921 39.7709 29.2304ZM39.7132 29.7545C39.6901 29.7895 39.6593 29.8207 39.6189 29.8441C39.617 29.8519 39.6112 29.8733 39.6093 29.8889C39.6016 29.9415 39.6054 29.9999 39.6112 30.0603C39.617 30.1148 39.6247 30.1694 39.6343 30.2239C39.6689 30.0642 39.6939 29.9006 39.7132 29.7545Z" fill="#232124"/>
<path fill-rule="evenodd" clip-rule="evenodd" d="M49.305 27.8085C50.0034 26.476 51.1172 25.8312 52.081 25.954C53.0275 26.0728 53.7797 26.9475 53.8259 28.5605C53.8297 28.7027 53.9471 28.8157 54.0875 28.8098C54.2279 28.8059 54.3376 28.6891 54.3338 28.5469C54.2799 26.5929 53.2911 25.5877 52.1445 25.4435C51.0133 25.2994 49.6763 26.0046 48.8568 27.5669C48.7914 27.6936 48.8375 27.8494 48.9626 27.9157C49.0857 27.9819 49.2396 27.9332 49.305 27.8085Z" fill="#232124"/>
<path fill-rule="evenodd" clip-rule="evenodd" d="M51.4366 25.8311C51.352 25.7941 51.2519 25.8039 51.175 25.8642C50.0419 26.776 49.8572 27.8493 50.1727 29.5266C50.2169 29.7585 50.3728 30.4208 50.6594 30.7968C50.8229 31.0131 51.0326 31.1436 51.2673 31.1436C52.0465 31.1436 52.5274 30.4189 52.7063 29.439C52.8487 28.6656 52.816 27.7461 52.6659 27.0214C52.6563 26.8889 52.6428 26.7662 52.6236 26.7058C52.6043 26.6513 52.5813 26.6104 52.5524 26.5773C52.4466 26.2422 52.3081 25.9792 52.1561 25.8253C52.0061 25.6733 51.8156 25.6519 51.6155 25.7318C51.5559 25.7552 51.4962 25.7902 51.4366 25.8311ZM51.6367 30.4306C51.6059 30.5007 51.5636 30.5494 51.5155 30.5806C51.579 30.5553 51.6367 30.5182 51.6906 30.4754C51.6713 30.4617 51.654 30.4481 51.6367 30.4306ZM51.0115 27.2708C50.7498 27.9195 50.6556 28.687 50.8075 29.328C50.8191 29.3767 50.8922 29.5656 50.9884 29.7643C50.998 29.3319 51.0422 28.7513 51.0788 28.3228C51.0461 27.9546 51.0172 27.5903 51.0115 27.2708Z" fill="#232124"/>
<path fill-rule="evenodd" clip-rule="evenodd" d="M51.3171 27.0157C51.3537 26.93 51.3422 26.8306 51.2825 26.7546C51.1748 26.6183 51.069 26.628 51.0401 26.63C50.9478 26.6358 50.8727 26.6786 50.8266 26.778C50.8131 26.8014 50.8016 26.8384 50.7997 26.8871C50.7997 26.9085 50.8189 26.9728 50.8112 27.0429C50.7804 27.3098 50.6996 27.567 50.6727 27.8319C50.5957 28.5819 50.5342 29.328 50.5342 30.0819C50.5342 30.2242 50.6477 30.3391 50.7881 30.3391C50.9285 30.3391 51.042 30.2242 51.042 30.0819C51.042 29.3456 51.1036 28.617 51.1786 27.8865C51.2056 27.6215 51.2864 27.3644 51.3152 27.1014C51.3191 27.0741 51.3191 27.043 51.3171 27.0157ZM50.8901 27.0819L50.8862 27.0741C50.8881 27.078 50.8901 27.0799 50.8901 27.0819Z" fill="#232124"/>
<path fill-rule="evenodd" clip-rule="evenodd" d="M44.89 33.1367C44.6841 33.6763 44.561 34.136 44.561 34.514C44.561 34.8101 44.6341 35.0594 44.7842 35.2679C45.017 35.5835 45.4537 35.8095 46.1885 35.8932C46.329 35.9088 46.454 35.8056 46.4694 35.6653C46.4848 35.5231 46.3848 35.3964 46.2443 35.3809C45.7018 35.3205 45.3632 35.1938 45.1939 34.9601C45.0766 34.8023 45.0535 34.5997 45.0766 34.3581C45.1074 34.062 45.2132 33.7172 45.3632 33.3237C45.4152 33.1912 45.3498 33.0412 45.219 32.9906C45.0881 32.9399 44.94 33.0042 44.89 33.1367Z" fill="#232124"/>
<path fill-rule="evenodd" clip-rule="evenodd" d="M42.3869 37.5176C44.1626 38.5929 46.473 38.9241 48.3795 38.0455C48.5064 37.9871 48.5622 37.8351 48.5045 37.7065C48.4468 37.576 48.2968 37.5195 48.1679 37.578C46.4134 38.3864 44.2838 38.0669 42.6486 37.0753C42.5274 37.0033 42.3715 37.0422 42.3004 37.165C42.2292 37.2858 42.2677 37.4435 42.3869 37.5176Z" fill="#232124"/>
<path fill-rule="evenodd" clip-rule="evenodd" d="M38.259 3.5374C35.7138 3.91923 33.9228 5.46017 32.5646 7.42969C31.2372 9.35829 30.3273 11.7018 29.5231 13.7376C27.886 17.885 27.4935 22.3832 26.8125 26.7547C25.7467 33.5808 24.8599 40.6094 22.6168 47.1725C21.603 50.1356 19.7792 53.759 18.8077 57.3396C18.1479 59.7688 17.8824 62.1806 18.498 64.3624C18.5364 64.4988 18.6769 64.5786 18.8116 64.5397C18.9462 64.5007 19.0251 64.3585 18.9866 64.2222C18.396 62.126 18.6654 59.8097 19.2983 57.474C20.2659 53.9051 22.0858 50.2953 23.0958 47.34C25.3504 40.7477 26.245 33.6918 27.3127 26.8345C27.9899 22.502 28.3708 18.0409 29.9964 13.9285C30.7851 11.9278 31.6758 9.62127 32.9821 7.72384C34.2594 5.86927 35.937 4.40624 38.334 4.04585C38.4725 4.02441 38.5668 3.89389 38.5475 3.75363C38.5264 3.61337 38.3975 3.51597 38.259 3.5374Z" fill="#232124"/>
<path fill-rule="evenodd" clip-rule="evenodd" d="M38.8321 4.64378C38.886 4.17819 39.2304 3.74766 39.6651 3.35999C40.375 2.72297 41.3388 2.21258 41.9102 1.92427C43.832 0.950224 46.8889 0.418398 49.6399 0.687233C51.4482 0.86451 53.1258 1.38658 54.2435 2.37621C55.2612 3.27817 56.3673 4.22106 57.2522 5.24575C61.9905 10.7277 62.9947 20.7252 63.9162 27.7208C63.9354 27.861 64.0624 27.9604 64.2009 27.9409C64.3414 27.9234 64.4375 27.7929 64.4202 27.6526C63.4872 20.5694 62.431 10.4588 57.6351 4.90677C56.7348 3.86455 55.6113 2.90413 54.5782 1.98853C53.3893 0.936565 51.6118 0.363836 49.688 0.174871C46.8389 -0.103704 43.6743 0.455389 41.6832 1.46255C41.083 1.76645 40.0749 2.30606 39.3285 2.97425C38.7898 3.45543 38.3935 4.00871 38.3281 4.5834C38.3108 4.72366 38.4108 4.85223 38.5494 4.86781C38.6898 4.88535 38.8148 4.78404 38.8321 4.64378Z" fill="#232124"/>
<path fill-rule="evenodd" clip-rule="evenodd" d="M51.7597 30.75C51.7501 30.7091 51.7635 30.6955 51.7789 30.6702C51.7943 30.6448 51.8097 30.6156 51.827 30.5806C51.8905 30.4539 51.8386 30.2981 51.7135 30.2357C51.5885 30.1714 51.4346 30.224 51.373 30.3507C51.2634 30.5708 51.2076 30.6195 51.2653 30.8689C51.298 31.0072 51.4346 31.0929 51.5712 31.0598C51.7077 31.0267 51.7924 30.8883 51.7597 30.75Z" fill="#232124"/>
<path fill-rule="evenodd" clip-rule="evenodd" d="M64.1681 28.8606C64.6471 35.5231 66.1938 42.2596 67.9541 48.6785C68.5254 50.7551 69.3834 53.6792 69.724 56.4572C69.9471 58.2786 69.949 60.0358 69.4873 61.4423C69.4431 61.5768 69.5143 61.7229 69.647 61.7677C69.7797 61.8125 69.924 61.7384 69.9683 61.604C70.4531 60.1332 70.4607 58.2981 70.228 56.3949C69.8836 53.5896 69.0199 50.6383 68.4446 48.5402C66.6921 42.1524 65.1512 35.451 64.6741 28.8217C64.6644 28.6814 64.5432 28.5743 64.4028 28.584C64.2643 28.5957 64.1585 28.7184 64.1681 28.8606Z" fill="#232124"/>
<path fill-rule="evenodd" clip-rule="evenodd" d="M39.5418 44.2447C39.713 44.5642 39.7823 45.0084 39.8073 45.4817C39.8496 46.2454 39.7727 47.0811 39.7534 47.6402C39.6553 50.3851 39.6322 53.2565 38.7646 55.8923C38.7203 56.0267 38.7915 56.1728 38.9243 56.2176C39.0589 56.2624 39.2013 56.1884 39.2455 56.054C40.1285 53.3715 40.1613 50.4533 40.2613 47.6578C40.2805 47.087 40.3575 46.2337 40.3152 45.4525C40.2844 44.8954 40.1901 44.3733 39.9881 43.9992C39.9208 43.8746 39.765 43.8278 39.6418 43.896C39.5206 43.9642 39.4745 44.12 39.5418 44.2447Z" fill="#232124"/>
<path fill-rule="evenodd" clip-rule="evenodd" d="M52.227 44.2971C51.8057 45.3997 51.7095 47.038 51.8057 48.7913C51.95 51.3803 52.506 54.2265 52.9888 55.9369C53.0273 56.0732 53.1677 56.1531 53.3024 56.1141C53.4371 56.0752 53.516 55.931 53.4775 55.7947C53.0023 54.1115 52.454 51.3102 52.3136 48.764C52.2213 47.0926 52.2982 45.5341 52.7003 44.4841C52.7522 44.3516 52.6868 44.2016 52.556 44.151C52.4252 44.1003 52.279 44.1646 52.227 44.2971Z" fill="#232124"/>
<path fill-rule="evenodd" clip-rule="evenodd" d="M47.037 68.6207C46.9792 68.5642 46.8985 68.4804 46.833 68.4005C46.3656 67.8239 45.6903 66.7291 45.5114 66.4057C44.1186 63.8635 42.72 61.327 41.2733 58.814C41.0175 58.3699 40.6231 57.9199 40.248 57.4718C39.9017 57.0569 39.567 56.6439 39.4015 56.2367C39.3477 56.1062 39.1995 56.0438 39.0687 56.0964C38.9398 56.151 38.8782 56.301 38.9321 56.4335C39.1149 56.8835 39.4765 57.3452 39.8613 57.803C40.2172 58.2296 40.5923 58.6523 40.8347 59.0731C42.2795 61.5842 43.6761 64.1167 45.067 66.6551C45.2806 67.0408 46.1751 68.4804 46.6445 68.9597C46.7676 69.0843 46.8773 69.1545 46.9523 69.1759C47.0581 69.2051 47.1447 69.1837 47.2139 69.1369C47.4217 68.9967 47.6641 68.6733 47.8969 68.2603C48.3855 67.3914 48.8761 66.1115 49.0877 65.644C50.4978 62.5271 52.0946 59.4199 53.5893 56.3945C53.6509 56.2679 53.6009 56.112 53.4758 56.0477C53.3489 55.9854 53.1969 56.0361 53.1334 56.1646C51.6367 59.1958 50.04 62.3089 48.626 65.4297C48.4182 65.8895 47.9354 67.1499 47.4544 68.0051C47.3101 68.2622 47.1697 68.4843 47.037 68.6207Z" fill="#232124"/>
<path fill-rule="evenodd" clip-rule="evenodd" d="M38.5858 55.8142C37.7682 56.3908 37.2219 57.2616 36.839 58.2512C36.2869 59.6753 36.0695 61.3428 35.8098 62.6636C34.5113 69.2326 35.1942 76.1833 35.4924 82.8205C35.6155 85.5692 35.7232 88.8907 36.9468 91.3687C37.0353 91.5479 36.9891 91.7797 36.8794 91.9531C36.7813 92.1089 36.6217 92.2258 36.4331 92.179C36.3773 92.1654 36.3369 92.1089 36.2908 92.0446C36.2157 91.9355 36.1523 91.7914 36.0926 91.6355C35.8983 91.1135 35.7829 90.4453 35.7252 90.2017C35.1461 87.7355 34.6806 85.1893 34.4843 82.6529C33.9322 75.5872 33.3359 68.2235 34.9672 61.2844C35.2789 59.9578 35.8637 58.1188 36.8025 56.685C37.4046 55.7635 38.1549 55.0077 39.0822 54.694C39.2149 54.6492 39.288 54.5031 39.2418 54.3687C39.1976 54.2343 39.0552 54.1603 38.9225 54.207C37.8913 54.5538 37.0487 55.3778 36.3793 56.4025C35.4058 57.8869 34.796 59.7922 34.4728 61.1636C32.8299 68.1572 33.4224 75.5755 33.9765 82.6938C34.1765 85.2556 34.6459 87.829 35.2308 90.3206C35.302 90.6206 35.4597 91.5264 35.7348 92.0933C35.8887 92.4109 36.0945 92.6232 36.3081 92.6778C36.7236 92.783 37.093 92.5706 37.3084 92.2297C37.5124 91.9063 37.5662 91.4739 37.4008 91.1388C36.2061 88.7212 36.1215 85.4776 36.0003 82.7971C35.704 76.2009 35.0192 69.293 36.3081 62.7649C36.5216 61.6818 36.7025 60.363 37.0699 59.1435C37.4258 57.9707 37.951 56.8895 38.8763 56.235C38.9918 56.1532 39.0206 55.9934 38.9398 55.8765C38.859 55.7596 38.7012 55.7324 38.5858 55.8142Z" fill="#232124"/>
<path fill-rule="evenodd" clip-rule="evenodd" d="M53.7372 55.0547C53.6968 54.9456 53.5852 54.8774 53.4679 54.893C53.3293 54.9125 53.2312 55.043 53.2505 55.1832C53.2562 55.2261 53.2736 55.2826 53.3197 55.3469C53.3582 55.4034 53.4351 55.4832 53.539 55.5729C54.0161 55.9859 55.1973 56.7651 55.4263 57.0183C56.9287 58.6781 58.0368 60.7703 58.9025 62.8158C59.4546 64.1191 59.7066 65.6405 60.0029 67.0139C60.3723 68.7224 60.9013 70.3861 61.2053 72.1082C61.6073 74.3894 61.7401 76.7622 62.1864 79.0219C62.2152 79.1603 62.348 79.2518 62.4865 79.2226C62.6231 79.1953 62.7135 79.0609 62.6846 78.9206C62.2402 76.6648 62.1075 74.2959 61.7054 72.0166C61.3996 70.2887 60.8705 68.6192 60.4992 66.9049C60.1953 65.4983 59.9337 63.9457 59.37 62.6132C58.4812 60.5151 57.3423 58.3722 55.7995 56.6696C55.5936 56.4417 54.6375 55.791 54.0719 55.3469C53.9257 55.2319 53.7699 55.0839 53.7372 55.0547Z" fill="#232124"/>
<path fill-rule="evenodd" clip-rule="evenodd" d="M53.016 53.9987C53.8701 54.252 54.7012 54.3844 55.5169 54.9357C56.5749 55.6487 57.5657 57.0903 58.4294 58.7326C59.7511 61.2397 60.7649 64.2203 61.2093 65.8976C61.5267 67.0859 61.7787 68.284 62.0077 69.4918C62.5694 72.4412 63.564 75.488 63.564 78.5192C63.564 78.6614 63.6794 78.7764 63.8179 78.7764C63.9584 78.7764 64.0719 78.6614 64.0719 78.5192C64.0719 75.4568 63.0734 72.375 62.5078 69.3944C62.2751 68.1749 62.0192 66.9651 61.6999 65.7632C61.2478 64.0605 60.2186 61.0352 58.8777 58.489C57.9697 56.763 56.9116 55.2572 55.7996 54.5072C54.9359 53.9247 54.0625 53.7727 53.1602 53.5039C53.0256 53.4649 52.8832 53.5429 52.8447 53.6792C52.8043 53.8156 52.8813 53.9578 53.016 53.9987Z" fill="#232124"/>
<path fill-rule="evenodd" clip-rule="evenodd" d="M62.2868 78.899C61.8059 78.7451 61.3114 78.9166 60.8536 79.0315C58.0179 79.7503 57.5159 81.9867 56.8348 84.5446C55.2554 90.4843 52.8584 96.1844 52.8584 102.447C52.8584 104.777 53.6183 106.741 55.6132 107.953C56.3308 108.389 57.1484 108.937 58.018 108.937C58.1565 108.937 58.2719 108.822 58.2719 108.679C58.2719 108.539 58.1565 108.422 58.018 108.422C57.2388 108.422 56.5174 107.902 55.873 107.511C54.0434 106.398 53.3663 104.586 53.3663 102.447C53.3663 96.2292 55.7575 90.5739 57.3254 84.677C57.9545 82.3121 58.3546 80.1945 60.9767 79.5321C61.348 79.4386 61.7443 79.2653 62.1348 79.3899C62.2676 79.4328 62.4119 79.3568 62.4523 79.2205C62.4946 79.086 62.4215 78.9419 62.2868 78.899Z" fill="#232124"/>
<path fill-rule="evenodd" clip-rule="evenodd" d="M62.8832 79.9353C60.3053 79.9003 59.103 81.3535 58.3854 83.2607C57.9275 84.4744 57.6736 85.877 57.3697 87.1705C56.4501 91.0784 55.1362 94.9862 54.6437 98.9837C54.332 101.506 54.0415 103.4 54.7456 104.97C55.2246 106.036 56.1557 106.963 57.8583 107.826C57.9852 107.89 58.1372 107.838 58.2007 107.711C58.2623 107.584 58.2123 107.429 58.0853 107.366C56.5194 106.573 55.6479 105.738 55.2093 104.758C54.5359 103.26 54.8514 101.452 55.1477 99.048C55.6383 95.07 56.9484 91.1797 57.8641 87.2893C58.1623 86.0172 58.4104 84.638 58.8586 83.4438C59.5012 81.7373 60.5689 80.4185 62.8755 80.4496C63.0159 80.4516 63.1313 80.3366 63.1333 80.1944C63.1352 80.0541 63.0236 79.9373 62.8832 79.9353Z" fill="#232124"/>
<path fill-rule="evenodd" clip-rule="evenodd" d="M63.5541 80.4323C64.2063 80.3739 64.8546 80.3311 65.5125 80.2999C65.9819 80.2785 66.5533 80.1733 67.0053 80.3564C67.8268 80.6895 68.3847 81.3947 68.8137 82.1973C69.2677 83.0447 69.5813 84.0032 69.8872 84.7941C70.8375 87.2429 71.3069 89.9176 71.5935 92.5241C71.7859 94.2793 72.1399 96.0092 72.3073 97.7761C72.4381 99.1787 72.54 100.577 72.6516 101.98C72.7516 103.256 72.7401 104.844 71.7013 105.777C71.2857 106.153 70.5355 106.241 70.0045 106.285C69.3235 106.344 68.6906 106.632 68.0153 106.685C67.4286 106.73 66.8649 106.583 66.2878 106.583C66.1473 106.583 66.0338 106.698 66.0338 106.841C66.0338 106.983 66.1473 107.098 66.2878 107.098C66.8784 107.098 67.4536 107.244 68.0538 107.197C68.731 107.144 69.3658 106.856 70.0468 106.8C70.674 106.745 71.5493 106.605 72.0399 106.163C73.198 105.118 73.2692 103.363 73.1576 101.939C73.046 100.535 72.944 99.132 72.8132 97.7274C72.6458 95.9586 72.2919 94.2248 72.0995 92.4676C71.8071 89.8163 71.3261 87.0967 70.3604 84.6071C70.0468 83.7967 69.7256 82.8187 69.26 81.9519C68.7714 81.0421 68.1269 80.257 67.1939 79.8791C66.6783 79.6707 66.0261 79.7622 65.4894 79.7856C64.8238 79.8167 64.1697 79.8616 63.5099 79.92C63.3694 79.9336 63.2655 80.0583 63.279 80.1986C63.2905 80.3408 63.4137 80.446 63.5541 80.4323Z" fill="#232124"/>
<path fill-rule="evenodd" clip-rule="evenodd" d="M64.0143 78.9382C64.7819 78.9792 65.6072 78.9012 66.4248 78.9051C67.1982 78.909 67.9638 78.985 68.6583 79.3357C69.3028 79.661 69.7375 80.2844 70.0684 81.0013C70.5975 82.1487 70.8533 83.5435 71.1592 84.5117C71.9518 87.017 72.4558 89.641 72.9945 92.2105C73.5755 94.9846 74.2142 97.6593 74.3411 100.502C74.3988 101.76 74.4085 103.204 74.0833 104.493C73.7717 105.736 73.1465 106.833 71.9268 107.45C71.1284 107.856 70.4109 107.955 69.5529 108.113C69.0777 108.2 68.362 108.376 67.6926 108.442C67.2828 108.483 66.8904 108.487 66.598 108.387C66.4633 108.345 66.319 108.417 66.2767 108.551C66.2305 108.685 66.3036 108.832 66.4364 108.876C66.7865 108.995 67.254 109.003 67.7426 108.954C68.4275 108.886 69.1585 108.709 69.6433 108.619C70.5532 108.452 71.3073 108.339 72.1538 107.912C73.5158 107.221 74.2276 106.007 74.5758 104.62C74.9125 103.283 74.9086 101.785 74.849 100.478C74.7201 97.6067 74.0776 94.9047 73.4908 92.1034C72.9502 89.5163 72.4404 86.8767 71.644 84.3539C71.3324 83.3701 71.0669 81.9519 70.5282 80.7831C70.1473 79.9551 69.6279 79.2519 68.8853 78.8759C68.1216 78.4882 67.279 78.3947 66.4267 78.3908C65.6168 78.3869 64.8011 78.4649 64.0413 78.424C63.9027 78.4162 63.7815 78.5253 63.7758 78.6675C63.7681 78.8077 63.8758 78.9304 64.0143 78.9382Z" fill="#232124"/>
<path fill-rule="evenodd" clip-rule="evenodd" d="M34.6668 88.2517C34.1109 88.3277 33.5953 88.7952 33.1605 89.1108C31.7408 90.1375 30.9001 91.9843 31.0771 93.7901C31.2348 95.3739 32.0852 96.911 33.4029 97.8012C33.8627 98.111 34.3302 98.2629 34.8342 98.4675C35.5056 98.7402 36.3309 98.8961 37.0562 98.8045C37.7006 98.7227 38.4682 98.4987 39.03 98.1714C39.6379 97.8149 40.1361 97.1564 40.4843 96.5564C41.4712 94.8616 41.7309 92.6076 41.0422 90.7472C40.5536 89.4284 39.1935 88.6004 37.9238 88.2323C37.7507 88.1816 37.3544 88.0842 37.0427 88.0764C36.8696 88.0725 36.7157 88.0978 36.6137 88.1485C36.4887 88.2128 36.4367 88.3667 36.5002 88.4933C36.5637 88.6219 36.7157 88.6725 36.8407 88.6102C36.908 88.5751 37.0196 88.5868 37.1389 88.5985C37.3851 88.6219 37.6545 88.69 37.7853 88.7271C38.9088 89.0524 40.1342 89.7595 40.5671 90.9284C41.2038 92.6485 40.9576 94.7291 40.0476 96.2954C39.7418 96.8233 39.3108 97.4116 38.776 97.7253C38.2682 98.0214 37.5756 98.2201 36.9946 98.2941C36.3482 98.3759 35.6191 98.2318 35.0227 97.9902C34.5533 97.7993 34.1147 97.6629 33.6857 97.3746C32.4911 96.5681 31.7254 95.1733 31.583 93.7395C31.4234 92.1148 32.1794 90.4531 33.4549 89.5297C33.6569 89.3836 33.8723 89.2005 34.1032 89.0446C34.3033 88.9082 34.513 88.7933 34.7361 88.7621C34.8746 88.7427 34.9708 88.6141 34.9535 88.4719C34.9343 88.3316 34.8054 88.2323 34.6668 88.2517Z" fill="#232124"/>
<path fill-rule="evenodd" clip-rule="evenodd" d="M34.9997 89.3095C35.094 89.2803 35.1671 89.1985 35.1786 89.0933C35.1959 88.953 35.0978 88.8244 34.9593 88.8069C34.9131 88.8011 34.84 88.8069 34.7592 88.8536C34.6823 88.8984 34.5514 89.0192 34.511 89.0465C34.1705 89.2744 33.9185 89.5179 33.6223 89.8179C32.4853 90.9712 32.0236 93.0907 32.5122 94.6433C33.0509 96.3557 34.638 97.2713 36.3002 97.4837C36.9004 97.5577 37.7564 97.6395 38.3009 97.3083C39.838 96.3752 40.8826 94.7836 41.2654 93.0401C41.2962 92.8998 41.2096 92.7635 41.073 92.7323C40.9364 92.7011 40.7998 92.7888 40.7691 92.9271C40.417 94.5362 39.4571 96.0051 38.0392 96.8661C37.8719 96.9694 37.6641 97.0142 37.4448 97.0317C37.0754 97.0609 36.6791 97.0122 36.3636 96.9713C34.8939 96.7862 33.4722 96.0012 32.997 94.4875C32.5603 93.1024 32.9663 91.2108 33.982 90.1822C34.2533 89.9076 34.4822 89.6835 34.7919 89.4731C34.8246 89.4537 34.9612 89.3407 34.9997 89.3095Z" fill="#232124"/>
<path fill-rule="evenodd" clip-rule="evenodd" d="M37.5103 91.3881C37.543 91.4135 37.5949 91.4563 37.6276 91.4914C37.745 91.62 37.8488 91.7816 37.8719 91.8323C38.0066 92.1518 37.9142 92.5083 37.7257 92.8083C37.5276 93.1258 37.2198 93.3849 36.9081 93.4765C36.6426 93.5525 36.2752 93.5564 35.9847 93.4375C35.8212 93.3713 35.6827 93.2661 35.6211 93.0985C35.5442 92.8921 35.5153 92.5258 35.6076 92.257C35.6461 92.142 35.7058 92.0407 35.827 92.031C35.9655 92.0193 36.0694 91.8946 36.0578 91.7524C36.0463 91.6102 35.9231 91.505 35.7846 91.5167C35.4518 91.5459 35.2364 91.7699 35.1267 92.0875C34.9978 92.4674 35.0363 92.9856 35.144 93.2797C35.2575 93.5856 35.498 93.794 35.7943 93.9148C36.1905 94.0765 36.6888 94.0745 37.0486 93.9713C37.466 93.8505 37.8892 93.5096 38.1547 93.083C38.4337 92.6388 38.5395 92.105 38.3375 91.6297C38.2932 91.5245 38.0201 91.1018 37.7757 90.944C37.5699 90.8135 37.3737 90.8232 37.2275 90.9712C37.1274 91.0725 37.1274 91.2362 37.2275 91.3355C37.3025 91.4135 37.416 91.431 37.5103 91.3881Z" fill="#232124"/>
<path fill-rule="evenodd" clip-rule="evenodd" d="M47.7718 76.8807C47.768 76.8788 47.7429 76.8671 47.7295 76.8593C47.6814 76.8281 47.6352 76.7853 47.5871 76.7385C47.4024 76.5534 47.2255 76.3021 47.1216 76.1969C46.2597 75.3262 45.6422 74.1943 44.9804 73.1657C42.7815 69.739 40.7673 66.1838 38.9609 62.5253C38.4627 61.5162 37.6239 60.6376 37.2526 59.5817C37.2064 59.4473 37.0602 59.3772 36.9275 59.424C36.7967 59.4727 36.7274 59.6187 36.7736 59.7532C37.1526 60.8285 37.999 61.7285 38.5069 62.7552C40.321 66.4312 42.3448 70.002 44.5552 73.4463C45.2343 74.506 45.8769 75.6651 46.7618 76.5612C46.8869 76.6879 47.1158 77.0171 47.339 77.2041C47.4852 77.3288 47.6371 77.395 47.766 77.395C47.9065 77.395 48.02 77.2801 48.02 77.1379C48.02 76.9996 47.9103 76.8846 47.7718 76.8807Z" fill="#232124"/>
<path fill-rule="evenodd" clip-rule="evenodd" d="M48.1412 76.8456C48.0181 76.8631 47.9238 76.9702 47.9238 77.1008C47.9238 77.243 48.0373 77.3579 48.1778 77.3579C48.2951 77.3579 48.4221 77.2975 48.5356 77.1767C48.6799 77.0228 48.8126 76.7482 48.8857 76.6196C49.2974 75.891 49.6302 75.0864 49.9823 74.3247C51.5328 70.9604 53.243 67.6526 54.7801 64.2668C55.3092 63.1018 55.769 61.8784 56.2461 60.6882C56.4827 60.0998 56.475 60.133 56.6654 59.531C56.7231 59.3459 56.8078 59.0381 56.8655 58.855C56.9021 58.8161 56.929 58.7654 56.9348 58.707C56.9578 58.5238 56.8751 58.444 56.8597 58.4284C56.7924 58.3641 56.7155 58.3446 56.6308 58.3641C56.5923 58.3719 56.5212 58.3914 56.4654 58.481C56.4269 58.5414 56.2711 59.0888 56.1807 59.3752C55.9979 59.9576 56.0037 59.9245 55.7747 60.4953C55.2996 61.6778 54.8436 62.8934 54.3184 64.0525C52.7813 67.4383 51.0711 70.7442 49.5225 74.1066C49.1762 74.8566 48.8492 75.6475 48.4452 76.3663C48.399 76.4443 48.3297 76.5904 48.247 76.717C48.2162 76.7637 48.1585 76.8261 48.1412 76.8456Z" fill="#232124"/>
<path fill-rule="evenodd" clip-rule="evenodd" d="M46.8444 69.5676C47.258 72.0592 47.5235 74.6112 47.8005 77.1204C47.8159 77.2606 47.9409 77.3639 48.0794 77.3483C48.2199 77.3327 48.3199 77.2041 48.3045 77.0639C48.0275 74.545 47.762 71.9833 47.3445 69.4819C47.3215 69.3417 47.1906 69.2482 47.0521 69.2716C46.9136 69.2949 46.8193 69.4274 46.8444 69.5676Z" fill="#232124"/>
<path fill-rule="evenodd" clip-rule="evenodd" d="M35.3134 58.7284C35.1152 58.6992 34.8267 58.7907 34.515 58.9699C33.9302 59.305 33.2165 59.9401 32.9183 60.1174C30.9214 61.3076 28.4667 62.3616 26.2717 63.1018C23.8073 63.9337 20.6485 64.485 18.5323 66.0941C12.6975 70.526 8.4056 80.2976 5.12364 86.7379C3.90974 89.1185 3.06519 91.7153 1.78011 94.0569C1.47808 94.6043 1.07793 95.2335 0.808605 95.8881C0.518116 96.5952 0.381539 97.3316 0.627782 98.0407C1.21453 99.7258 2.38803 100.891 3.77892 101.814C5.13325 102.712 6.69344 103.378 8.09587 104.09C12.5994 106.369 17.6878 108.108 22.7877 108.108C22.9281 108.108 23.0416 107.993 23.0416 107.851C23.0416 107.709 22.9281 107.594 22.7877 107.594C17.7647 107.594 12.7591 105.874 8.32479 103.63C6.93775 102.928 5.39489 102.27 4.05786 101.384C2.75932 100.523 1.65507 99.4414 1.10679 97.8693C0.90287 97.281 1.03562 96.6732 1.27801 96.0868C1.53965 95.4498 1.93209 94.84 2.22258 94.3082C3.51151 91.9607 4.35989 89.36 5.57379 86.9736C8.82689 80.5917 13.0553 70.8961 18.8363 66.5051C20.912 64.9272 24.017 64.4051 26.4313 63.5908C28.6591 62.8388 31.1503 61.7674 33.1742 60.5615C33.4339 60.4076 33.9975 59.9187 34.5227 59.568C34.7132 59.4414 34.8979 59.3323 35.0575 59.2739C35.1268 59.2485 35.1883 59.231 35.2403 59.2388C35.3788 59.2583 35.5077 59.1609 35.5289 59.0206C35.5481 58.8803 35.4519 58.7498 35.3134 58.7284Z" fill="#232124"/>
<path fill-rule="evenodd" clip-rule="evenodd" d="M18.3613 67.3995C18.8441 68.845 19.808 70.0158 20.337 71.4204C20.9257 72.9827 21.1738 74.6639 21.6259 76.2652C21.6644 76.4016 21.8048 76.4815 21.9395 76.4425C22.0742 76.4036 22.153 76.2613 22.1145 76.125C21.6586 74.5081 21.4047 72.8132 20.8122 71.2372C20.2851 69.8385 19.3232 68.6736 18.8422 67.2339C18.798 67.0995 18.6537 67.0274 18.5209 67.0722C18.3882 67.117 18.317 67.2631 18.3613 67.3995Z" fill="#232124"/>
<path fill-rule="evenodd" clip-rule="evenodd" d="M59.5224 59.6594C62.1041 61.3348 65.0705 61.8218 67.8888 62.903C70.0666 63.7407 72.4136 64.705 74.4374 65.8933C80.8531 69.655 84.5122 78.3084 87.1804 84.9572C87.9249 86.8157 89.437 88.9352 90.5143 91.0937C91.5493 93.1664 92.1938 95.2743 91.2376 97.2107C89.6775 100.369 85.5702 104.422 82.4422 106.008C81.7362 106.365 80.8724 106.649 80.2433 107.126C79.5642 107.641 77.6885 108.023 76.4804 108.36C76.0918 108.469 75.7686 108.574 75.5608 108.673C75.4435 108.73 75.3589 108.788 75.3031 108.845C75.205 108.944 75.205 109.108 75.3031 109.207C75.4031 109.308 75.5628 109.308 75.6628 109.207C75.7167 109.154 75.834 109.108 75.9898 109.051C76.288 108.942 76.7093 108.827 77.1787 108.704C78.4042 108.385 79.9355 108.003 80.5492 107.537C81.1532 107.078 81.9882 106.813 82.6692 106.468C85.88 104.843 90.093 100.68 91.6917 97.4406C92.5189 95.7672 92.2707 93.973 91.5589 92.1749C90.5355 89.5859 88.5424 86.9871 87.6498 84.7644C84.945 78.0182 81.2013 69.2635 74.6932 65.4472C72.6444 64.2472 70.2724 63.2692 68.0697 62.4218C65.2841 61.3523 62.3484 60.8828 59.7955 59.225C59.6782 59.149 59.5204 59.1841 59.4454 59.3029C59.3704 59.4237 59.4031 59.5835 59.5224 59.6594Z" fill="#232124"/>
<path fill-rule="evenodd" clip-rule="evenodd" d="M76.8573 67.8962C76.3359 68.1144 75.853 68.5878 75.4144 69.1586C74.7988 69.9592 74.2698 70.9508 73.8196 71.5898C73.7369 71.7047 73.7638 71.8664 73.8773 71.9482C73.9927 72.032 74.1505 72.0047 74.2313 71.8878C74.6795 71.2547 75.2047 70.269 75.8146 69.4741C76.1935 68.9813 76.6014 68.5605 77.0515 68.3715C77.1804 68.3189 77.242 68.167 77.1881 68.0365C77.1362 67.9059 76.9861 67.8436 76.8573 67.8962Z" fill="#232124"/>
<path fill-rule="evenodd" clip-rule="evenodd" d="M75.9204 103.652C81.9168 100.883 86.7878 97.2326 91.3741 92.5884C91.4722 92.4871 91.4722 92.3234 91.3741 92.2241C91.276 92.1228 91.1144 92.1228 91.0143 92.2241C86.4723 96.8235 81.6494 100.441 75.7107 103.182C75.5818 103.242 75.526 103.394 75.5838 103.523C75.6434 103.653 75.7935 103.71 75.9204 103.652Z" fill="#232124"/>
<path fill-rule="evenodd" clip-rule="evenodd" d="M3.56179 93.3985C3.54832 93.3206 3.50023 93.2524 3.42713 93.2134C3.30208 93.1491 3.14818 93.1998 3.0847 93.3244C3.05777 93.3809 3.04238 93.4511 3.06546 93.5368C3.07893 93.5894 3.11739 93.6673 3.18857 93.753C3.41942 94.0277 4.09853 94.5537 4.22934 94.6491C5.02386 95.2219 5.62215 96.0615 6.4513 96.6206C6.75526 96.8271 7.09576 96.9752 7.40548 97.1739C12.238 100.287 17.084 102.66 22.8611 102.66C23.0015 102.66 23.115 102.545 23.115 102.403C23.115 102.26 23.0015 102.145 22.8611 102.145C17.184 102.145 12.4265 99.7999 7.67673 96.7395C7.37085 96.5427 7.0342 96.3966 6.73216 96.194C5.90879 95.6368 5.31434 94.8011 4.52559 94.2303C4.4294 94.1602 4.01771 93.8446 3.74261 93.5894C3.67143 93.5232 3.59449 93.4355 3.56179 93.3985Z" fill="#232124"/>
<path fill-rule="evenodd" clip-rule="evenodd" d="M23.4997 93.0266C23.3766 111.296 21.2412 129.633 21.2412 147.871C21.2412 148.011 21.3547 148.128 21.4952 148.128C21.6356 148.128 21.7491 148.011 21.7491 147.871C21.7491 129.635 23.8845 111.298 24.0076 93.0305C24.0076 92.8883 23.8941 92.7734 23.7556 92.7715C23.6151 92.7715 23.4997 92.8844 23.4997 93.0266Z" fill="#232124"/>
<path fill-rule="evenodd" clip-rule="evenodd" d="M75.0626 93.2917C74.7375 99.8957 75.1857 106.607 75.1857 113.226C75.1857 118.578 74.6586 124.159 75.1857 129.497C75.7898 135.602 76.0514 141.844 76.0514 147.998C76.0514 148.14 76.1669 148.255 76.3054 148.255C76.4458 148.255 76.5612 148.14 76.5612 147.998C76.5612 141.828 76.2957 135.569 75.6917 129.444C75.1665 124.124 75.6936 118.562 75.6936 113.226C75.6936 106.615 75.2454 99.9132 75.5705 93.317C75.5782 93.1748 75.4704 93.054 75.33 93.0462C75.1896 93.0404 75.0703 93.1495 75.0626 93.2917Z" fill="#232124"/>
</svg>
