<svg width="42" height="42" viewBox="0 0 42 42" fill="none" xmlns="http://www.w3.org/2000/svg">
<path d="M20.7752 19.153C25.9285 19.153 30.1061 14.9754 30.1061 9.8221C30.1061 4.66879 25.9285 0.491211 20.7752 0.491211C15.6219 0.491211 11.4443 4.66879 11.4443 9.8221C11.4443 14.9754 15.6219 19.153 20.7752 19.153Z" fill="#FFB300"/>
<path d="M20.7752 16.5337C24.4819 16.5337 27.4869 13.5288 27.4869 9.82204C27.4869 6.11528 24.4819 3.11035 20.7752 3.11035C17.0684 3.11035 14.0635 6.11528 14.0635 9.82204C14.0635 13.5288 17.0684 16.5337 20.7752 16.5337Z" fill="#FFA000"/>
<path d="M38.1906 13.338L37.7378 13.0761C38.604 11.6411 38.9398 9.94792 38.6868 8.29097C38.4337 6.63402 37.6079 5.1182 36.3529 4.00714C36.1654 3.838 35.9202 3.74713 35.6678 3.75322C35.4154 3.75931 35.1749 3.8619 34.9958 4.03988L33.9629 5.07479C33.8678 5.1693 33.7932 5.28232 33.7437 5.40684C33.6941 5.53137 33.6707 5.66474 33.6748 5.7987C33.6789 5.93266 33.7105 6.06434 33.7676 6.18559C33.8247 6.30684 33.9061 6.41507 34.0067 6.50357C34.6753 7.10477 35.1191 7.91587 35.265 8.80314C35.4108 9.6904 35.2499 10.6009 34.8089 11.3844L34.3557 11.1225C34.225 11.0471 34.0753 11.0109 33.9246 11.0183C33.7738 11.0257 33.6284 11.0763 33.5056 11.1642C33.3829 11.252 33.2881 11.3734 33.2325 11.5137C33.1769 11.654 33.1629 11.8074 33.1922 11.9554L33.8443 15.2569C33.8661 15.3668 33.911 15.4707 33.9762 15.5618C34.0414 15.6528 34.1253 15.7289 34.2223 15.7849C34.3192 15.8409 34.4271 15.8755 34.5385 15.8864C34.6499 15.8973 34.7624 15.8843 34.8684 15.8482L38.0511 14.7642C38.1945 14.7158 38.3208 14.627 38.415 14.5085C38.5091 14.39 38.567 14.2468 38.5818 14.0962C38.5965 13.9456 38.5674 13.7939 38.498 13.6594C38.4286 13.5249 38.3219 13.4133 38.1906 13.338Z" fill="#8BC34A"/>
<path d="M3.36007 6.30603L3.81286 6.56795C2.94664 8.00293 2.61085 9.69615 2.86387 11.3531C3.1169 13.01 3.94275 14.5259 5.19776 15.6369C5.38523 15.8061 5.63039 15.8969 5.88282 15.8909C6.13524 15.8848 6.37574 15.7822 6.55483 15.6042L7.58778 14.5693C7.68281 14.4748 7.75741 14.3618 7.80696 14.2372C7.85651 14.1127 7.87996 13.9793 7.87584 13.8454C7.87173 13.7114 7.84015 13.5797 7.78305 13.4585C7.72595 13.3372 7.64455 13.229 7.54391 13.1405C6.87528 12.5393 6.43148 11.7282 6.28567 10.8409C6.13985 9.95367 6.30073 9.0432 6.74178 8.25963L7.1949 8.52155C7.32563 8.59698 7.47532 8.63317 7.62607 8.62579C7.77682 8.61841 7.92226 8.56776 8.04498 8.47991C8.16772 8.39206 8.26255 8.27072 8.31814 8.1304C8.37373 7.99008 8.38774 7.83671 8.35848 7.68864L7.7063 4.38878C7.68452 4.27896 7.63953 4.17506 7.57433 4.08405C7.50913 3.99303 7.42524 3.917 7.32827 3.86104C7.2313 3.80508 7.12349 3.7705 7.01206 3.75959C6.90064 3.74869 6.78817 3.76173 6.68219 3.79783L3.49954 4.88152C3.35658 4.93017 3.23067 5.01898 3.13687 5.13732C3.04307 5.25567 2.98537 5.39853 2.97065 5.54882C2.95594 5.69911 2.98484 5.85046 3.0539 5.98475C3.12296 6.11904 3.22926 6.23058 3.36007 6.30603Z" fill="#8BC34A"/>
<path d="M4.07812 22.7542V38.4694C4.07812 39.2508 4.38857 40.0003 4.94116 40.5529C5.49376 41.1055 6.24324 41.416 7.02472 41.416H34.5263C35.3078 41.416 36.0573 41.1055 36.6099 40.5529C37.1624 40.0003 37.4729 39.2508 37.4729 38.4694V22.7542C37.4729 22.4937 37.3694 22.2438 37.1852 22.0597C37.001 21.8755 36.7512 21.772 36.4907 21.772H5.06032C4.79983 21.772 4.55 21.8755 4.3658 22.0597C4.18161 22.2438 4.07812 22.4937 4.07812 22.7542Z" fill="#FFC107"/>
<path d="M26.0137 21.772V41.416H34.5261C35.3076 41.416 36.057 41.1055 36.6096 40.5529C37.1622 40.0003 37.4727 39.2508 37.4727 38.4694V22.7542C37.4727 22.4937 37.3692 22.2438 37.185 22.0597C37.0008 21.8755 36.751 21.772 36.4905 21.772H26.0137Z" fill="#FFB300"/>
<path d="M0.744316 25.7221L3.48858 22.4693C3.67298 22.2509 3.90284 22.0753 4.16211 21.9548C4.42138 21.8344 4.70382 21.772 4.98971 21.772H26.0137L22.1995 26.2917C21.9229 26.6194 21.578 26.8828 21.1891 27.0635C20.8002 27.2442 20.3765 27.3378 19.9476 27.3378H1.49472C1.30752 27.3377 1.12424 27.2842 0.966448 27.1835C0.808658 27.0828 0.682934 26.9391 0.604083 26.7693C0.525233 26.5995 0.496541 26.4107 0.521385 26.2252C0.546229 26.0397 0.623576 25.8651 0.744316 25.7221Z" fill="#FFD54F"/>
<path d="M40.8062 25.7221L38.062 22.4693C37.8776 22.2509 37.6477 22.0753 37.3884 21.9548C37.1292 21.8344 36.8467 21.772 36.5609 21.772H26.0137L29.8279 26.2917C30.1045 26.6194 30.4493 26.8828 30.8382 27.0635C31.2272 27.2442 31.6509 27.3378 32.0797 27.3378H40.0558C40.243 27.3377 40.4263 27.2842 40.5841 27.1835C40.7419 27.0828 40.8676 26.9391 40.9465 26.7693C41.0253 26.5995 41.054 26.4107 41.0292 26.2252C41.0043 26.0397 40.927 25.8651 40.8062 25.7221Z" fill="#FFC107"/>
<path d="M11.7717 35.8503H7.51551C7.24429 35.8503 7.02441 36.0702 7.02441 36.3414V37.9784C7.02441 38.2497 7.24429 38.4695 7.51551 38.4695H11.7717C12.0429 38.4695 12.2628 38.2497 12.2628 37.9784V36.3414C12.2628 36.0702 12.0429 35.8503 11.7717 35.8503Z" fill="white"/>
<path d="M20.7751 19.644C22.7177 19.644 24.6167 19.0679 26.2319 17.9887C27.8471 16.9094 29.106 15.3754 29.8495 13.5807C30.5929 11.786 30.7874 9.8111 30.4084 7.90582C30.0294 6.00054 29.0939 4.25043 27.7203 2.8768C26.3467 1.50317 24.5966 0.567715 22.6913 0.188731C20.786 -0.190252 18.8111 0.00425573 17.0164 0.747659C15.2217 1.49106 13.6877 2.74997 12.6084 4.36519C11.5292 5.98041 10.9531 7.87939 10.9531 9.82199C10.9561 12.426 11.9918 14.9226 13.8332 16.7639C15.6745 18.6053 18.1711 19.641 20.7751 19.644ZM20.7751 0.982203C22.5235 0.982203 24.2325 1.50065 25.6862 2.47198C27.1399 3.44331 28.273 4.82389 28.942 6.43915C29.6111 8.05441 29.7861 9.8318 29.4451 11.5466C29.104 13.2613 28.2621 14.8364 27.0258 16.0727C25.7895 17.3089 24.2144 18.1508 22.4997 18.4919C20.7849 18.833 19.0075 18.658 17.3923 17.9889C15.777 17.3198 14.3964 16.1868 13.4251 14.7331C12.4538 13.2794 11.9353 11.5703 11.9353 9.82199C11.9379 7.47833 12.8701 5.23141 14.5273 3.57419C16.1845 1.91697 18.4315 0.984803 20.7751 0.982203Z" fill="black"/>
<path d="M20.7751 17.0247C22.1996 17.0247 23.5922 16.6023 24.7767 15.8108C25.9612 15.0194 26.8844 13.8945 27.4296 12.5783C27.9747 11.2622 28.1174 9.81395 27.8395 8.41674C27.5615 7.01954 26.8755 5.73612 25.8682 4.72879C24.8609 3.72146 23.5775 3.03546 22.1803 2.75754C20.783 2.47962 19.3348 2.62226 18.0187 3.16742C16.7025 3.71259 15.5776 4.63579 14.7862 5.82028C13.9947 7.00477 13.5723 8.39736 13.5723 9.82194C13.5744 11.7316 14.334 13.5624 15.6843 14.9127C17.0346 16.263 18.8654 17.0226 20.7751 17.0247ZM20.7751 3.60134C22.0054 3.60134 23.2081 3.96617 24.231 4.6497C25.254 5.33323 26.0513 6.30475 26.5221 7.44142C26.993 8.57808 27.1161 9.82884 26.8761 11.0355C26.6361 12.2422 26.0436 13.3506 25.1737 14.2206C24.3037 15.0905 23.1953 15.683 21.9886 15.923C20.782 16.163 19.5312 16.0398 18.3945 15.569C17.2579 15.0982 16.2864 14.3009 15.6028 13.2779C14.9193 12.2549 14.5545 11.0523 14.5545 9.82194C14.5563 8.17269 15.2123 6.59152 16.3784 5.42532C17.5446 4.25913 19.1258 3.60316 20.7751 3.60134Z" fill="black"/>
<path d="M21.0325 11.9033H20.2608C20.1182 11.9031 19.9815 11.8464 19.8807 11.7455C19.7798 11.6447 19.7231 11.508 19.7229 11.3654C19.7229 11.2351 19.6712 11.1102 19.5791 11.0181C19.487 10.926 19.3621 10.8743 19.2318 10.8743C19.1016 10.8743 18.9767 10.926 18.8846 11.0181C18.7925 11.1102 18.7407 11.2351 18.7407 11.3654C18.741 11.5669 18.7813 11.7663 18.8592 11.9521C18.9372 12.1379 19.0513 12.3064 19.1948 12.4478C19.3384 12.5892 19.5086 12.7007 19.6956 12.7759C19.8826 12.851 20.0826 12.8882 20.2841 12.8855V13.4234C20.2841 13.5536 20.3358 13.6785 20.4279 13.7706C20.52 13.8627 20.6449 13.9145 20.7752 13.9145C20.9054 13.9145 21.0303 13.8627 21.1224 13.7706C21.2145 13.6785 21.2663 13.5536 21.2663 13.4234V12.8668C21.7118 12.8059 22.1176 12.5784 22.4019 12.23C22.6861 11.8817 22.8277 11.4385 22.7981 10.9899C22.7684 10.5412 22.5697 10.1205 22.242 9.81264C21.9144 9.50475 21.4821 9.33259 21.0325 9.33089H20.5178C20.3098 9.32667 20.1116 9.24104 19.966 9.09239C19.8203 8.94375 19.7387 8.74392 19.7387 8.5358C19.7387 8.32768 19.8203 8.12785 19.966 7.9792C20.1116 7.83055 20.3098 7.74493 20.5178 7.74071H21.2895C21.4321 7.74088 21.5689 7.79761 21.6697 7.89845C21.7705 7.99929 21.8273 8.13601 21.8274 8.27863C21.8274 8.40887 21.8792 8.53379 21.9713 8.62589C22.0634 8.71798 22.1883 8.76973 22.3185 8.76973C22.4488 8.76973 22.5737 8.71798 22.6658 8.62589C22.7579 8.53379 22.8096 8.40887 22.8096 8.27863C22.8093 8.07713 22.769 7.8777 22.691 7.6919C22.6131 7.5061 22.499 7.33762 22.3554 7.19623C22.2119 7.05484 22.0417 6.94334 21.8547 6.8682C21.6678 6.79306 21.4678 6.75578 21.2663 6.75851V6.22059C21.2663 6.09034 21.2145 5.96543 21.1224 5.87333C21.0303 5.78123 20.9054 5.72949 20.7752 5.72949C20.6449 5.72949 20.52 5.78123 20.4279 5.87333C20.3358 5.96543 20.2841 6.09034 20.2841 6.22059V6.77717C19.8386 6.83805 19.4328 7.06561 19.1485 7.41395C18.8642 7.76229 18.7226 8.20549 18.7523 8.65412C18.782 9.10276 18.9807 9.52346 19.3083 9.83134C19.636 10.1392 20.0682 10.3114 20.5178 10.3131H21.0325C21.2406 10.3173 21.4387 10.4029 21.5844 10.5516C21.7301 10.7002 21.8116 10.9001 21.8116 11.1082C21.8116 11.3163 21.7301 11.5161 21.5844 11.6648C21.4387 11.8134 21.2406 11.899 21.0325 11.9033Z" fill="black"/>
<path d="M33.3626 15.3509C33.3992 15.5288 33.4731 15.6968 33.5794 15.844C33.6856 15.9912 33.8219 16.1142 33.9791 16.205C34.1364 16.2957 34.3111 16.3521 34.4917 16.3705C34.6723 16.3889 34.8548 16.3688 35.0271 16.3115L38.21 15.2275C38.4454 15.1475 38.6523 15.0006 38.8054 14.8047C38.9584 14.6088 39.0509 14.3725 39.0716 14.1248C39.0923 13.8771 39.0402 13.6287 38.9218 13.4102C38.8033 13.1916 38.6237 13.0124 38.4048 12.8945C39.1844 11.3798 39.4381 9.6489 39.1261 7.97422C38.8141 6.29953 37.9541 4.77614 36.6814 3.64379C36.4005 3.39036 36.033 3.25447 35.6548 3.26416C35.2765 3.27384 34.9165 3.42837 34.6489 3.69585L33.6156 4.72879C33.4747 4.87051 33.3641 5.03937 33.2903 5.22512C33.2166 5.41088 33.1814 5.60967 33.1868 5.80944C33.1922 6.00922 33.2381 6.20582 33.3217 6.38733C33.4053 6.56884 33.5249 6.73148 33.6733 6.8654C34.1961 7.3359 34.5642 7.95367 34.7292 8.63742C34.8942 9.32116 34.8483 10.0388 34.5975 10.696C34.3849 10.5742 34.1418 10.5162 33.8972 10.5288C33.6526 10.5414 33.4167 10.6241 33.2178 10.7671C33.0188 10.91 32.8652 11.1072 32.7753 11.335C32.6853 11.5629 32.6628 11.8118 32.7104 12.0521L33.3626 15.3509ZM33.7914 11.5652C33.8375 11.5322 33.892 11.5132 33.9486 11.5104C34.0051 11.5076 34.0613 11.5212 34.1103 11.5495L34.5635 11.8114C34.6766 11.8757 34.8106 11.8928 34.9363 11.859C35.062 11.8251 35.1693 11.7431 35.2349 11.6307C35.7326 10.7511 35.9152 9.72809 35.7526 8.73067C35.59 7.73325 35.092 6.82115 34.3408 6.14512C34.288 6.10212 34.2449 6.04841 34.2143 5.98752C34.1837 5.92664 34.1664 5.85997 34.1635 5.7919C34.1606 5.72384 34.1722 5.65593 34.1974 5.59266C34.2227 5.52939 34.2611 5.4722 34.31 5.42485L35.3433 4.3919C35.4332 4.3024 35.554 4.25083 35.6808 4.24785C35.8076 4.24486 35.9307 4.29069 36.0246 4.37586C37.1922 5.41154 37.9606 6.82298 38.1969 8.36566C38.4332 9.90835 38.1225 11.4851 37.3185 12.8228C37.2848 12.8788 37.2626 12.941 37.2531 13.0057C37.2436 13.0704 37.247 13.1364 37.2632 13.1997C37.2794 13.2631 37.3079 13.3226 37.3473 13.3749C37.3866 13.4271 37.4359 13.471 37.4924 13.5041L37.9452 13.766C37.9942 13.7943 38.034 13.8361 38.0599 13.8864C38.0857 13.9367 38.0966 13.9934 38.0911 14.0498C38.0856 14.1061 38.064 14.1596 38.0289 14.204C37.9938 14.2484 37.9466 14.2817 37.8931 14.3L34.7105 15.384C34.6707 15.3976 34.6285 15.4024 34.5867 15.3983C34.545 15.3943 34.5045 15.3813 34.4682 15.3603C34.4318 15.3393 34.4003 15.3108 34.3759 15.2767C34.3514 15.2425 34.3346 15.2036 34.3264 15.1624L33.6749 11.8619C33.6626 11.8064 33.6672 11.7486 33.6879 11.6958C33.7087 11.6429 33.7447 11.5975 33.7914 11.5652Z" fill="black"/>
<path d="M4.86903 16.0003C5.15002 16.2536 5.51749 16.3894 5.89566 16.3797C6.27383 16.37 6.63386 16.2156 6.90152 15.9483L7.9348 14.9153C8.07566 14.7736 8.18629 14.6047 8.25997 14.419C8.33366 14.2332 8.36888 14.0344 8.36349 13.8347C8.3581 13.6349 8.31222 13.4383 8.22863 13.2568C8.14504 13.0753 8.02547 12.9127 7.87717 12.7787C7.35429 12.3082 6.98614 11.6905 6.82122 11.0067C6.65629 10.3229 6.70233 9.60523 6.95325 8.94813C7.16581 9.06978 7.40887 9.12773 7.65346 9.11508C7.89804 9.10243 8.13382 9.01971 8.33269 8.87677C8.53157 8.73384 8.68514 8.53672 8.7751 8.30893C8.86505 8.08114 8.8876 7.83229 8.84006 7.59204L8.18788 4.29349C8.15136 4.11559 8.07755 3.94746 7.97132 3.80017C7.86508 3.65288 7.72884 3.52978 7.57156 3.43899C7.41429 3.34819 7.23955 3.29176 7.05888 3.27342C6.8782 3.25507 6.69569 3.27524 6.52338 3.33257L3.34072 4.41659C3.10526 4.49639 2.89822 4.64319 2.745 4.83897C2.59178 5.03476 2.49905 5.27102 2.47819 5.51876C2.45733 5.7665 2.50925 6.01494 2.62758 6.23359C2.7459 6.45224 2.92548 6.6316 3.14428 6.74964C2.36485 8.26444 2.1113 9.99544 2.42354 11.6701C2.73578 13.3449 3.59609 14.8682 4.86903 16.0003ZM4.23191 6.8233C4.26565 6.76727 4.28792 6.70509 4.29745 6.64037C4.30697 6.57566 4.30354 6.50969 4.28737 6.44631C4.2712 6.38293 4.2426 6.32339 4.20323 6.27115C4.16387 6.21891 4.11452 6.17501 4.05806 6.14199L3.60526 5.88007C3.55627 5.85174 3.51648 5.80991 3.49063 5.75958C3.46478 5.70924 3.45397 5.65252 3.45949 5.5962C3.46502 5.53989 3.48664 5.48635 3.52178 5.44199C3.55692 5.39764 3.60409 5.36434 3.65765 5.34608L6.8403 4.26206C6.88003 4.24858 6.92217 4.24373 6.96392 4.24785C7.00567 4.25197 7.04605 4.26495 7.08238 4.28594C7.11871 4.30692 7.15013 4.33542 7.17456 4.36952C7.19898 4.40363 7.21584 4.44256 7.22401 4.48371L7.87554 7.78226C7.8866 7.83782 7.88141 7.89539 7.8606 7.94808C7.83978 8.00077 7.80421 8.04634 7.75816 8.07934C7.71211 8.11233 7.65752 8.13135 7.60093 8.13411C7.54435 8.13688 7.48816 8.12327 7.43911 8.09493L6.98599 7.83301C6.87293 7.76854 6.73898 7.75132 6.61329 7.78511C6.4876 7.81889 6.38033 7.90094 6.31482 8.0134C5.81723 8.89296 5.6346 9.91596 5.79711 10.9134C5.95963 11.9108 6.45756 12.8229 7.20862 13.499C7.26142 13.542 7.3045 13.5957 7.33503 13.6566C7.36556 13.7175 7.38285 13.7842 7.38575 13.8522C7.38866 13.9203 7.37712 13.9882 7.3519 14.0514C7.32667 14.1147 7.28833 14.1719 7.2394 14.2193L6.2058 15.2538C6.1159 15.3433 5.99511 15.3948 5.86834 15.3978C5.74157 15.4008 5.61849 15.355 5.52448 15.2699C4.35726 14.2341 3.58909 12.8226 3.35302 11.28C3.11696 9.73739 3.42787 8.1608 4.23191 6.8233Z" fill="black"/>
<path d="M1.49464 27.829H3.58672V38.4695C3.58776 39.3809 3.95028 40.2547 4.59475 40.8992C5.23922 41.5436 6.11301 41.9061 7.02442 41.9072H34.526C35.4374 41.9061 36.3112 41.5436 36.9557 40.8992C37.6001 40.2547 37.9627 39.3809 37.9637 38.4695V27.829H40.0558C40.3364 27.8289 40.6112 27.7486 40.8478 27.5976C41.0844 27.4466 41.2729 27.2311 41.3912 26.9766C41.5095 26.7221 41.5526 26.4391 41.5155 26.1609C41.4784 25.8827 41.3626 25.6209 41.1817 25.4062L38.4365 22.1535C38.2063 21.88 37.919 21.6602 37.5949 21.5095C37.2708 21.3588 36.9176 21.2808 36.5601 21.281H4.99029C4.63288 21.2807 4.27973 21.3586 3.9556 21.5092C3.63147 21.6598 3.34421 21.8795 3.11396 22.1529L0.368713 25.4062C0.187838 25.6209 0.0720289 25.8827 0.0349129 26.1609C-0.00220318 26.4391 0.0409187 26.7221 0.159204 26.9766C0.277489 27.2311 0.466015 27.4466 0.702597 27.5976C0.93918 27.7486 1.21397 27.8289 1.49464 27.829ZM36.5591 22.2632C36.7736 22.2631 36.9855 22.3099 37.18 22.4004C37.3744 22.4909 37.5467 22.6229 37.6847 22.787L40.43 26.0394C40.4902 26.1109 40.5287 26.1981 40.5411 26.2907C40.5534 26.3833 40.5391 26.4775 40.4999 26.5622C40.4606 26.647 40.3979 26.7188 40.3193 26.7692C40.2406 26.8196 40.1492 26.8465 40.0558 26.8468H32.0797C31.7224 26.847 31.3694 26.7691 31.0455 26.6185C30.7215 26.4679 30.4344 26.2482 30.2043 25.9749L27.0708 22.2632H36.5591ZM26.5047 23.1144L29.4513 26.6075C29.7737 26.9905 30.1761 27.2984 30.6302 27.5094C31.0842 27.7204 31.579 27.8295 32.0797 27.829H36.9815V38.4695C36.9808 39.1205 36.7219 39.7447 36.2615 40.205C35.8012 40.6654 35.177 40.9243 34.526 40.925H26.5047V23.1144ZM25.5225 40.925H7.02442C6.37339 40.9243 5.74923 40.6654 5.28889 40.205C4.82854 39.7447 4.56962 39.1205 4.56892 38.4695V27.829H19.9475C20.4482 27.8296 20.9429 27.7207 21.3969 27.5099C21.851 27.299 22.2534 26.9913 22.5759 26.6085L25.5225 23.1154V40.925ZM1.11944 26.0388L3.86469 22.787C4.00273 22.6229 4.17502 22.491 4.36947 22.4005C4.56392 22.31 4.77581 22.2631 4.99029 22.2632H24.9564L21.8229 25.9749C21.5927 26.2482 21.3056 26.4678 20.9817 26.6184C20.6577 26.769 20.3048 26.847 19.9475 26.8468H1.49464C1.40101 26.8468 1.30934 26.8201 1.23041 26.7697C1.15148 26.7193 1.0886 26.6474 1.04917 26.5625C1.00974 26.4776 0.995403 26.3832 1.00785 26.2904C1.0203 26.1976 1.05902 26.1103 1.11944 26.0388Z" fill="black"/>
<path d="M23.2307 37.8147H20.2841C20.1538 37.8147 20.0289 37.8664 19.9368 37.9585C19.8447 38.0506 19.793 38.1755 19.793 38.3058C19.793 38.436 19.8447 38.561 19.9368 38.6531C20.0289 38.7452 20.1538 38.7969 20.2841 38.7969H23.2307C23.3609 38.7969 23.4858 38.7452 23.5779 38.6531C23.67 38.561 23.7218 38.436 23.7218 38.3058C23.7218 38.1755 23.67 38.0506 23.5779 37.9585C23.4858 37.8664 23.3609 37.8147 23.2307 37.8147Z" fill="black"/>
<path d="M19.793 35.6867C19.793 35.8169 19.8447 35.9418 19.9368 36.0339C20.0289 36.126 20.1538 36.1778 20.2841 36.1778H23.2307C23.3609 36.1778 23.4858 36.126 23.5779 36.0339C23.67 35.9418 23.7218 35.8169 23.7218 35.6867C23.7218 35.5564 23.67 35.4315 23.5779 35.3394C23.4858 35.2473 23.3609 35.1956 23.2307 35.1956H20.2841C20.1538 35.1956 20.0289 35.2473 19.9368 35.3394C19.8447 35.4315 19.793 35.5564 19.793 35.6867Z" fill="black"/>
<path d="M11.7716 35.3591H7.5154C7.25491 35.3591 7.00508 35.4626 6.82088 35.6468C6.63668 35.831 6.5332 36.0808 6.5332 36.3413V37.9783C6.5332 38.2388 6.63668 38.4887 6.82088 38.6728C7.00508 38.857 7.25491 38.9605 7.5154 38.9605H11.7716C12.0321 38.9605 12.2819 38.857 12.4661 38.6728C12.6503 38.4887 12.7538 38.2388 12.7538 37.9783V36.3413C12.7538 36.0808 12.6503 35.831 12.4661 35.6468C12.2819 35.4626 12.0321 35.3591 11.7716 35.3591ZM7.5154 37.9783V36.3413H11.7716V37.9783H7.5154Z" fill="black"/>
</svg>
