<svg width="24" height="24" viewBox="0 0 24 24" fill="none" xmlns="http://www.w3.org/2000/svg">
<g clip-path="url(#clip0_2107_3519)">
<path d="M12.8448 10.8315L15.8831 8.8059C16.9851 8.07125 17.647 6.83446 17.647 5.51008V1.5083H5.40363V5.51008C5.40363 6.83446 6.06555 8.07125 7.16753 8.8059L10.2059 10.8315C10.5803 11.0811 10.8052 11.5012 10.8052 11.9512C10.8052 12.4011 10.5803 12.8213 10.2059 13.0709L7.16753 15.0964C6.06555 15.8311 5.40363 17.0679 5.40363 18.3923V22.3941H17.647V18.3923C17.647 17.0678 16.9851 15.8311 15.8831 15.0964L12.8447 13.0709C12.4703 12.8213 12.2455 12.4011 12.2455 11.9512C12.2455 11.5013 12.4704 11.0811 12.8448 10.8315Z" fill="#EAF3FF"/>
<path d="M17.647 3.30881V1.5083H5.40363V5.51008C5.40363 6.83446 6.0655 8.07125 7.16748 8.80586L10.1778 10.8127C10.4053 10.9644 10.5971 11.1724 10.7005 11.4256C10.9563 12.0517 10.7246 12.725 10.2059 13.0708L7.16753 15.0964C6.06555 15.8311 5.40363 17.0678 5.40363 18.3922V22.394H9.71666V18.3922C9.71666 17.0678 9.94352 15.8311 10.3212 15.0964L11.3626 13.0708C11.4909 12.8212 11.568 12.4011 11.568 11.9512C11.568 11.5012 11.4909 11.081 11.3626 10.8314L10.3212 8.80586C9.94352 8.07121 9.71666 6.83442 9.71666 5.51003V4.3891C9.71666 3.79244 10.2003 3.30881 10.7969 3.30881H17.647Z" fill="#D5EAFF"/>
<path d="M16.8076 18.007L13.2947 16.3941C12.6553 16.1006 12.2455 15.4615 12.2455 14.7579V11.9513C12.2455 11.5014 12.4704 11.0812 12.8448 10.8316L15.8831 8.80603C16.4685 8.4158 16.9247 7.8815 17.2285 7.27002H5.82212C6.12588 7.8815 6.58211 8.4158 7.16748 8.80603L10.2059 10.8316C10.5802 11.0812 10.8051 11.5014 10.8051 11.9513V14.7579C10.8051 15.4614 10.3953 16.1006 9.75588 16.3941L5.40363 19.316V22.3942H17.647V19.316C17.647 18.7532 17.3192 18.2419 16.8076 18.007Z" fill="#FFD18D"/>
<path d="M10.8051 11.9513V14.1553L11.3626 13.071C11.4909 12.8214 11.568 12.4013 11.568 11.9513C11.568 11.5014 11.4909 11.0812 11.3626 10.8316L10.3212 8.80603C10.1206 8.4158 9.96421 7.8815 9.86008 7.27002H5.82214C6.12591 7.8815 6.58213 8.4158 7.16751 8.80603L10.2059 10.8316C10.5802 11.0811 10.8051 11.5013 10.8051 11.9513Z" fill="#FBBD80"/>
<path d="M17.647 20.5933H10.7969C10.2003 20.5933 9.71666 20.1097 9.71666 19.513V18.3921C9.71666 17.6404 9.79186 16.9207 9.92411 16.3013C9.86935 16.3339 9.81468 16.3668 9.75588 16.3938L6.24299 18.0066C5.73147 18.2415 5.40363 18.7528 5.40363 19.3156V22.3938H17.647V20.5933Z" fill="#FBBD80"/>
<path d="M17.647 23.1142H5.4036C5.00586 23.1142 4.68341 22.7918 4.68341 22.394C4.68341 21.9963 5.00586 21.6738 5.4036 21.6738H17.647C18.0447 21.6738 18.3672 21.9963 18.3672 22.394C18.3672 22.7918 18.0447 23.1142 17.647 23.1142Z" fill="#E29A6C"/>
<path d="M17.647 2.22846H5.4036C5.00586 2.22846 4.68341 1.90601 4.68341 1.50827C4.68341 1.11054 5.00586 0.788086 5.4036 0.788086H17.647C18.0447 0.788086 18.3672 1.11054 18.3672 1.50827C18.3672 1.90601 18.0447 2.22846 17.647 2.22846Z" fill="#E29A6C"/>
<path d="M8.64449 0.788086H5.4036C5.00586 0.788086 4.68341 1.11054 4.68341 1.50827C4.68341 1.90601 5.0059 2.22846 5.4036 2.22846H8.64449V0.788086Z" fill="#D48C64"/>
<path d="M8.64449 21.6738H5.4036C5.00586 21.6738 4.68341 21.9963 4.68341 22.394C4.68341 22.7918 5.0059 23.1142 5.4036 23.1142H8.64449V21.6738Z" fill="#D48C64"/>
<path d="M17.9839 21.3923V18.3923C17.9839 16.952 17.2684 15.6151 16.07 14.8162L13.0316 12.7905C12.7503 12.603 12.5824 12.2893 12.5824 11.9512C12.5824 11.6131 12.7503 11.2993 13.0316 11.1118L16.07 9.08623C17.2684 8.28725 17.9839 6.95042 17.9839 5.51009V2.51003C18.402 2.36902 18.7041 1.97339 18.7041 1.50827C18.7041 0.925412 18.2299 0.451172 17.6469 0.451172H5.40358C4.82068 0.451172 4.34644 0.925412 4.34644 1.50827C4.34644 1.97339 4.64849 2.36898 5.06662 2.51003V5.51005C5.06662 6.95038 5.78209 8.28725 6.98052 9.08619L10.0189 11.1118C10.3002 11.2993 10.4681 11.6131 10.4681 11.9512C10.4681 12.2893 10.3002 12.603 10.0189 12.7905L6.98052 14.8161C5.78209 15.6151 5.06662 16.9519 5.06662 18.3923V21.3923C4.64849 21.5333 4.34644 21.9289 4.34644 22.394C4.34644 22.9769 4.82068 23.4511 5.40354 23.4511H17.6469C18.2299 23.4511 18.7041 22.9769 18.7041 22.394C18.7041 21.9289 18.402 21.5334 17.9839 21.3923ZM12.6578 13.3512L15.6962 15.3768C16.5676 15.9578 17.1358 16.876 17.2759 17.8966C17.1751 17.8206 17.0656 17.7546 16.9481 17.7007L13.4353 16.0878C12.9171 15.8499 12.5824 15.3279 12.5824 14.7577V13.2974C12.607 13.3159 12.632 13.334 12.6578 13.3512ZM5.40358 1.125H17.647C17.8584 1.125 18.0303 1.29696 18.0303 1.50827C18.0303 1.71959 17.8583 1.89155 17.647 1.89155H16.2066C16.0205 1.89155 15.8697 2.04239 15.8697 2.22846C15.8697 2.41453 16.0205 2.56537 16.2066 2.56537H17.3101V5.51005C17.3101 6.00738 17.2088 6.49002 17.0199 6.93295H6.03065C5.84175 6.49002 5.74045 6.00738 5.74045 5.51005V2.56537H14.7661C14.9522 2.56537 15.103 2.41453 15.103 2.22846C15.103 2.04239 14.9522 1.89155 14.7661 1.89155H5.40358C5.19222 1.89155 5.02031 1.71959 5.02031 1.50827C5.02031 1.29696 5.19222 1.125 5.40358 1.125ZM7.35431 15.3768L10.3927 13.3512C10.4185 13.334 10.4435 13.3159 10.4682 13.2974V14.7577C10.4682 15.3278 10.1334 15.8499 9.61528 16.0878L9.2241 16.2674C9.05497 16.3451 8.98085 16.5451 9.05847 16.7141C9.11521 16.8377 9.23726 16.9106 9.36488 16.9106C9.41192 16.9106 9.45971 16.9007 9.50526 16.8798L9.89644 16.7002C10.6531 16.3528 11.142 15.5903 11.142 14.7577V11.9512C11.142 11.3873 10.8619 10.8639 10.3927 10.5511L7.35436 8.52556C6.97935 8.27557 6.66059 7.96301 6.40777 7.60678H16.6428C16.3899 7.96296 16.0712 8.27553 15.6962 8.52556L12.6578 10.5511C12.1886 10.8639 11.9085 11.3873 11.9085 11.9512V14.7578C11.9085 15.5903 12.3974 16.3528 13.1541 16.7002L16.667 18.3131C17.0576 18.4925 17.31 18.8861 17.31 19.3159V21.337H5.7405V19.3159C5.7405 18.8861 5.99291 18.4925 6.38355 18.3131L8.06489 17.5411C8.23397 17.4634 8.30814 17.2635 8.23052 17.0944C8.15285 16.9253 7.95285 16.8512 7.78377 16.9287L6.10243 17.7007C5.98505 17.7546 5.87544 17.8206 5.77473 17.8967C5.91475 16.876 6.48292 15.9577 7.35431 15.3768ZM17.6469 22.7773H5.40358C5.19222 22.7773 5.02031 22.6054 5.02031 22.3941C5.02031 22.1828 5.19227 22.0108 5.40358 22.0108H17.647C17.8584 22.0108 18.0303 22.1828 18.0303 22.3941C18.0303 22.6054 17.8583 22.7773 17.6469 22.7773Z" fill="black"/>
</g>
<defs>
<clipPath id="clip0_2107_3519">
<rect width="23" height="23" fill="white" transform="translate(0.0252686 0.451172)"/>
</clipPath>
</defs>
</svg>
