<svg width="28" height="20" viewBox="0 0 28 20" fill="none" xmlns="http://www.w3.org/2000/svg">
<path d="M21.2126 13.9399C21.3718 13.9399 21.531 13.8794 21.6521 13.7575L24.9697 10.4399C25.2127 10.1969 25.2127 9.80292 24.9697 9.5599L21.6521 6.24232C21.4091 5.99931 21.0152 5.99931 20.7721 6.24232C20.5291 6.48533 20.5291 6.87929 20.7721 7.12231L23.6501 10.0003L20.7721 12.8783C20.5291 13.1213 20.5291 13.5153 20.7721 13.7583C20.8941 13.8794 21.0533 13.9399 21.2126 13.9399Z" fill="#3D3D3D"/>
<g clip-path="url(#clip0_390_2430)">
<path d="M9.67307 18.5017C14.3682 18.5017 18.1744 14.6955 18.1744 10.0003C18.1744 5.30519 14.3682 1.49902 9.67307 1.49902C4.97792 1.49902 1.17175 5.30519 1.17175 10.0003C1.17175 14.6955 4.97792 18.5017 9.67307 18.5017Z" fill="url(#paint0_linear_390_2430)"/>
<path d="M19.8332 10.622H7.80692C7.46355 10.622 7.18488 10.3433 7.18488 9.99998C7.18488 9.65661 7.46355 9.37793 7.80692 9.37793H19.8332C20.1765 9.37793 20.4552 9.65661 20.4552 9.99998C20.4552 10.3433 20.1765 10.622 19.8332 10.622Z" fill="#3D3D3D"/>
<path d="M9.67304 19.1237C4.64275 19.1237 0.549683 15.0306 0.549683 10.0003C0.549683 4.97003 4.64275 0.876953 9.67304 0.876953C13.4476 0.876953 16.7801 3.14784 18.1644 6.66282C18.2905 6.98214 18.1329 7.34293 17.8136 7.46983C17.4943 7.59424 17.1335 7.43914 17.0066 7.11816C15.8114 4.08257 12.9326 2.12105 9.67304 2.12105C5.32867 2.12105 1.79378 5.65594 1.79378 10.0003C1.79378 14.3447 5.32867 17.8796 9.67304 17.8796C12.9326 17.8796 15.8114 15.9181 17.0066 12.8833C17.1326 12.5623 17.4934 12.4072 17.8136 12.5316C18.1329 12.6577 18.2905 13.0193 18.1644 13.3386C16.7801 16.8528 13.4476 19.1237 9.67304 19.1237Z" fill="#3D3D3D"/>
</g>
<defs>
<linearGradient id="paint0_linear_390_2430" x1="-0.52851" y1="10.0003" x2="19.3559" y2="10.0003" gradientUnits="userSpaceOnUse">
<stop stop-color="#3CAB8B"/>
<stop offset="1" stop-color="#31A9D3"/>
</linearGradient>
<clipPath id="clip0_390_2430">
<rect width="26.5407" height="19.9055" fill="white" transform="translate(0.536407 0.0473633)"/>
</clipPath>
</defs>
</svg>
