<svg width="196" height="172" viewBox="0 0 196 172" fill="none" xmlns="http://www.w3.org/2000/svg">
<g opacity="0.15">
<path d="M182.108 10.6104H25.194C17.7859 10.6104 11.7805 16.6158 11.7805 24.0238V122.84C11.7805 130.248 17.7859 136.254 25.194 136.254H182.108C189.516 136.254 195.521 130.248 195.521 122.84V24.0238C195.521 16.6158 189.516 10.6104 182.108 10.6104Z" fill="#677294"/>
<path d="M7.49278 9.16112C7.1786 9.15979 6.8775 9.03507 6.65443 8.81381L4.49871 6.67004C4.27319 6.44452 4.14648 6.13867 4.14648 5.81973C4.14648 5.5008 4.27319 5.19493 4.49871 4.96941C4.72422 4.74389 5.03008 4.61719 5.34901 4.61719C5.66794 4.61719 5.97382 4.74389 6.19934 4.96941L8.34309 7.12515C8.56615 7.34954 8.69136 7.65308 8.69136 7.96948C8.69136 8.28588 8.56615 8.58942 8.34309 8.81381C8.23118 8.92481 8.09846 9.01261 7.95255 9.07221C7.80663 9.13181 7.6504 9.16203 7.49278 9.16112Z" fill="#677294"/>
<path d="M4.24717 16.6824H1.21716C0.899531 16.6824 0.594908 16.5562 0.370308 16.3316C0.145709 16.107 0.0195312 15.8024 0.0195312 15.4847C0.0195312 15.1671 0.145709 14.8625 0.370308 14.6379C0.594908 14.4133 0.899531 14.2871 1.21716 14.2871H4.24717C4.5648 14.2871 4.86942 14.4133 5.09402 14.6379C5.31862 14.8625 5.4448 15.1671 5.4448 15.4847C5.4448 15.8024 5.31862 16.107 5.09402 16.3316C4.86942 16.5562 4.5648 16.6824 4.24717 16.6824Z" fill="#677294"/>
<path d="M15.1214 5.9276C14.8178 5.92834 14.5252 5.81373 14.3029 5.60695C14.0805 5.40018 13.945 5.11667 13.9238 4.81379L13.7082 1.78379C13.6968 1.62643 13.7166 1.46838 13.7665 1.3187C13.8164 1.16902 13.8953 1.03066 13.9988 0.911585C14.1023 0.792508 14.2283 0.695057 14.3696 0.624823C14.5109 0.55459 14.6646 0.512961 14.822 0.50233C15.1378 0.48261 15.4486 0.588676 15.6865 0.79737C15.9244 1.00606 16.07 1.30041 16.0915 1.61612L16.3191 4.64612C16.3305 4.80348 16.3107 4.96154 16.2608 5.11122C16.2109 5.2609 16.132 5.39926 16.0285 5.51834C15.925 5.63742 15.799 5.73487 15.6577 5.8051C15.5164 5.87534 15.3627 5.91696 15.2052 5.9276H15.1214Z" fill="#677294"/>
<path d="M117.052 123.331L165.232 171.5V123.331H117.052Z" fill="#677294"/>
<path d="M130.262 102.229L127.867 92.0612C127.262 89.3883 127.262 86.6141 127.867 83.9413L131.196 69.4619C132.558 63.2874 131.821 56.8348 129.1 51.127C126.38 45.4191 121.832 40.7826 116.178 37.9522C116.284 37.6858 116.376 37.414 116.453 37.1379C116.65 36.2595 116.671 35.351 116.517 34.4642C116.362 33.5775 116.035 32.7298 115.553 31.9697C115.07 31.2096 114.443 30.5519 113.707 30.0341C112.971 29.5163 112.14 29.1486 111.261 28.952C110.383 28.7554 109.474 28.7338 108.588 28.8883C107.701 29.0428 106.853 29.3705 106.093 29.8526C105.333 30.3347 104.675 30.9618 104.158 31.6981C103.64 32.4343 103.272 33.2654 103.076 34.1438C103.016 34.4237 102.98 34.7082 102.968 34.9941C96.6471 35.1424 90.5566 37.395 85.6606 41.3951C80.7646 45.3952 77.3428 50.9143 75.9372 57.0784L72.6917 71.5697C72.0955 74.2379 70.9087 76.7384 69.2185 78.8873L62.7633 87.091C62.1319 87.8958 61.7145 88.8472 61.5499 89.8567C61.3853 90.8663 61.479 91.901 61.8221 92.8646C62.1652 93.8282 62.7466 94.6892 63.5122 95.3676C64.2778 96.0459 65.2026 96.5194 66.2005 96.7439L123.088 109.487C124.082 109.702 125.115 109.662 126.09 109.372C127.065 109.082 127.952 108.55 128.667 107.827C129.382 107.103 129.903 106.211 130.182 105.232C130.461 104.254 130.488 103.221 130.262 102.229Z" fill="white"/>
<path d="M87.3033 105.367C86.8706 105.272 86.421 105.284 85.9944 105.404C85.5678 105.524 85.1774 105.747 84.8576 106.054C84.5378 106.361 84.2986 106.741 84.1612 107.163C84.0238 107.584 83.9923 108.033 84.0697 108.469C84.3964 110.393 85.2884 112.177 86.6322 113.593C87.976 115.008 89.7108 115.992 91.6155 116.418C93.5203 116.845 95.5089 116.695 97.3281 115.987C99.1472 115.279 100.715 114.046 101.831 112.445C102.086 112.084 102.248 111.666 102.303 111.227C102.358 110.789 102.305 110.344 102.148 109.931C101.99 109.518 101.734 109.15 101.401 108.86C101.068 108.569 100.668 108.365 100.238 108.265L87.3033 105.367Z" fill="white"/>
<path d="M43.6139 85.2107C43.3172 85.2129 43.0246 85.1407 42.763 85.0005C42.5015 84.8603 42.2793 84.6566 42.1169 84.4083C36.4604 75.9337 34.4019 65.5593 36.394 55.567C38.3862 45.5748 44.2659 36.783 52.7399 31.1257C53.1369 30.862 53.6224 30.7669 54.0896 30.8612C54.5568 30.9556 54.9673 31.2316 55.231 31.6287C55.4946 32.0257 55.5897 32.5112 55.4954 32.9784C55.4011 33.4455 55.125 33.8561 54.728 34.1197C47.0567 39.2578 41.7387 47.2308 39.9422 56.2873C38.1458 65.3438 40.0177 74.743 45.1469 82.4202C45.4118 82.8157 45.5089 83.3003 45.4169 83.7673C45.3248 84.2344 45.0511 84.6458 44.6559 84.9113C44.347 85.1146 43.9836 85.219 43.6139 85.2107Z" fill="white"/>
<path d="M51.2182 80.1089C50.9239 80.1071 50.6345 80.0329 50.3756 79.893C50.1166 79.7531 49.896 79.5517 49.7332 79.3065C45.4278 72.8508 43.861 64.9501 45.3767 57.3399C46.8925 49.7297 51.3669 43.0323 57.8172 38.7188C58.0138 38.5875 58.2343 38.4962 58.4662 38.4501C58.6981 38.404 58.9368 38.404 59.1686 38.4502C59.4005 38.4963 59.621 38.5877 59.8176 38.7191C60.0142 38.8504 60.1829 39.0192 60.3143 39.2158C60.4456 39.4124 60.5369 39.633 60.583 39.8648C60.6291 40.0967 60.6291 40.3354 60.5829 40.5673C60.5367 40.7992 60.4454 41.0197 60.314 41.2162C60.1826 41.4128 60.0138 41.5816 59.8172 41.7129C54.1556 45.4912 50.2267 51.3638 48.8949 58.0389C47.563 64.7139 48.9372 71.6446 52.7153 77.3065C52.9802 77.702 53.0773 78.1865 52.9852 78.6536C52.8932 79.1207 52.6195 79.5321 52.2242 79.7975C51.9263 79.9969 51.5767 80.1051 51.2182 80.1089Z" fill="white"/>
<path d="M58.8351 75.0189C58.5414 75.0205 58.252 74.9491 57.9928 74.8111C57.7336 74.6731 57.5127 74.4729 57.35 74.2285C55.8826 72.0313 54.863 69.5664 54.3493 66.9747C53.8356 64.383 53.838 61.7155 54.3564 59.1248C54.8748 56.534 55.8989 54.0709 57.3702 51.8764C58.8416 49.6819 60.7312 47.7991 62.9309 46.3357C63.3264 46.09 63.8019 46.0075 64.257 46.1055C64.7121 46.2035 65.1115 46.4744 65.3708 46.8611C65.6301 47.2477 65.7292 47.72 65.6471 48.1782C65.5651 48.6365 65.3083 49.0451 64.931 49.3178C63.1267 50.5222 61.5774 52.0703 60.3716 53.8737C59.1657 55.677 58.327 57.7003 57.9033 59.8278C57.4795 61.9554 57.4791 64.1456 57.902 66.2733C58.3249 68.4011 59.1629 70.4246 60.368 72.2284C60.6298 72.6249 60.7251 73.1085 60.6332 73.5746C60.5413 74.0408 60.2697 74.452 59.877 74.7195C59.5681 74.9228 59.2047 75.0273 58.8351 75.0189Z" fill="white"/>
<path d="M147.185 110.469C146.783 110.468 146.393 110.332 146.078 110.084C145.762 109.835 145.539 109.488 145.444 109.098C145.349 108.707 145.387 108.297 145.553 107.931C145.719 107.565 146.002 107.265 146.358 107.079C154.564 102.84 160.75 95.5157 163.557 86.7168C166.364 77.9179 165.563 68.3644 161.329 60.1562C161.2 59.9455 161.116 59.7105 161.082 59.4659C161.048 59.2213 161.065 58.9724 161.132 58.7347C161.199 58.4969 161.314 58.2755 161.47 58.0842C161.626 57.8929 161.82 57.7358 162.039 57.6227C162.259 57.5097 162.499 57.4431 162.746 57.4271C162.992 57.4111 163.239 57.4461 163.471 57.5299C163.704 57.6136 163.916 57.7444 164.096 57.914C164.275 58.0835 164.418 58.2883 164.514 58.5154C166.827 63.0007 168.234 67.8978 168.654 72.9268C169.074 77.9558 168.499 83.0182 166.962 87.8249C165.425 92.6317 162.956 97.0885 159.696 100.941C156.436 104.793 152.449 107.966 147.963 110.277C147.72 110.396 147.455 110.461 147.185 110.469Z" fill="white"/>
<path d="M142.981 102.337C142.579 102.336 142.189 102.2 141.874 101.952C141.558 101.703 141.335 101.356 141.24 100.966C141.144 100.576 141.183 100.165 141.349 99.799C141.514 99.4331 141.798 99.1333 142.154 98.9476C145.151 97.4025 147.814 95.2818 149.991 92.7068C152.167 90.1317 153.815 87.1528 154.84 83.9404C155.864 80.7281 156.245 77.3453 155.961 73.9855C155.677 70.6257 154.734 67.3548 153.184 64.36C152.965 63.936 152.924 63.4422 153.068 62.9874C153.213 62.5326 153.533 62.154 153.957 61.9348C154.381 61.7157 154.875 61.6739 155.329 61.8188C155.784 61.9636 156.163 62.2833 156.382 62.7073C158.147 66.1213 159.222 69.8497 159.546 73.6795C159.869 77.5092 159.434 81.3651 158.266 85.0267C157.098 88.6883 155.22 92.0838 152.739 95.0191C150.258 97.9544 147.223 100.372 143.807 102.133C143.553 102.269 143.269 102.339 142.981 102.337Z" fill="white"/>
<path d="M138.777 94.2049C138.377 94.1984 137.99 94.0592 137.677 93.8093C137.365 93.5593 137.144 93.2127 137.049 92.8237C136.955 92.4347 136.992 92.0253 137.155 91.6598C137.318 91.2942 137.598 90.9931 137.951 90.8036C139.879 89.8114 141.592 88.4485 142.993 86.7932C144.394 85.1378 145.455 83.2224 146.114 81.1567C146.774 79.0909 147.02 76.9153 146.838 74.7544C146.655 72.5935 146.049 70.4898 145.053 68.5636C144.833 68.1396 144.792 67.6459 144.937 67.1911C145.081 66.7362 145.401 66.3576 145.825 66.1384C146.249 65.9193 146.743 65.8775 147.198 66.0224C147.652 66.1673 148.031 66.4869 148.25 66.9109C150.688 71.6541 151.144 77.1705 149.518 82.2495C147.892 87.3285 144.318 91.555 139.579 94.0013C139.331 94.1295 139.056 94.1991 138.777 94.2049Z" fill="white"/>
</g>
</svg>
