<svg width="31" height="32" viewBox="0 0 31 32" fill="none" xmlns="http://www.w3.org/2000/svg">
<path d="M6.26571 31.8641H24.7338C27.2484 31.8641 29.2135 31.582 30.1337 29.9282C30.4975 29.269 30.7035 28.3996 30.7035 27.2334C30.7035 24.2419 29.3881 21.56 27.3086 19.723C26.2702 18.8015 25.0425 18.0903 23.6867 17.6633C25.4084 17.8568 26.919 18.1535 26.919 18.1535C23.4829 16.265 23.5719 9.48515 23.5719 9.48515C23.7026 6.63038 23.3922 4.43394 22.8306 2.7363C22.6311 2.85455 22.4178 2.92464 22.2127 2.94313C22.1684 2.947 22.125 2.94915 22.0794 2.94915C21.7448 2.94915 21.246 2.83563 20.7361 2.30888C20.3637 2.02121 18.0718 0.339478 15.5 0.339478C12.9458 0.339478 10.6328 2.0268 10.2621 2.31017C9.75257 2.83563 9.25507 2.94915 8.92053 2.94915C8.87538 2.94915 8.83109 2.947 8.7868 2.94313C8.58125 2.92464 8.36754 2.85412 8.16759 2.73544C7.60644 4.43351 7.29642 6.62995 7.42671 9.48558C7.42671 9.48558 7.51528 16.2662 4.07915 18.1544C4.07915 18.1544 5.00408 18.0916 6.24076 18.0697C5.3025 18.4885 4.44422 19.0496 3.68441 19.7226C1.60795 21.56 0.296875 24.2423 0.296875 27.2338C0.296875 28.4 0.501555 29.269 0.866625 29.9286C1.78554 31.582 3.75107 31.8641 6.26571 31.8641ZM15.5 24.0682L13.178 20.2958C11.4911 19.9131 10.1877 19.1253 9.66185 18.1548C11.0237 18.2722 12.1756 18.5225 12.4758 19.0122L11.1961 16.1596C12.422 17.3842 13.9025 18.1002 15.4982 18.1002C17.0583 18.1002 18.5082 17.4161 19.7165 16.2439L18.8239 18.1002C19.096 17.6543 20.0433 17.5046 21.2005 17.5046C21.3187 17.5046 21.4417 17.5059 21.5647 17.5089C21.3557 18.7714 19.8696 19.8309 17.8202 20.2958L15.5 24.0682ZM26.7234 27.9941C26.7234 28.4219 26.3768 28.7681 25.9494 28.7681H20.5314C20.104 28.7681 19.7574 28.4219 19.7574 27.9941C19.7574 27.5671 20.104 27.2201 20.5314 27.2201H25.9494C26.3768 27.2201 26.7234 27.5671 26.7234 27.9941ZM23.5646 19.158C23.7241 19.2027 23.8811 19.2638 24.0337 19.3455C25.1646 19.9501 25.5899 21.357 24.9853 22.4879C24.3807 23.618 22.9738 24.0441 21.8433 23.4395C20.7124 22.8349 20.2867 21.4271 20.8909 20.2971C21.2301 19.6628 21.8214 19.2509 22.475 19.1176C22.2656 18.049 21.5526 16.8287 20.3731 16.4408L20.1891 16.3811L20.2497 16.1966L20.46 15.5555L20.5206 15.371L20.7051 15.4316C21.7427 15.7726 22.6074 16.5866 23.1389 17.7218C23.3586 18.1922 23.5001 18.682 23.5646 19.158ZM13.1388 7.37084C13.1388 7.37084 16.0405 6.40248 19.5845 3.84914C19.6022 3.83667 19.6211 3.82506 19.6366 3.8113C19.6366 3.8113 19.7002 3.90289 19.7914 4.05898C20.0984 4.58573 20.7567 6.15652 19.5119 6.87591L21.7801 7.16401H21.8227L22.2385 7.24098C22.2325 7.5695 22.2101 7.89329 22.1628 8.20934C22.0312 9.9474 21.5905 11.5483 20.9201 12.892C19.7015 15.3357 17.7278 16.9237 15.5 16.9237C12.1034 16.9237 9.29506 13.233 8.85517 8.44627C8.85431 8.44756 11.5362 8.00337 13.1388 7.37084ZM3.28623 22.5743C3.68226 21.7079 4.18321 20.9704 4.73447 20.4398C5.05568 20.1289 5.40097 19.8864 5.7626 19.7161C5.87956 19.3872 6.11305 19.1219 6.40932 18.9783C6.52198 18.1853 6.95671 17.3382 7.6159 16.6386C8.4759 15.7253 9.5509 15.2226 10.6431 15.2226V16.2847C9.02458 16.2847 7.71481 17.8775 7.47917 19.0152C7.73329 19.158 7.93195 19.3923 8.04376 19.6804C9.0091 20.104 9.86695 21.0552 10.5266 22.4359C10.6242 22.6401 10.625 22.8732 10.5313 23.0762C10.9411 24.1004 11.1746 25.2197 11.1746 26.1618C11.1746 27.6531 11.1105 28.5875 9.85921 28.8351C9.73967 28.9521 9.58014 29.0183 9.41244 29.0183H8.45183C8.09751 29.0183 7.80854 28.7294 7.80854 28.3742V28.3617L7.80897 28.36C7.81671 28.0121 8.10309 27.7309 8.45139 27.7309H9.41201C9.50489 27.7309 9.59648 27.7515 9.68119 27.7911C9.90866 27.7434 9.9465 27.678 9.96757 27.6419C10.0875 27.4351 10.1121 26.9221 10.1121 26.1623C10.1121 25.3414 9.90264 24.358 9.53757 23.4515C9.37331 23.3789 9.23958 23.2503 9.16262 23.0886C8.53224 21.7711 7.6804 20.9524 6.93822 20.9524C6.18099 20.9524 5.28659 21.836 4.66094 23.203C4.5758 23.3901 4.41627 23.5328 4.22406 23.6008C3.88909 24.4767 3.70548 25.3835 3.70548 26.1618C3.70548 26.7582 3.71753 27.4127 3.862 27.6445C3.88393 27.6802 3.92865 27.7511 4.18622 27.7984C4.27523 27.7537 4.3737 27.7305 4.47475 27.7305H5.43538C5.77723 27.7305 6.05758 27.9988 6.0778 28.3359L6.07866 28.3398V28.3738C6.07866 28.7289 5.79012 29.0179 5.43538 29.0179H4.47519C4.31651 29.0179 4.1643 28.9581 4.04648 28.8515C3.70162 28.7947 3.24195 28.658 2.96029 28.2061C2.69284 27.7752 2.64382 27.1792 2.64382 26.1614C2.64382 25.2317 2.86397 24.1623 3.26344 23.1411C3.19679 22.9553 3.20367 22.7532 3.28623 22.5743Z" fill="url(#paint0_linear_2058_2140)"/>
<defs>
<linearGradient id="paint0_linear_2058_2140" x1="-2.74378" y1="16.1018" x2="32.8165" y2="16.1018" gradientUnits="userSpaceOnUse">
<stop stop-color="#3CAB8B"/>
<stop offset="1" stop-color="#31A9D3"/>
</linearGradient>
</defs>
</svg>
