<svg width="23" height="23" viewBox="0 0 23 23" fill="none" xmlns="http://www.w3.org/2000/svg">
<g clip-path="url(#clip0_2107_3495)">
<path d="M21.5597 7.22912L17.5891 3.25098V19.1926H22.9029V10.4592C22.9029 9.24651 22.4194 8.08398 21.5597 7.22912Z" fill="#FFB782"/>
<path d="M3.99172 16.2881L0.990026 8.49565C0.688753 7.71341 1.07849 6.83472 1.86116 6.53331L16.0291 1.07596C16.8114 0.774691 17.6901 1.16443 17.9913 1.9471L20.993 9.73953C21.2943 10.5218 20.9046 11.4004 20.1219 11.7019L5.95435 17.1592C5.17168 17.4605 4.29343 17.0703 3.99172 16.2881Z" fill="#DE4C3C"/>
<path d="M19.0731 4.75391L2.08545 11.3386L3.2166 14.275L20.205 7.69328L19.0731 4.75391Z" fill="#7A4930"/>
<path d="M0.888733 10.8423V2.49191C0.888733 1.65346 1.56856 0.973633 2.40701 0.973633H17.5895C18.4279 0.973633 19.1078 1.65346 19.1078 2.49191V10.8423C19.1078 11.6807 18.4279 12.3606 17.5895 12.3606H2.40701C1.56856 12.3606 0.888733 11.6807 0.888733 10.8423Z" fill="#4398D1"/>
<path d="M17.5891 0.973633H15.976L4.58905 12.3606H17.5891C18.4276 12.3606 19.1074 11.6807 19.1074 10.8423V2.49191C19.1074 1.65346 18.4276 0.973633 17.5891 0.973633Z" fill="#3E8CC7"/>
<path d="M2.40662 7.04639H3.92489V7.80553H2.40662V7.04639Z" fill="#5EB3D1"/>
<path d="M2.40662 9.32422H3.92489V10.0834H2.40662V9.32422Z" fill="#5EB3D1"/>
<path d="M9.23871 9.32422H10.757V10.0834H9.23871V9.32422Z" fill="#5EB3D1"/>
<path d="M4.68402 7.04639H6.20215V7.80553H4.68402V7.04639Z" fill="#5EB3D1"/>
<path d="M6.9613 7.04639H8.47958V7.80553H6.9613V7.04639Z" fill="#5EB3D1"/>
<path d="M9.23871 7.04639H10.757V7.80553H9.23871V7.04639Z" fill="#5EB3D1"/>
<path d="M16.4504 2.4917H17.2095V3.63041H16.4504V2.4917Z" fill="#5EB3D1"/>
<path d="M14.9321 2.4917H15.6913V3.63041H14.9321V2.4917Z" fill="#5EB3D1"/>
<path d="M13.4138 2.4917H14.173V3.63041H13.4138V2.4917Z" fill="#5EB3D1"/>
<path d="M11.8957 2.4917H12.6547V3.63041H11.8957V2.4917Z" fill="#5EB3D1"/>
<path d="M16.0708 19.1929H22.9029V22.9884H16.0708V19.1929Z" fill="#88B337"/>
<path d="M14.9568 7.83046C14.313 7.18898 13.2712 7.19087 12.6297 7.83467C12.0095 8.45712 11.988 9.45725 12.5808 10.106L15.6913 13.4993C14.7564 15.1355 14.7963 17.1532 15.7948 18.7512L16.0708 19.1927H21.0051V13.8789L14.9568 7.83046Z" fill="#FFB782"/>
<path d="M17.2095 20.3315H17.9687V21.0907H17.2095V20.3315Z" fill="#6B962A"/>
<path d="M2.40662 4.92091V3.09904C2.40662 2.76348 2.6784 2.4917 3.01396 2.4917H4.83583C5.17139 2.4917 5.44302 2.76348 5.44302 3.09904V4.92091C5.44302 5.25647 5.17139 5.52825 4.83583 5.52825H3.01396C2.6784 5.52825 2.40662 5.25647 2.40662 4.92091Z" fill="#FDB62F"/>
<path d="M2.40662 3.63086H3.54532V4.39H2.40662V3.63086Z" fill="#FD7B2F"/>
<path d="M4.30444 3.63086H5.44301V4.39H4.30444V3.63086Z" fill="#FD7B2F"/>
<path d="M20.6255 13.8787C20.525 13.8787 20.4282 13.8387 20.3572 13.7674L18.8389 12.2491C18.6932 12.0985 18.6974 11.8582 18.8485 11.7124C18.9958 11.5705 19.2288 11.5705 19.3757 11.7124L20.8939 13.2307C21.042 13.3791 21.042 13.6194 20.8939 13.7674C20.8225 13.8387 20.7262 13.8787 20.6255 13.8787Z" fill="#F2A46F"/>
</g>
<defs>
<clipPath id="clip0_2107_3495">
<rect width="22" height="22" fill="white" transform="translate(0.888184 0.951172)"/>
</clipPath>
</defs>
</svg>
