<svg width="45" height="45" viewBox="0 0 45 45" fill="none" xmlns="http://www.w3.org/2000/svg">
<path d="M20.1768 41.9476C20.1768 43.1005 21.1114 44.035 22.2642 44.035C23.417 44.035 24.3516 43.1005 24.3516 41.9476V38.9452H20.1768V41.9476H20.1768Z" fill="url(#paint0_linear_2058_2153)"/>
<path d="M25.253 41.9476C25.253 43.1005 26.1876 44.035 27.3404 44.035C28.4932 44.035 29.4278 43.1005 29.4278 41.9476V38.9452H25.2529V41.9476H25.253Z" fill="url(#paint1_linear_2058_2153)"/>
<path d="M28.4167 4.68264C28.4665 2.69156 26.8927 1.03712 24.9016 0.987339C22.9106 0.937562 21.2561 2.5113 21.2063 4.50238C21.1566 6.49346 22.7303 8.1479 24.7214 8.19767C26.7125 8.24745 28.3669 6.67371 28.4167 4.68264Z" fill="url(#paint2_linear_2058_2153)"/>
<path d="M25.1006 28.5766H27.167C27.514 28.5766 27.8442 28.6484 28.1439 28.7777H31.6729L30.7756 24.1447H30.0259L25.1006 28.5766Z" fill="url(#paint3_linear_2058_2153)"/>
<path d="M35.2979 24.1446C35.3905 24.2099 35.8166 24.8206 36.6973 24.8206C37.2757 24.8206 37.8208 24.5355 38.1493 24.0385C37.9059 24.1072 37.6493 24.1447 37.3839 24.1447H35.2979V24.1446Z" fill="url(#paint4_linear_2058_2153)"/>
<path d="M6.47003 31.0877C8.06285 29.8645 8.36246 27.5816 7.13922 25.9888C5.91598 24.396 3.63312 24.0964 2.0403 25.3196C0.447484 26.5429 0.147879 28.8257 1.37112 30.4185C2.59435 32.0114 4.87721 32.311 6.47003 31.0877Z" fill="url(#paint5_linear_2058_2153)"/>
<path d="M18.7314 33.5127C18.7458 33.5131 18.7607 33.5132 18.776 33.5132C18.7556 33.5126 18.7413 33.5125 18.7314 33.5127Z" fill="url(#paint6_linear_2058_2153)"/>
<path d="M21.6788 23.8885L22.7861 22.9371L19.3417 21.4987L18.8789 23.8885H21.6788Z" fill="url(#paint7_linear_2058_2153)"/>
<path d="M37.3833 19.4796H28.9813C28.6803 19.4796 28.3868 19.5547 28.1239 19.6927C28.9171 20.4113 29.2133 21.5777 28.7773 22.6218C28.2266 23.9403 26.7072 24.575 25.376 24.0191L23.7861 23.3551L22.0552 24.8424H11.281C10.1358 24.8432 9.2082 25.7796 9.20898 26.9248L9.21211 31.4016C9.21289 32.5467 10.1419 33.5141 11.287 33.5133H18.7216L14.7414 31.2516L18.5392 32.5997C18.7162 32.6625 18.9027 32.6946 19.0905 32.6946H27.1663C28.0765 32.6946 28.8144 31.9568 28.8144 31.0466C28.8144 30.1363 28.0765 29.3985 27.1663 29.3985H19.3744L15.844 28.1454L19.0905 28.5765H23.707L29.6662 23.1757H37.3834C38.4039 23.1757 39.2313 22.3483 39.2313 21.3278C39.2313 20.3072 38.4038 19.4796 37.3833 19.4796Z" fill="url(#paint8_linear_2058_2153)"/>
<path d="M40.7384 29.8484L29.32 29.8361C29.5216 30.1938 29.6371 30.6066 29.6371 31.0465C29.6371 32.4107 28.5312 33.5133 27.167 33.5133H40.7384C41.7589 33.5133 42.5863 32.7168 42.5863 31.6963C42.5863 30.6757 41.759 29.8484 40.7384 29.8484Z" fill="url(#paint9_linear_2058_2153)"/>
<path d="M42.7666 34.436H2.23342C1.27605 34.436 0.5 35.2121 0.5 36.1695C0.5 37.1268 1.27605 37.9029 2.23342 37.9029H2.83388V42.3017C2.83388 43.2591 3.60993 44.0351 4.5673 44.0351C5.52466 44.0351 6.30072 43.2591 6.30072 42.3017V37.9029H38.6993V42.3017C38.6993 43.2591 39.4753 44.0351 40.4327 44.0351C41.3901 44.0351 42.1661 43.2591 42.1661 42.3017V37.9029H42.7666C43.7239 37.9029 44.5 37.1268 44.5 36.1695C44.5 35.2121 43.7239 34.436 42.7666 34.436Z" fill="url(#paint10_linear_2058_2153)"/>
<path d="M17.7733 13.8356L18.1411 19.0273C18.1875 19.6829 18.5995 20.2563 19.2059 20.5096L25.7078 23.225C26.6 23.5976 27.6154 23.171 27.9833 22.2901C28.3534 21.4037 27.935 20.3848 27.0484 20.0147L21.5357 17.7123L21.2437 13.5898L22.1532 17.0217L27.201 19.1457C27.7033 18.7359 28.3318 18.5108 28.9814 18.5108H29.6839L29.2329 15.985L30.1323 18.5108H34.5289L33.4468 17.4473C32.7476 15.4968 32.2066 13.9655 31.8378 12.892C31.0307 10.5434 29.6775 9.35266 27.8157 9.35266C25.8602 9.35266 23.9088 9.35266 21.9503 9.35266C19.5186 9.35266 17.6022 11.42 17.7733 13.8356Z" fill="url(#paint11_linear_2058_2153)"/>
<defs>
<linearGradient id="paint0_linear_2058_2153" x1="19.7593" y1="41.4901" x2="24.6417" y2="41.4901" gradientUnits="userSpaceOnUse">
<stop stop-color="#3CAB8B"/>
<stop offset="1" stop-color="#31A9D3"/>
</linearGradient>
<linearGradient id="paint1_linear_2058_2153" x1="24.8354" y1="41.4901" x2="29.7179" y2="41.4901" gradientUnits="userSpaceOnUse">
<stop stop-color="#3CAB8B"/>
<stop offset="1" stop-color="#31A9D3"/>
</linearGradient>
<linearGradient id="paint2_linear_2058_2153" x1="24.7034" y1="8.91871" x2="24.9142" y2="0.486282" gradientUnits="userSpaceOnUse">
<stop stop-color="#3CAB8B"/>
<stop offset="1" stop-color="#31A9D3"/>
</linearGradient>
<linearGradient id="paint3_linear_2058_2153" x1="24.4434" y1="26.4612" x2="32.1297" y2="26.4612" gradientUnits="userSpaceOnUse">
<stop stop-color="#3CAB8B"/>
<stop offset="1" stop-color="#31A9D3"/>
</linearGradient>
<linearGradient id="paint4_linear_2058_2153" x1="35.0127" y1="24.4296" x2="38.3475" y2="24.4296" gradientUnits="userSpaceOnUse">
<stop stop-color="#3CAB8B"/>
<stop offset="1" stop-color="#31A9D3"/>
</linearGradient>
<linearGradient id="paint5_linear_2058_2153" x1="0.794305" y1="30.8615" x2="7.54005" y2="25.681" gradientUnits="userSpaceOnUse">
<stop stop-color="#3CAB8B"/>
<stop offset="1" stop-color="#31A9D3"/>
</linearGradient>
<linearGradient id="paint6_linear_2058_2153" x1="18.727" y1="33.5129" x2="18.7791" y2="33.5129" gradientUnits="userSpaceOnUse">
<stop stop-color="#3CAB8B"/>
<stop offset="1" stop-color="#31A9D3"/>
</linearGradient>
<linearGradient id="paint7_linear_2058_2153" x1="18.4882" y1="22.6936" x2="23.0576" y2="22.6936" gradientUnits="userSpaceOnUse">
<stop stop-color="#3CAB8B"/>
<stop offset="1" stop-color="#31A9D3"/>
</linearGradient>
<linearGradient id="paint8_linear_2058_2153" x1="6.20675" y1="26.4965" x2="41.3176" y2="26.4965" gradientUnits="userSpaceOnUse">
<stop stop-color="#3CAB8B"/>
<stop offset="1" stop-color="#31A9D3"/>
</linearGradient>
<linearGradient id="paint9_linear_2058_2153" x1="25.6251" y1="31.6747" x2="43.6578" y2="31.6747" gradientUnits="userSpaceOnUse">
<stop stop-color="#3CAB8B"/>
<stop offset="1" stop-color="#31A9D3"/>
</linearGradient>
<linearGradient id="paint10_linear_2058_2153" x1="-3.9" y1="39.2356" x2="47.5576" y2="39.2356" gradientUnits="userSpaceOnUse">
<stop stop-color="#3CAB8B"/>
<stop offset="1" stop-color="#31A9D3"/>
</linearGradient>
<linearGradient id="paint11_linear_2058_2153" x1="16.0861" y1="16.3563" x2="35.694" y2="16.3563" gradientUnits="userSpaceOnUse">
<stop stop-color="#3CAB8B"/>
<stop offset="1" stop-color="#31A9D3"/>
</linearGradient>
</defs>
</svg>
