<svg width="26" height="27" viewBox="0 0 26 27" fill="none" xmlns="http://www.w3.org/2000/svg">
<g clip-path="url(#clip0_386_1840)">
<path d="M13 6.75C9.4159 6.75 6.5 9.77805 6.5 13.5C6.5 17.2219 9.4159 20.25 13 20.25C16.5841 20.25 19.5 17.2219 19.5 13.5C19.5 9.77805 16.5841 6.75 13 6.75ZM13.4333 17.9717V18.45C13.4333 18.6988 13.2396 18.9 13 18.9C12.7604 18.9 12.5667 18.6988 12.5667 18.45V17.9725C10.6812 17.7421 10.0252 16.0542 9.99613 15.9773C9.90947 15.7455 10.02 15.4849 10.2427 15.3949C10.465 15.3045 10.7172 15.4192 10.8034 15.651C10.8238 15.7027 11.284 16.8421 12.5662 17.0604V13.9216C11.099 13.7493 9.96623 12.7192 9.96623 11.475C9.96623 10.2307 11.099 9.2007 12.5662 9.02835V8.55C12.5662 8.30115 12.7599 8.1 12.9996 8.1C13.2392 8.1 13.4329 8.30115 13.4329 8.55V9.02745C15.3183 9.25785 15.9744 10.9458 16.0034 11.0228C16.0901 11.2545 15.9796 11.515 15.7569 11.605C15.5354 11.6955 15.2841 11.5812 15.1966 11.3508C15.1736 11.2914 14.7125 10.1574 13.4333 9.9396V13.0783C14.9006 13.2507 16.0333 14.2807 16.0333 15.525C16.0333 16.7692 14.9006 17.7993 13.4333 17.9717Z" fill="url(#paint0_linear_386_1840)"/>
<path d="M7.19033 25.9592C7.381 26.1171 7.63363 26.1455 7.862 26.0312C8.0947 25.9146 8.23337 25.6847 8.23337 25.4165V22.9509C8.23337 22.7021 8.42707 22.5009 8.6667 22.5009H24.7C24.9392 22.5009 25.1334 22.2993 25.1334 22.0509V18.4505C25.1334 18.2021 24.9392 18.0005 24.7 18.0005H18.9441C17.6029 19.9058 15.4414 21.1505 13 21.1505C9.64603 21.1505 6.8142 18.8087 5.92673 15.6182L1.11023 19.7082C0.955534 19.8405 0.866267 20.0408 0.866701 20.2563C0.866701 20.4701 0.955967 20.6672 1.11023 20.7972L7.19033 25.9592Z" fill="url(#paint1_linear_386_1840)"/>
<path d="M18.8097 1.04061C18.6191 0.88221 18.3664 0.85431 18.1381 0.96861C17.9054 1.08516 17.7667 1.31511 17.7667 1.58331V4.04886C17.7667 4.29771 17.573 4.49886 17.3334 4.49886H1.30003C1.06083 4.49886 0.866699 4.70046 0.866699 4.94886V8.54931C0.866699 8.79771 1.06083 8.99931 1.30003 8.99931H7.056C8.39717 7.09401 10.5586 5.84931 13 5.84931C16.354 5.84931 19.1859 8.19111 20.0733 11.3816L24.8898 7.29156C25.0445 7.15926 25.1338 6.95901 25.1334 6.74346C25.1334 6.52971 25.0441 6.33261 24.8898 6.20256L18.8097 1.04061Z" fill="url(#paint2_linear_386_1840)"/>
<path d="M10.8333 11.4748C10.8333 12.2209 11.5916 12.8658 12.5666 13.0165V9.93311C11.5916 10.0839 10.8333 10.7283 10.8333 11.4748Z" fill="url(#paint3_linear_386_1840)"/>
<path d="M13.4333 13.9834V17.0668C14.4083 16.916 15.1667 16.2716 15.1667 15.5251C15.1667 14.7785 14.4083 14.1341 13.4333 13.9834Z" fill="url(#paint4_linear_386_1840)"/>
</g>
<defs>
<linearGradient id="paint0_linear_386_1840" x1="5.2" y1="13.5" x2="20.4034" y2="13.5" gradientUnits="userSpaceOnUse">
<stop stop-color="#3CAB8B"/>
<stop offset="1" stop-color="#31A9D3"/>
</linearGradient>
<linearGradient id="paint1_linear_386_1840" x1="-1.55997" y1="20.8594" x2="26.8197" y2="20.8594" gradientUnits="userSpaceOnUse">
<stop stop-color="#3CAB8B"/>
<stop offset="1" stop-color="#31A9D3"/>
</linearGradient>
<linearGradient id="paint2_linear_386_1840" x1="-1.55997" y1="6.14027" x2="26.8197" y2="6.14027" gradientUnits="userSpaceOnUse">
<stop stop-color="#3CAB8B"/>
<stop offset="1" stop-color="#31A9D3"/>
</linearGradient>
<linearGradient id="paint3_linear_386_1840" x1="10.6599" y1="11.4748" x2="12.687" y2="11.4748" gradientUnits="userSpaceOnUse">
<stop stop-color="#3CAB8B"/>
<stop offset="1" stop-color="#31A9D3"/>
</linearGradient>
<linearGradient id="paint4_linear_386_1840" x1="13.26" y1="15.5251" x2="15.2871" y2="15.5251" gradientUnits="userSpaceOnUse">
<stop stop-color="#3CAB8B"/>
<stop offset="1" stop-color="#31A9D3"/>
</linearGradient>
<clipPath id="clip0_386_1840">
<rect width="26" height="27" fill="white"/>
</clipPath>
</defs>
</svg>
