<svg width="15" height="15" viewBox="0 0 15 15" fill="none" xmlns="http://www.w3.org/2000/svg">
<path d="M0.146484 0.146484H14.8535V14.8535H0.146484V0.146484Z" fill="#F8D707"/>
<path d="M0.146484 0.146484H7.5V7.5H0.146484V0.146484Z" fill="#FBE76A"/>
<path d="M1.02539 13.3887V1.61133C1.02539 1.28906 1.28906 1.02539 1.61133 1.02539H13.3887C13.7109 1.02539 13.9746 1.28906 13.9746 1.61133V13.3887C13.9746 13.7109 13.7109 13.9746 13.3887 13.9746H1.61133C1.28906 13.9746 1.02539 13.7109 1.02539 13.3887Z" fill="#3179AF"/>
<path d="M7.20703 8.26172H7.79297V11.3584H7.20703V8.26172Z" fill="#6ABDFB"/>
<path d="M7.20703 9.19922H7.79297V10.4209H7.20703V9.19922Z" fill="#9CD3FC"/>
<path d="M10.2832 4.04297C10.2832 3.88184 10.1514 3.75 9.99023 3.75H5.00977C4.84863 3.75 4.7168 3.88184 4.7168 4.04297C4.7168 4.2041 4.84863 4.33594 5.00977 4.33594H6.79395C6.94043 4.33594 7.06055 4.45605 7.06055 4.60254V4.6084C7.06055 4.75195 6.94629 4.86914 6.80273 4.875L5.09766 4.94531C4.93652 4.95117 4.81055 5.08887 4.81641 5.25C4.82227 5.41113 4.95996 5.53711 5.12109 5.53125L6.7793 5.46387C6.93164 5.45801 7.05762 5.57813 7.05762 5.73047V5.73633C7.05762 5.87402 6.95215 5.99121 6.81152 6.00293L5.18555 6.14063C5.02441 6.15527 4.9043 6.2959 4.91895 6.45703C4.93359 6.61816 5.07422 6.73828 5.23535 6.72363L6.76758 6.5918C6.92285 6.57715 7.05762 6.7002 7.05762 6.8584V6.86426C7.05762 6.99902 6.95801 7.11035 6.82617 7.13086L5.27344 7.33887C5.1123 7.35938 5.00098 7.50879 5.02148 7.66699C5.04199 7.82813 5.19141 7.93945 5.34961 7.91894L6.75293 7.73145C6.91406 7.71094 7.05469 7.83398 7.05469 7.99805C7.05469 8.12695 6.96387 8.23828 6.83496 8.26172L5.35547 8.53711C5.19727 8.56641 5.0918 8.71875 5.12109 8.87695L5.12402 8.88574C5.15332 9.04394 5.30566 9.14941 5.46387 9.12012L6.76465 8.88281C7.00488 8.83887 7.25098 8.81836 7.49707 8.81836C7.74316 8.81836 7.98633 8.8418 8.22949 8.88281L9.53027 9.12012C9.68848 9.14941 9.84082 9.04394 9.87012 8.88574V8.87988C9.89941 8.72168 9.79395 8.56934 9.63574 8.54004L8.15332 8.26172C8.02734 8.23828 7.93359 8.12695 7.93359 7.99805C7.93359 7.83691 8.07715 7.71094 8.23535 7.73145L9.63867 7.91894C9.7998 7.93945 9.94629 7.82813 9.9668 7.66699C9.98731 7.50586 9.87598 7.35938 9.71484 7.33887L8.16211 7.13086C8.03027 7.11328 7.93066 6.99902 7.93066 6.86426V6.8584C7.93066 6.70313 8.06543 6.57715 8.2207 6.5918L9.75293 6.72363C9.91406 6.73828 10.0547 6.61816 10.0693 6.45703C10.084 6.2959 9.96387 6.15527 9.80273 6.14063L8.17676 6.00293C8.03906 5.99121 7.93066 5.87402 7.93066 5.73633V5.73047C7.93066 5.57813 8.05664 5.45801 8.20898 5.46387L9.86719 5.53125C10.0283 5.53711 10.166 5.41113 10.1719 5.25C10.1777 5.08887 10.0518 4.95117 9.89062 4.94531L8.18555 4.875C8.04199 4.86914 7.92773 4.75195 7.92773 4.6084V4.60254C7.92773 4.45605 8.04785 4.33594 8.19434 4.33594H9.99023C10.1514 4.33594 10.2832 4.2041 10.2832 4.04297Z" fill="#9CD3FC"/>
<path d="M9.12596 10.6112C8.05662 10.8661 6.94041 10.8661 5.87107 10.6112C5.48142 10.5175 5.12986 10.8632 5.21482 11.2557L5.51072 12.621C5.57224 12.9081 5.85349 13.0927 6.1406 13.0399L6.1992 13.0282C7.0576 12.8671 7.9365 12.8671 8.79197 13.0282L8.85056 13.0399C9.1406 13.0927 9.41892 12.9081 9.48045 12.621L9.77635 11.2557C9.86717 10.8632 9.5156 10.5204 9.12596 10.6112ZM6.57713 12.2929C6.30174 12.2929 6.07908 12.0702 6.07908 11.7948C6.07908 11.5077 6.40135 11.3348 6.64158 11.4931L6.78806 11.5927C6.89353 11.663 6.95799 11.7831 6.95799 11.9091C6.95799 12.1229 6.78806 12.2929 6.57713 12.2929ZM8.92088 11.7977C8.92088 12.0731 8.69822 12.2958 8.42283 12.2958C8.21189 12.2958 8.04197 12.1259 8.04197 11.9149C8.04197 11.786 8.10642 11.6688 8.21189 11.5985L8.35838 11.4989C8.59861 11.3378 8.92088 11.5077 8.92088 11.7977Z" fill="#9CD3FC"/>
<path d="M6.18164 1.02539V1.52051L5.70996 1.75488C5.32617 1.94824 4.89258 2.05078 4.46191 2.05078C3.97266 2.05078 3.4834 2.1709 3.04687 2.39355L1.02539 3.43945V3.77051L3.18457 2.65723C3.57715 2.45508 4.01953 2.34668 4.46484 2.34668C4.94238 2.34668 5.41699 2.23535 5.84473 2.02148L6.39551 1.74609C6.44531 1.72266 6.47754 1.66992 6.47754 1.61426V1.02539H6.18164Z" fill="#9CD3FC"/>
<path d="M13.9746 3.43945L11.9502 2.39355C11.5166 2.1709 11.0273 2.05078 10.5381 2.05078C10.1074 2.05078 9.67676 1.94824 9.29004 1.75488L8.81836 1.52051V1.02539H8.52539V1.61133C8.52539 1.66699 8.55762 1.7168 8.60742 1.74316L9.1582 2.01855C9.58301 2.23242 10.0605 2.34375 10.5381 2.34375C10.9805 2.34375 11.4229 2.45215 11.8184 2.6543L13.9775 3.76758V3.43945H13.9746Z" fill="#9CD3FC"/>
<path d="M11.3643 5.05981L13.9746 6.40747V6.07642L11.3174 4.70532C11.2764 4.68481 11.2266 4.68481 11.1826 4.70532C11.1416 4.72583 11.1123 4.76685 11.1035 4.81372L10.667 7.75513C10.5674 8.43481 10.5146 9.12622 10.5146 9.81177C10.5146 10.8342 10.626 11.8596 10.8486 12.8586L11.0977 13.9749H11.3965L11.1357 12.7942C10.9189 11.8157 10.8076 10.8137 10.8076 9.81177C10.8076 9.14087 10.8574 8.46118 10.957 7.79614L11.3643 5.05981Z" fill="#9CD3FC"/>
<path d="M3.89355 4.81372C3.8877 4.76685 3.8584 4.72583 3.81445 4.70532C3.77344 4.68481 3.72363 4.68481 3.67969 4.70532L1.02539 6.07642V6.40747L3.63574 5.05981L4.04297 7.79907C4.14258 8.46411 4.19238 9.14087 4.19238 9.8147C4.19238 10.8166 4.08105 11.8186 3.86426 12.7971L3.60352 13.9778H3.90234L4.15137 12.8616C4.37402 11.8625 4.48535 10.8372 4.48535 9.8147C4.48535 9.12915 4.43555 8.43481 4.33301 7.75806L3.89355 4.81372Z" fill="#9CD3FC"/>
<path d="M10.166 12.6562H13.0957V12.9492H10.166V12.6562Z" fill="#CDE9FE"/>
<path d="M11.6309 11.7773H13.0957V12.0703H11.6309V11.7773Z" fill="#CDE9FE"/>
<path d="M14.8535 15H0.146484C0.0644531 15 0 14.9355 0 14.8535V0.146484C0 0.0644531 0.0644531 0 0.146484 0H14.8535C14.9355 0 15 0.0644531 15 0.146484V14.8535C15 14.9355 14.9355 15 14.8535 15ZM0.292969 14.707H14.707V0.292969H0.292969V14.707Z" fill="#213762"/>
<path d="M10.166 12.6562H13.0957V12.9492H10.166V12.6562Z" fill="#213762"/>
<path d="M11.6309 11.7773H13.0957V12.0703H11.6309V11.7773Z" fill="#213762"/>
<path d="M11.25 14.1211H3.75C3.70605 14.1211 3.66211 14.1006 3.63574 14.0654C3.60938 14.0303 3.59766 13.9863 3.60645 13.9424L3.86133 12.7939C4.07812 11.8154 4.18945 10.8135 4.18945 9.81152C4.18945 9.14062 4.13965 8.46094 4.04004 7.7959L3.63281 5.05664L1.08984 6.36914C1.0459 6.39258 0.990234 6.38965 0.946289 6.36328C0.902344 6.33691 0.875977 6.29004 0.875977 6.2373V3.60059C0.875977 3.54492 0.905273 3.49512 0.955078 3.47168L3.04688 2.39355C3.4834 2.16797 3.96973 2.05078 4.46191 2.05078C4.89258 2.05078 5.32324 1.94824 5.70996 1.75488L6.18164 1.52051V1.02539C6.18164 0.943359 6.24609 0.878906 6.32812 0.878906H8.67188C8.75391 0.878906 8.81836 0.943359 8.81836 1.02539V1.52051L9.29004 1.75488C9.67383 1.94824 10.1074 2.05078 10.5381 2.05078C11.0273 2.05078 11.5166 2.1709 11.9531 2.39355L14.0449 3.47168C14.0947 3.49805 14.124 3.54785 14.124 3.60059V6.2373C14.124 6.28711 14.0977 6.33691 14.0537 6.36328C14.0098 6.38965 13.957 6.39258 13.9102 6.36914L11.3672 5.05664L10.96 7.7959C10.8604 8.46094 10.8105 9.1377 10.8105 9.81152C10.8105 10.8135 10.9219 11.8154 11.1387 12.7939L11.3936 13.9424C11.4023 13.9863 11.3936 14.0303 11.3643 14.0654C11.3379 14.1006 11.2939 14.1211 11.25 14.1211ZM3.93164 13.8281H11.0654L10.8486 12.8584C10.626 11.8594 10.5146 10.834 10.5146 9.81152C10.5146 9.12598 10.5645 8.43164 10.667 7.75488L11.1035 4.81348C11.1094 4.7666 11.1387 4.72559 11.1826 4.70508C11.2236 4.68457 11.2734 4.68457 11.3174 4.70508L13.8281 6V3.69141L11.8154 2.6543C11.4229 2.45215 10.9805 2.34375 10.5381 2.34375C10.0605 2.34375 9.58594 2.23242 9.1582 2.01855L8.60742 1.74316C8.55762 1.71973 8.52539 1.66699 8.52539 1.61133V1.17188H6.47461V1.61133C6.47461 1.66699 6.44238 1.7168 6.39258 1.74316L5.8418 2.01855C5.41699 2.23242 4.93945 2.34375 4.46191 2.34375C4.01953 2.34375 3.57715 2.45215 3.18164 2.6543L1.17188 3.69141V5.99707L3.68262 4.70215C3.72363 4.68164 3.77344 4.68164 3.81738 4.70215C3.8584 4.72266 3.8877 4.76367 3.89648 4.81055L4.33301 7.75195C4.43262 8.43164 4.48535 9.12305 4.48535 9.80859C4.48535 10.8311 4.37402 11.8564 4.15137 12.8555L3.93164 13.8281Z" fill="#213762"/>
<path d="M8.95897 13.1954C8.91503 13.1954 8.87401 13.1925 8.83007 13.1837L8.77147 13.172C7.92772 13.0138 7.07518 13.0138 6.23143 13.172L6.17284 13.1837C5.8037 13.254 5.45214 13.0197 5.37304 12.6534L5.07714 11.2882C5.02733 11.0538 5.09765 10.8165 5.26757 10.6495C5.43749 10.4825 5.67772 10.4152 5.90917 10.4708C6.95214 10.7198 8.0537 10.7198 9.09667 10.4708C9.32811 10.4152 9.56835 10.4825 9.73827 10.6495C9.90819 10.8165 9.97851 11.0538 9.9287 11.2882L9.6328 12.6534C9.55956 12.9757 9.27831 13.1954 8.95897 13.1954ZM5.74511 10.7433C5.64257 10.7433 5.54296 10.7843 5.46972 10.8575C5.37304 10.9542 5.33202 11.0919 5.35839 11.2238L5.65429 12.589C5.70116 12.7999 5.90331 12.9347 6.11425 12.8937L6.17284 12.882C7.05175 12.7179 7.94237 12.7179 8.82128 12.882L8.87987 12.8937C9.09081 12.9347 9.29589 12.7999 9.33983 12.589L9.63573 11.2238C9.66503 11.089 9.62401 10.9513 9.5244 10.8575C9.42772 10.7609 9.29003 10.7228 9.15526 10.755C8.06835 11.0128 6.91991 11.0128 5.833 10.755C5.80956 10.7462 5.77733 10.7433 5.74511 10.7433Z" fill="#213762"/>
<path d="M8.42285 12.4393C8.13281 12.4393 7.89551 12.202 7.89551 11.912C7.89551 11.7362 7.9834 11.5721 8.12988 11.4725L8.27637 11.3729C8.43164 11.2674 8.63086 11.2587 8.79785 11.3465C8.96191 11.4344 9.06445 11.6073 9.06445 11.7948C9.06738 12.1522 8.77734 12.4393 8.42285 12.4393ZM8.56055 11.5809C8.51953 11.5809 8.47852 11.5926 8.44043 11.6161L8.29395 11.7157C8.22949 11.7596 8.18848 11.8329 8.18848 11.912C8.18848 12.0409 8.29395 12.1464 8.42285 12.1464C8.61621 12.1464 8.77441 11.9881 8.77441 11.7948C8.77441 11.7157 8.7334 11.6424 8.66016 11.6044C8.62793 11.5897 8.59277 11.5809 8.56055 11.5809Z" fill="#213762"/>
<path d="M6.57715 12.4393C6.22266 12.4393 5.93262 12.1493 5.93262 11.7948C5.93262 11.6073 6.03516 11.4344 6.19922 11.3465C6.36328 11.2587 6.56543 11.2674 6.7207 11.3729L6.86719 11.4725C7.01367 11.5721 7.10156 11.7362 7.10156 11.912C7.10449 12.2049 6.86719 12.4393 6.57715 12.4393ZM6.43945 11.5809C6.4043 11.5809 6.36914 11.5897 6.33691 11.6073C6.2666 11.6454 6.22266 11.7157 6.22266 11.7977C6.22266 11.9911 6.38086 12.1493 6.57422 12.1493C6.70312 12.1493 6.80859 12.0438 6.80859 11.9149C6.80859 11.8358 6.77051 11.7626 6.70313 11.7186L6.55664 11.619C6.52148 11.5956 6.48047 11.5809 6.43945 11.5809Z" fill="#213762"/>
<path d="M9.58594 9.27246C9.55957 9.27246 9.5332 9.26953 9.50684 9.2666L8.20605 9.0293C7.74316 8.94434 7.25977 8.94434 6.79688 9.0293L5.49609 9.2666C5.25879 9.31055 5.03027 9.15234 4.98633 8.91211L4.9834 8.90332C4.93945 8.66602 5.09766 8.4375 5.33496 8.39355L6.81445 8.11816C6.87305 8.10644 6.91406 8.05664 6.91406 7.99805C6.91406 7.95117 6.8877 7.92187 6.87305 7.90723C6.8584 7.89258 6.82617 7.87207 6.77637 7.87793L5.37305 8.06543C5.13281 8.09766 4.91016 7.92773 4.88086 7.6875C4.84863 7.44726 5.01855 7.22461 5.25879 7.19531L6.81152 6.9873C6.87012 6.97852 6.91699 6.92871 6.91699 6.86719V6.86133C6.91699 6.82617 6.90234 6.79395 6.87891 6.77344C6.85254 6.75 6.82031 6.73828 6.78809 6.74121L5.25586 6.87305C5.01562 6.89355 4.80176 6.71484 4.78125 6.47168C4.76074 6.23145 4.93945 6.01758 5.18262 5.99707L6.80859 5.85938C6.87305 5.85352 6.91992 5.80078 6.91992 5.73926V5.7334C6.91992 5.70117 6.90527 5.66895 6.88184 5.64551C6.8584 5.62207 6.82617 5.61035 6.79395 5.61328L5.13574 5.68066C4.89258 5.68945 4.6875 5.50195 4.67871 5.25879C4.67285 5.1416 4.71387 5.03027 4.7959 4.94238C4.87793 4.85449 4.9834 4.80469 5.10059 4.80176L6.80566 4.73145C6.87012 4.72852 6.92285 4.67578 6.92285 4.61133V4.60547C6.92285 4.53809 6.86719 4.48535 6.80273 4.48535H5.00977C4.7666 4.48535 4.57031 4.28906 4.57031 4.0459C4.57031 3.80273 4.7666 3.60645 5.00977 3.60645H9.99023C10.2334 3.60645 10.4297 3.80273 10.4297 4.0459C10.4297 4.28906 10.2334 4.48535 9.99023 4.48535H8.20605C8.13867 4.48535 8.08594 4.54102 8.08594 4.60547V4.61133C8.08594 4.67578 8.13574 4.72852 8.20312 4.73145L9.9082 4.80176C10.0254 4.80762 10.1338 4.85742 10.2129 4.94238C10.292 5.02734 10.333 5.1416 10.3301 5.25879C10.3213 5.50195 10.1162 5.68945 9.87305 5.68066L8.21484 5.61328C8.18262 5.61328 8.15039 5.625 8.12695 5.64551C8.10352 5.66895 8.08887 5.69824 8.08887 5.7334V5.73926C8.08887 5.80371 8.13574 5.85352 8.2002 5.85938L9.82617 5.99707C10.0664 6.01758 10.248 6.23145 10.2275 6.47168C10.207 6.71191 9.99316 6.89355 9.75293 6.87305L8.2207 6.74121C8.18555 6.73828 8.15332 6.75 8.12988 6.77344C8.10352 6.79687 8.0918 6.8291 8.0918 6.86133V6.86719C8.0918 6.92871 8.13574 6.97852 8.19727 6.9873L9.75 7.19531C9.99023 7.22754 10.1602 7.44726 10.1279 7.6875C10.0957 7.92773 9.87305 8.09766 9.63574 8.06543L8.23242 7.87793C8.18555 7.87207 8.15332 7.89258 8.13574 7.90723C8.12109 7.92187 8.09473 7.95117 8.09473 7.99805C8.09473 8.05664 8.13574 8.10644 8.19434 8.11816L9.67676 8.39648C9.91406 8.44043 10.0723 8.66894 10.0283 8.90918V8.91504C9.97852 9.12305 9.79102 9.27246 9.58594 9.27246ZM7.5 8.67187C7.75195 8.67187 8.00684 8.69531 8.25879 8.73926L9.55957 8.97656C9.63867 8.99121 9.71484 8.93848 9.72949 8.85937V8.85352C9.74414 8.77441 9.69141 8.69824 9.6123 8.68359L8.12988 8.40527C7.93359 8.37012 7.79297 8.19727 7.79297 7.99805C7.79297 7.87793 7.8457 7.76367 7.93359 7.6875C8.02148 7.61133 8.1416 7.57324 8.26172 7.58789L9.66504 7.77539C9.70312 7.78125 9.74121 7.76953 9.77344 7.74609C9.80566 7.72266 9.82324 7.6875 9.8291 7.64941C9.83496 7.61133 9.82324 7.57324 9.7998 7.54101C9.77637 7.50879 9.74121 7.49121 9.70313 7.48535L8.15039 7.27734C7.94531 7.25098 7.79004 7.07227 7.79004 6.86719V6.86133C7.79004 6.74707 7.83984 6.63574 7.9248 6.55664C8.00977 6.47754 8.12402 6.43945 8.24121 6.44824L9.77344 6.58008C9.85254 6.58594 9.92578 6.52734 9.93164 6.44531C9.9375 6.36621 9.87891 6.29297 9.79688 6.28711L8.1709 6.14941C7.9541 6.13184 7.79297 5.95312 7.79297 5.73633V5.73047C7.79297 5.61621 7.83691 5.51074 7.91894 5.43164C8.00098 5.35254 8.10938 5.31152 8.22363 5.31738L9.88184 5.38477C9.91992 5.38477 9.95801 5.37305 9.9873 5.34668C10.0166 5.32031 10.0342 5.28516 10.0342 5.24414C10.0371 5.16211 9.97559 5.09473 9.89356 5.0918L8.18848 5.02148C7.96582 5.0127 7.79004 4.83105 7.79004 4.6084V4.60254C7.79004 4.37402 7.97461 4.18945 8.20312 4.18945H9.99023C10.0723 4.18945 10.1367 4.125 10.1367 4.04297C10.1367 3.96094 10.0723 3.89648 9.99023 3.89648H5.00977C4.92773 3.89648 4.86328 3.96094 4.86328 4.04297C4.86328 4.125 4.92773 4.18945 5.00977 4.18945H6.79395C7.02246 4.18945 7.20703 4.37402 7.20703 4.60254V4.6084C7.20703 4.83105 7.03125 5.0127 6.80859 5.02148L5.10352 5.0918C5.02148 5.09473 4.95996 5.16211 4.96289 5.24414C4.96582 5.28223 4.98047 5.32031 5.00977 5.34668C5.03906 5.37305 5.07422 5.3877 5.11523 5.38477L6.77344 5.31738C6.8877 5.31152 6.99609 5.35254 7.07813 5.43164C7.16016 5.51074 7.2041 5.61621 7.2041 5.73047V5.73633C7.2041 5.95312 7.04004 6.13184 6.82617 6.14941L5.2002 6.28711C5.12109 6.29297 5.05957 6.36621 5.06543 6.44531C5.07129 6.52441 5.14453 6.58594 5.22363 6.58008L6.75586 6.44824C6.87012 6.43945 6.9873 6.47754 7.07227 6.55664C7.15723 6.63574 7.20703 6.74707 7.20703 6.86133V6.86719C7.20703 7.0752 7.05176 7.25098 6.84668 7.27734L5.29395 7.48535C5.25586 7.49121 5.2207 7.51172 5.19727 7.54101C5.17383 7.57031 5.16211 7.61133 5.16797 7.64941C5.17383 7.6875 5.19434 7.72266 5.22363 7.74609C5.25586 7.76953 5.29395 7.78125 5.33203 7.77539L6.73828 7.58789C6.85547 7.57324 6.97559 7.6084 7.06641 7.6875C7.15723 7.7666 7.20703 7.88086 7.20703 7.99805C7.20703 8.19727 7.06348 8.37012 6.86719 8.40527L5.3877 8.68066C5.30859 8.69531 5.25586 8.77148 5.27051 8.85059L5.27344 8.85937C5.28809 8.93848 5.36426 8.99121 5.44336 8.97656L6.74414 8.73926C6.99316 8.69531 7.24805 8.67187 7.5 8.67187Z" fill="#213762"/>
<path d="M7.06055 8.83008H7.35352V10.7988H7.06055V8.83008Z" fill="#213762"/>
<path d="M7.64648 9.41895H7.93945V10.7988H7.64648V9.41895Z" fill="#213762"/>
<path d="M13.3887 14.1211H1.61133C1.20703 14.1211 0.878906 13.793 0.878906 13.3887V3.60352H1.17188V13.3887C1.17188 13.6318 1.36816 13.8281 1.61133 13.8281H13.3887C13.6318 13.8281 13.8281 13.6318 13.8281 13.3887V1.61133C13.8281 1.36816 13.6318 1.17188 13.3887 1.17188H1.61133C1.36816 1.17188 1.17188 1.36816 1.17188 1.61133V3.01758H0.878906V1.61133C0.878906 1.20703 1.20703 0.878906 1.61133 0.878906H13.3887C13.793 0.878906 14.1211 1.20703 14.1211 1.61133V13.3887C14.1211 13.793 13.793 14.1211 13.3887 14.1211Z" fill="#213762"/>
</svg>
